<svg width="24" height="20" viewBox="0 0 24 20" fill="none" xmlns="http://www.w3.org/2000/svg">
<path fill-rule="evenodd" clip-rule="evenodd" d="M14 4H4.11433C3.57959 4.4323 3.19753 5.04483 3.05764 5.74806C3 6.03786 3 6.38635 3 7.08333V7.58333C3 7.99755 3.33579 8.33333 3.75 8.33333H4.33333C5.25381 8.33333 6 9.07952 6 10C6 10.9205 5.25381 11.6667 4.33333 11.6667H3.75C3.33579 11.6667 3 12.0025 3 12.4167V12.9167C3 13.6136 3 13.9621 3.05764 14.2519C3.29436 15.442 4.22466 16.3723 5.41473 16.609C5.70453 16.6667 6.05302 16.6667 6.75 16.6667H15V16C14.4477 16 14 15.5523 14 15V14C14 13.4477 14.4477 13 15 13V11C14.4477 11 14 10.5523 14 10V9C14 8.44772 14.4477 8 15 8V6C14.4477 6 14 5.55228 14 5V4Z" fill="white"/>
<path fill-rule="evenodd" clip-rule="evenodd" d="M15 6V8C15.5523 8 16 8.44772 16 9V10C16 10.5523 15.5523 11 15 11V13C15.5523 13 16 13.4477 16 14V15C16 15.5523 15.5523 16 15 16V16.6667H17.25C17.947 16.6667 18.2955 16.6667 18.5853 16.609C19.7753 16.3723 20.7056 15.442 20.9424 14.2519C21 13.9621 21 13.6136 21 12.9167V12.4167C21 12.0025 20.6642 11.6667 20.25 11.6667H19.6667C18.7462 11.6667 18 10.9205 18 10C18 9.07952 18.7462 8.33333 19.6667 8.33333H20.25C20.6642 8.33333 21 7.99755 21 7.58333V7.08333C21 6.38635 21 6.03786 20.9424 5.74806C20.8025 5.04483 20.4204 4.4323 19.8857 4H16V5C16 5.55228 15.5523 6 15 6Z" fill="#54ACB1" fill-opacity="0.61"/>
</svg>
