<svg width="21" height="21" viewBox="0 0 21 21" fill="none" xmlns="http://www.w3.org/2000/svg">
<g clip-path="url(#clip0_361_173)">
<path d="M20.4895 10.6871C20.4895 9.86773 20.4214 9.2698 20.2742 8.64972H10.6992V12.348H16.3195C16.2062 13.2671 15.5943 14.6512 14.2346 15.5813L14.2155 15.7051L17.2429 17.997L17.4527 18.0174C19.3789 16.279 20.4895 13.7211 20.4895 10.6871Z" fill="#4285F4"/>
<path d="M10.6992 20.4313C13.4527 20.4313 15.7642 19.5454 17.4526 18.0174L14.2345 15.5813C13.3734 16.1682 12.2176 16.5779 10.6992 16.5779C8.00236 16.5779 5.71346 14.8395 4.89753 12.4366L4.77793 12.4466L1.62997 14.8273L1.58881 14.9391C3.26582 18.1945 6.71054 20.4313 10.6992 20.4313Z" fill="#34A853"/>
<path d="M4.89766 12.4366C4.68237 11.8166 4.55777 11.1521 4.55777 10.4656C4.55777 9.77908 4.68237 9.11473 4.88633 8.49466L4.88063 8.3626L1.69322 5.94366L1.58894 5.99214C0.897759 7.34305 0.50116 8.86008 0.50116 10.4656C0.50116 12.0712 0.897759 13.5882 1.58894 14.9391L4.89766 12.4366Z" fill="#FBBC05"/>
<path d="M10.6992 4.35336C12.6142 4.35336 13.9059 5.16168 14.6425 5.83718L17.5206 3.09107C15.753 1.4855 13.4527 0.5 10.6992 0.5C6.71054 0.5 3.26582 2.73672 1.58881 5.99214L4.8862 8.49466C5.71346 6.09183 8.00236 4.35336 10.6992 4.35336Z" fill="#EB4335"/>
</g>
<defs>
<clipPath id="clip0_361_173">
<rect width="20" height="20" fill="white" transform="translate(0.5 0.5)"/>
</clipPath>
</defs>
</svg>
