<svg width="24" height="24" viewBox="0 0 24 18" fill="none" xmlns="http://www.w3.org/2000/svg">
<path d="M8 18C6.34315 18 5 16.6569 5 15L5 4C5 2.34315 6.34315 1 8 1H15C16.6569 1 18 2.34315 18 4V15C18 16.6569 16.6569 18 15 18H8Z" fill="url(#paint0_linear_514_1105)"/>
<path d="M1 5.5C1 5.8283 1.05173 6.15339 1.15224 6.45671C1.25275 6.76002 1.40007 7.03562 1.58579 7.26777C1.7715 7.49991 1.99198 7.68406 2.23463 7.8097C2.47728 7.93534 2.73736 8 3 8C3.26264 8 3.52272 7.93534 3.76537 7.8097C4.00802 7.68406 4.2285 7.49991 4.41421 7.26777C4.59993 7.03562 4.74725 6.76002 4.84776 6.45671C4.94827 6.15339 5 5.8283 5 5.5L3 5.5H1Z" fill="white"/>
<path d="M5 5.5C5 5.8283 5.06466 6.15339 5.1903 6.45671C5.31594 6.76002 5.50009 7.03562 5.73223 7.26777C5.96438 7.49991 6.23998 7.68406 6.54329 7.8097C6.84661 7.93534 7.1717 8 7.5 8C7.8283 8 8.15339 7.93534 8.45671 7.8097C8.76002 7.68406 9.03562 7.49991 9.26777 7.26777C9.49991 7.03562 9.68406 6.76002 9.8097 6.45671C9.93534 6.15339 10 5.8283 10 5.5L7.5 5.5H5Z" fill="#2F6B6B"/>
<path d="M10 6C10 6.26264 10.0515 6.52272 10.1515 6.76537C10.2515 7.00802 10.3981 7.2285 10.5829 7.41421C10.7677 7.59993 10.9871 7.74725 11.2285 7.84776C11.47 7.94827 11.7288 8 11.9901 8C12.2515 8 12.5103 7.94827 12.7517 7.84776C12.9932 7.74725 13.2126 7.59993 13.3974 7.41421C13.5822 7.2285 13.7288 7.00802 13.8288 6.76537C13.9288 6.52272 14 6.26264 14 6H11.9901H10Z" fill="white"/>
<path d="M14 6C14.1851 6.44444 14.2224 6.52272 14.3463 6.76537C14.4702 7.00802 14.6518 7.2285 14.8808 7.41421C15.1097 7.59993 15.3815 7.74725 15.6806 7.84776C15.9798 7.94827 16.3004 8 16.6241 8C16.9479 8 17.2685 7.94827 17.5676 7.84776C17.8668 7.74725 18.1386 7.59993 18.3675 7.41421C18.5964 7.2285 18.7781 7.00802 18.902 6.76537C19.0259 6.52272 18.9971 6.26264 18.9971 6L16.6241 6L14 6Z" fill="#2F6B6B"/>
<path d="M19 6C19 6.26264 19.1291 6.52272 19.2277 6.76537C19.3262 7.00802 19.4707 7.2285 19.6527 7.41421C19.8348 7.59993 20.051 7.74725 20.2889 7.84776C20.5267 7.94827 20.7817 8 21.0392 8C21.2967 8 21.5517 7.94827 21.7896 7.84776C22.0275 7.74725 22.2436 7.59993 22.4257 7.41421C22.6078 7.2285 22.7522 7.00802 22.8507 6.76537C22.9493 6.52272 23 6.26264 23 6L21.0392 6L19 6Z" fill="white"/>
<path d="M4.71429 6L9 0C7.7549 0 6.55027 0.442193 5.60087 1.24774L0 6H4.71429Z" fill="url(#paint1_linear_514_1105)"/>
<path d="M10 6H4.5L9.02916 0H11L10 6Z" fill="url(#paint2_linear_514_1105)"/>
<path d="M12.963 0H11.037L10 6H14.5L12.963 0Z" fill="url(#paint3_linear_514_1105)"/>
<path d="M14.9286 0H13L14.2 6H19L14.9286 0Z" fill="url(#paint4_linear_514_1105)"/>
<path d="M24 6L18.2213 1.1691C17.3178 0.413803 16.1776 0 15 0L18.9478 6H24Z" fill="url(#paint5_linear_514_1105)"/>
<defs>
<linearGradient id="paint0_linear_514_1105" x1="12.5305" y1="20.8333" x2="12.5069" y2="1.73421" gradientUnits="userSpaceOnUse">
<stop stop-color="#349998"/>
<stop offset="1" stop-color="#6DB3B2" stop-opacity="0.81"/>
</linearGradient>
<linearGradient id="paint1_linear_514_1105" x1="4.5" y1="0" x2="4.5" y2="6" gradientUnits="userSpaceOnUse">
<stop stop-color="#38C7C5" stop-opacity="0.56"/>
<stop offset="1" stop-color="#44A1A0"/>
</linearGradient>
<linearGradient id="paint2_linear_514_1105" x1="8" y1="0" x2="8" y2="6" gradientUnits="userSpaceOnUse">
<stop stop-color="#217C7C" stop-opacity="0.74"/>
<stop offset="1" stop-color="#296464"/>
</linearGradient>
<linearGradient id="paint3_linear_514_1105" x1="12.0741" y1="0" x2="12.0741" y2="6" gradientUnits="userSpaceOnUse">
<stop stop-color="#34CDCB" stop-opacity="0.65"/>
<stop offset="1" stop-color="#44A1A0" stop-opacity="0.9375"/>
</linearGradient>
<linearGradient id="paint4_linear_514_1105" x1="16" y1="0" x2="16" y2="6" gradientUnits="userSpaceOnUse">
<stop stop-color="#217C7C" stop-opacity="0.71"/>
<stop offset="1" stop-color="#296464"/>
</linearGradient>
<linearGradient id="paint5_linear_514_1105" x1="19.5" y1="-1.5159e-08" x2="19.1615" y2="6.8702" gradientUnits="userSpaceOnUse">
<stop stop-color="#4DC8C6" stop-opacity="0.67"/>
<stop offset="1" stop-color="#44A09F"/>
</linearGradient>
</defs>
</svg>
