<svg width="24" height="24" viewBox="0 0 113 95" fill="none" xmlns="http://www.w3.org/2000/svg">
<path d="M35 85C28.9249 85 24 80.0751 24 74L24 25C24 18.9249 28.9249 14 35 14H74C80.0751 14 85 18.9249 85 25V74C85 80.0751 80.0751 85 74 85H35Z" fill="url(#paint0_linear_464_1091)"/>
<path d="M6 32.5C6 34.0102 6.24572 35.5056 6.72314 36.9009C7.20056 38.2961 7.90033 39.5639 8.78249 40.6317C9.66464 41.6996 10.7119 42.5467 11.8645 43.1246C13.0171 43.7025 14.2524 44 15.5 44C16.7476 44 17.9829 43.7025 19.1355 43.1246C20.2881 42.5467 21.3354 41.6996 22.2175 40.6317C23.0997 39.5639 23.7994 38.2961 24.2769 36.9009C24.7543 35.5056 25 34.0102 25 32.5L15.5 32.5H6Z" fill="#A370F7"/>
<path d="M25 32.5C25 34.0102 25.2587 35.5056 25.7612 36.9009C26.2638 38.2961 27.0003 39.5639 27.9289 40.6317C28.8575 41.6996 29.9599 42.5467 31.1732 43.1246C32.3864 43.7025 33.6868 44 35 44C36.3132 44 37.6136 43.7025 38.8268 43.1246C40.0401 42.5467 41.1425 41.6996 42.0711 40.6317C42.9997 39.5639 43.7362 38.2961 44.2388 36.9009C44.7413 35.5056 45 34.0102 45 32.5L35 32.5H25Z" fill="#6610F2"/>
<path d="M45 33C45 34.4445 45.2574 35.8749 45.7575 37.2095C46.2575 38.5441 46.9905 39.7567 47.9145 40.7782C48.8385 41.7996 49.9355 42.6099 51.1427 43.1627C52.35 43.7155 53.6439 44 54.9507 44C56.2574 44 57.5514 43.7155 58.7587 43.1627C59.9659 42.6099 61.0629 41.7996 61.9869 40.7782C62.9109 39.7567 63.6439 38.5441 64.1439 37.2095C64.644 35.8749 65 34.4445 65 33H54.9507H45Z" fill="#A370F7"/>
<path d="M65 33C65.7773 35.4444 65.9341 35.8749 66.4545 37.2095C66.9749 38.5441 67.7377 39.7567 68.6992 40.7782C69.6608 41.7996 70.8023 42.6099 72.0587 43.1627C73.315 43.7155 74.6615 44 76.0214 44C77.3812 44 78.7277 43.7155 79.9841 43.1627C81.2404 42.6099 82.382 41.7996 83.3435 40.7782C84.3051 39.7567 85.0678 38.5441 85.5882 37.2095C86.1086 35.8749 85.9879 34.4445 85.9879 33L76.0214 33H65Z" fill="#6610F2"/>
<path d="M86 33C86 34.4445 86.6457 35.8749 87.1384 37.2095C87.6311 38.5441 88.3533 39.7567 89.2637 40.7782C90.174 41.7996 91.2548 42.6099 92.4443 43.1627C93.6337 43.7155 94.9086 44 96.1961 44C97.4835 44 98.7584 43.7155 99.9479 43.1627C101.137 42.6099 102.218 41.7996 103.128 40.7782C104.039 39.7567 104.761 38.5441 105.254 37.2095C105.746 35.8749 106 34.4445 106 33L96.1961 33H86Z" fill="#A370F7"/>
<path d="M24.8571 33L42 10H37.8383C35.5402 10 33.3124 10.7915 31.5294 12.2413L6 33H24.8571Z" fill="url(#paint1_linear_464_1091)"/>
<path d="M44.9977 33H25L41.7882 10H50L44.9977 33Z" fill="url(#paint2_linear_464_1091)"/>
<path d="M59.8148 10H50.1852L45 33H65L59.8148 10Z" fill="url(#paint3_linear_464_1091)"/>
<path d="M68.3571 10H60L65.2 33H86L68.3571 10Z" fill="url(#paint4_linear_464_1091)"/>
<path d="M70.985 10H68L86.1364 33H106L79.4489 12.8483C77.0142 11.0003 74.0416 10 70.985 10Z" fill="url(#paint5_linear_464_1091)"/>
<defs>
<linearGradient id="paint0_linear_464_1091" x1="59.3354" y1="96.8333" x2="59.2478" y2="17.0664" gradientUnits="userSpaceOnUse">
<stop stop-color="#6610F2"/>
<stop offset="1" stop-color="#6610F2" stop-opacity="0.23"/>
</linearGradient>
<linearGradient id="paint1_linear_464_1091" x1="24" y1="10" x2="24" y2="33" gradientUnits="userSpaceOnUse">
<stop stop-color="#8043E3" stop-opacity="0.56"/>
<stop offset="1" stop-color="#A370F7"/>
</linearGradient>
<linearGradient id="paint2_linear_464_1091" x1="37.5" y1="10" x2="37.5" y2="33" gradientUnits="userSpaceOnUse">
<stop stop-color="#A370F7" stop-opacity="0.74"/>
<stop offset="1" stop-color="#6610F2"/>
</linearGradient>
<linearGradient id="paint3_linear_464_1091" x1="55.3704" y1="10" x2="55.3704" y2="33" gradientUnits="userSpaceOnUse">
<stop stop-color="#8043E3" stop-opacity="0.65"/>
<stop offset="1" stop-color="#A370F7" stop-opacity="0.9375"/>
</linearGradient>
<linearGradient id="paint4_linear_464_1091" x1="73" y1="10" x2="73" y2="33" gradientUnits="userSpaceOnUse">
<stop stop-color="#A370F7" stop-opacity="0.71"/>
<stop offset="1" stop-color="#6610F2"/>
</linearGradient>
<linearGradient id="paint5_linear_464_1091" x1="87" y1="10" x2="85.8214" y2="36.347" gradientUnits="userSpaceOnUse">
<stop stop-color="#8043E3" stop-opacity="0.67"/>
<stop offset="1" stop-color="#A370F7"/>
</linearGradient>
</defs>
</svg>
