<svg width="18" height="17" viewBox="0 0 18 17" fill="none" xmlns="http://www.w3.org/2000/svg">
<path fill-rule="evenodd" clip-rule="evenodd" d="M2.7177 8.80168C2.7177 8.80174 2.7177 8.80172 2.7177 8.80164C2.71776 8.80017 2.71863 8.77817 2.73111 8.73205C2.74404 8.68424 2.76673 8.62051 2.8036 8.54085C2.87798 8.38014 2.99739 8.1817 3.16633 7.95553C3.50399 7.5035 4.00315 6.98921 4.61829 6.50436C5.86404 5.52248 7.46276 4.75512 9.00326 4.75512C10.5467 4.75512 12.1445 5.51313 13.3863 6.48753C13.9999 6.969 14.4972 7.4809 14.8334 7.9336C15.1983 8.42502 15.2823 8.72394 15.2823 8.80168C15.2823 8.85997 15.2149 9.11531 14.8579 9.54284C14.5294 9.93618 14.0383 10.3752 13.4256 10.7862C12.1919 11.6137 10.5787 12.2529 9.00745 12.2448C7.43359 12.2367 5.81575 11.5852 4.57776 10.7546C3.96299 10.3421 3.46987 9.90374 3.14 9.51375C2.97506 9.31875 2.86199 9.14886 2.79326 9.01246C2.75933 8.94514 2.73943 8.89233 2.72849 8.85401C2.71872 8.81979 2.71779 8.80306 2.7177 8.80152L2.7177 8.8014V8.80168ZM9.00326 3.1875C6.96567 3.1875 5.02343 4.17672 3.62274 5.28073C2.91466 5.83883 2.31424 6.44981 1.88313 7.02695C1.66768 7.31538 1.4854 7.60751 1.35418 7.89104C1.22737 8.16506 1.125 8.48053 1.125 8.80168C1.125 9.42017 1.50514 10.031 1.91597 10.5167C2.35849 11.0399 2.96929 11.5725 3.68064 12.0498C5.09486 12.9987 7.01799 13.8022 8.99908 13.8124C10.9828 13.8227 12.9072 13.0309 14.3225 12.0816C15.0343 11.6041 15.6456 11.0683 16.0882 10.5383C16.5023 10.0424 16.875 9.42587 16.875 8.80168C16.875 8.19696 16.5219 7.55084 16.1192 7.0086C15.6878 6.42764 15.0871 5.81726 14.3792 5.26175C12.9778 4.1622 11.0379 3.1875 9.00326 3.1875ZM9.00009 11.1127C10.4661 11.1127 11.6546 9.94292 11.6546 8.49996C11.6546 7.05701 10.4661 5.88727 9.00009 5.88727C7.53405 5.88727 6.34559 7.05701 6.34559 8.49996C6.34559 9.94292 7.53405 11.1127 9.00009 11.1127ZM10.0619 8.49996C10.0619 9.07714 9.5865 9.54504 9.00009 9.54504C8.41367 9.54504 7.93829 9.07714 7.93829 8.49996C7.93829 7.92278 8.41367 7.45488 9.00009 7.45488C9.5865 7.45488 10.0619 7.92278 10.0619 8.49996Z" fill="#7C7B7B"/>
</svg>
