<svg width="30" height="30" viewBox="0 0 38 29" fill="none" xmlns="http://www.w3.org/2000/svg">
<path fill-rule="evenodd" clip-rule="evenodd" d="M0.251136 5.33312C0.412608 5.33316 0.576374 5.3724 0.728168 5.45504L19 15.403L37.2718 5.45504C37.4236 5.3724 37.5874 5.33316 37.7489 5.33312C37.7396 3.07811 37.6543 1.86995 36.8713 1.08699C35.9926 0.208313 34.5784 0.208313 31.75 0.208313H6.25C3.42157 0.208313 2.00736 0.208313 1.12868 1.08699C0.345726 1.86995 0.260429 3.07811 0.251136 5.33312ZM37.75 7.47192L19.9563 17.1596C19.3601 17.4842 18.6399 17.4842 18.0437 17.1596L0.25 7.47192V22.7916C0.25 25.6201 0.25 27.0343 1.12868 27.913C2.00736 28.7916 3.42157 28.7916 6.25 28.7916H31.75C34.5784 28.7916 35.9926 28.7916 36.8713 27.913C37.75 27.0343 37.75 25.6201 37.75 22.7916V7.47192Z" fill="#FFFFFB"/>
</svg>
