<svg width="120" height="50" viewBox="0 0 392 105" fill="none" xmlns="http://www.w3.org/2000/svg">
<path d="M104 29C104 30.1819 104.323 31.3522 104.952 32.4442C105.58 33.5361 106.5 34.5282 107.661 35.364C108.822 36.1997 110.2 36.8626 111.716 37.3149C113.233 37.7672 114.858 38 116.5 38C118.142 38 119.767 37.7672 121.284 37.3149C122.8 36.8626 124.178 36.1997 125.339 35.364C126.5 34.5282 127.42 33.5361 128.048 32.4442C128.677 31.3522 129 30.1819 129 29L116.5 29H104Z" fill="#44A1A0"/>
<path d="M129 29C129 30.1819 129.349 31.3522 130.028 32.4442C130.706 33.5361 131.7 34.5282 132.954 35.364C134.208 36.1997 135.696 36.8626 137.334 37.3149C138.972 37.7672 140.727 38 142.5 38C144.273 38 146.028 37.7672 147.666 37.3149C149.304 36.8626 150.792 36.1997 152.046 35.364C153.3 34.5282 154.294 33.5361 154.972 32.4442C155.651 31.3522 156 30.1819 156 29L142.5 29H129Z" fill="#247B7B"/>
<path d="M156 29C156 30.1819 156.347 31.3522 157.023 32.4442C157.698 33.5361 158.687 34.5282 159.935 35.364C161.182 36.1997 162.663 36.8626 164.293 37.3149C165.922 37.7672 167.669 38 169.433 38C171.198 38 172.944 37.7672 174.574 37.3149C176.204 36.8626 177.685 36.1997 178.932 35.364C180.18 34.5282 181.169 33.5361 181.844 32.4442C182.519 31.3522 183 30.1819 183 29H169.433H156Z" fill="#44A1A0"/>
<path d="M183 29C184.036 31 184.246 31.3522 184.939 32.4442C185.633 33.5361 186.65 34.5282 187.932 35.364C189.214 36.1997 190.736 36.8626 192.412 37.3149C194.087 37.7672 195.882 38 197.695 38C199.508 38 201.304 37.7672 202.979 37.3149C204.654 36.8626 206.176 36.1997 207.458 35.364C208.74 34.5282 209.757 33.5361 210.451 32.4442C211.145 31.3522 210.984 30.1819 210.984 29L197.695 29H183Z" fill="#247B7B"/>
<path d="M211 29C211 30.1819 211.839 31.3522 212.48 32.4442C213.12 33.5361 214.059 34.5282 215.243 35.364C216.426 36.1997 217.831 36.8626 219.378 37.3149C220.924 37.7672 222.581 38 224.255 38C225.929 38 227.586 37.7672 229.132 37.3149C230.679 36.8626 232.084 36.1997 233.267 35.364C234.451 34.5282 235.389 33.5361 236.03 32.4442C236.67 31.3522 237 30.1819 237 29L224.255 29H211Z" fill="#44A1A0"/>
<path d="M129.143 29L152 12H143.864C142.447 12 141.046 12.3011 139.755 12.8834L104 29H129.143Z" fill="url(#paint0_linear_453_1153)"/>
<path d="M156.197 29H129L151.832 12H163L156.197 29Z" fill="url(#paint1_linear_453_1153)"/>
<path d="M176 12H163L156 29H183L176 12Z" fill="url(#paint2_linear_453_1153)"/>
<path d="M187.25 12H176L183 29H211L187.25 12Z" fill="url(#paint3_linear_453_1153)"/>
<path d="M194.267 12H187L210.864 29H237L199.757 13.1216C198.021 12.3815 196.154 12 194.267 12Z" fill="url(#paint4_linear_453_1153)"/>
<rect x="8" y="16" width="59" height="22" rx="11" fill="url(#paint5_linear_453_1153)"/>
<rect x="269.821" y="44.0001" width="59" height="22" rx="11" transform="rotate(35.647 269.821 44.0001)" fill="url(#paint6_linear_453_1153)"/>
<rect x="316.862" y="29.9018" width="29.5228" height="22" rx="11" transform="rotate(144.461 316.862 29.9018)" fill="url(#paint7_linear_453_1153)"/>
<rect x="45" y="96" width="80" height="22" rx="11" transform="rotate(-90 45 96)" fill="url(#paint8_linear_453_1153)"/>
<path d="M338.609 86.7959C332.844 86.9143 328.074 82.3368 327.956 76.5717L327.437 51.2769C327.318 45.5118 331.896 40.7423 337.661 40.6239C343.426 40.5055 348.195 45.0831 348.314 50.8481L348.833 76.143C348.952 81.9081 344.374 86.6775 338.609 86.7959Z" fill="url(#paint9_linear_453_1153)"/>
<path d="M367.697 86.198C361.919 86.3167 357.138 81.7286 357.02 75.9502L356.133 32.7947C356.015 27.0163 360.603 22.2358 366.381 22.1171C372.159 21.9985 376.94 26.5866 377.059 32.365L377.945 75.5205C378.064 81.2989 373.475 86.0794 367.697 86.198Z" fill="#439A99"/>
<rect x="254" y="94.0001" width="80" height="22" rx="11" transform="rotate(-90 254 94.0001)" fill="#439A99"/>
<rect x="148" y="88" width="38" height="13" rx="6.5" transform="rotate(-90 148 88)" fill="url(#paint10_linear_453_1153)"/>
<rect x="177" y="88" width="38" height="13" rx="6.5" transform="rotate(-90 177 88)" fill="url(#paint11_linear_453_1153)"/>
<rect x="153" y="67" width="30" height="13" rx="6.5" fill="url(#paint12_linear_453_1153)"/>
<circle cx="85.5" cy="27.5" r="11.5" fill="url(#paint13_linear_453_1153)"/>
<circle cx="115" cy="68" r="20" fill="url(#paint14_linear_453_1153)"/>
<path d="M354.108 95.4795C374.296 94.5649 377.996 77.9854 377.935 74.986L357 76C354.213 78.0577 350.359 76.886 349.163 76.077L327.956 76.5125C330.335 93.9674 344.514 95.6766 354.108 95.4795Z" fill="url(#paint15_linear_453_1153)"/>
<circle cx="222" cy="68" r="20" fill="url(#paint16_linear_453_1153)"/>
<defs>
<linearGradient id="paint0_linear_453_1153" x1="128" y1="12" x2="128" y2="29" gradientUnits="userSpaceOnUse">
<stop stop-color="#44A1A0" stop-opacity="0.56"/>
<stop offset="1" stop-color="#44A1A0"/>
</linearGradient>
<linearGradient id="paint1_linear_453_1153" x1="146" y1="12" x2="146" y2="29" gradientUnits="userSpaceOnUse">
<stop stop-color="#247B7B" stop-opacity="0.74"/>
<stop offset="1" stop-color="#247B7B"/>
</linearGradient>
<linearGradient id="paint2_linear_453_1153" x1="170" y1="12" x2="170" y2="29" gradientUnits="userSpaceOnUse">
<stop stop-color="#44A1A0" stop-opacity="0.65"/>
<stop offset="1" stop-color="#44A1A0" stop-opacity="0.9375"/>
</linearGradient>
<linearGradient id="paint3_linear_453_1153" x1="193.5" y1="12" x2="193.5" y2="29" gradientUnits="userSpaceOnUse">
<stop stop-color="#247B7B" stop-opacity="0.71"/>
<stop offset="1" stop-color="#247B7B"/>
</linearGradient>
<linearGradient id="paint4_linear_453_1153" x1="212" y1="12" x2="211.51" y2="31.5005" gradientUnits="userSpaceOnUse">
<stop stop-color="#429695" stop-opacity="0.67"/>
<stop offset="1" stop-color="#44A09F"/>
</linearGradient>
<linearGradient id="paint5_linear_453_1153" x1="37.5" y1="16" x2="37.5" y2="38" gradientUnits="userSpaceOnUse">
<stop stop-color="#247B7B" stop-opacity="0.75"/>
<stop offset="1" stop-color="#247B7B"/>
</linearGradient>
<linearGradient id="paint6_linear_453_1153" x1="322.175" y1="81.5187" x2="285.69" y2="28.928" gradientUnits="userSpaceOnUse">
<stop stop-color="#247B7B"/>
<stop offset="1" stop-color="#247B7B" stop-opacity="0.82"/>
</linearGradient>
<linearGradient id="paint7_linear_453_1153" x1="340.114" y1="25.4992" x2="315.818" y2="56.0716" gradientUnits="userSpaceOnUse">
<stop stop-color="#247B7B"/>
<stop offset="1" stop-color="#247B7B" stop-opacity="0.66"/>
</linearGradient>
<linearGradient id="paint8_linear_453_1153" x1="45" y1="108.5" x2="126" y2="108" gradientUnits="userSpaceOnUse">
<stop stop-color="#439A99"/>
<stop offset="1" stop-color="#439A99" stop-opacity="0.87"/>
</linearGradient>
<linearGradient id="paint9_linear_453_1153" x1="341" y1="78.5" x2="339.5" y2="28" gradientUnits="userSpaceOnUse">
<stop stop-color="#247B7B"/>
<stop offset="1" stop-color="#247B7B" stop-opacity="0.57"/>
</linearGradient>
<linearGradient id="paint10_linear_453_1153" x1="148" y1="94" x2="189.5" y2="95" gradientUnits="userSpaceOnUse">
<stop stop-color="#247B7B"/>
<stop offset="1" stop-color="#247B7B" stop-opacity="0.72"/>
</linearGradient>
<linearGradient id="paint11_linear_453_1153" x1="220" y1="94" x2="177" y2="94" gradientUnits="userSpaceOnUse">
<stop stop-color="#247B7B" stop-opacity="0.65"/>
<stop offset="1" stop-color="#247B7B"/>
</linearGradient>
<linearGradient id="paint12_linear_453_1153" x1="168" y1="67" x2="168" y2="80" gradientUnits="userSpaceOnUse">
<stop stop-color="#439A99" stop-opacity="0.82"/>
<stop offset="1" stop-color="#439A99"/>
</linearGradient>
<linearGradient id="paint13_linear_453_1153" x1="85.5" y1="16" x2="85.5" y2="39" gradientUnits="userSpaceOnUse">
<stop stop-color="#247B7B" stop-opacity="0.69"/>
<stop offset="1" stop-color="#247B7B"/>
</linearGradient>
<linearGradient id="paint14_linear_453_1153" x1="115" y1="48" x2="115" y2="88" gradientUnits="userSpaceOnUse">
<stop stop-color="#247B7B" stop-opacity="0.74"/>
<stop offset="1" stop-color="#247B7B"/>
</linearGradient>
<linearGradient id="paint15_linear_453_1153" x1="347" y1="79.0001" x2="356" y2="71.5001" gradientUnits="userSpaceOnUse">
<stop stop-color="#247B7B"/>
<stop offset="1" stop-color="#439A99"/>
</linearGradient>
<linearGradient id="paint16_linear_453_1153" x1="222" y1="48" x2="222" y2="88" gradientUnits="userSpaceOnUse">
<stop stop-color="#247B7B" stop-opacity="0.77"/>
<stop offset="1" stop-color="#247B7B"/>
</linearGradient>
</defs>
</svg>
