<svg width="120" height="50" viewBox="0 0 149 35" fill="none" xmlns="http://www.w3.org/2000/svg">
<path d="M38 7C38 7.52529 38.1293 8.04543 38.3806 8.53073C38.6319 9.01604 39.0002 9.45699 39.4645 9.82843C39.9288 10.1999 40.48 10.4945 41.0866 10.6955C41.6932 10.8965 42.3434 11 43 11C43.6566 11 44.3068 10.8965 44.9134 10.6955C45.52 10.4945 46.0712 10.1999 46.5355 9.82843C46.9998 9.45699 47.3681 9.01604 47.6194 8.53073C47.8707 8.04543 48 7.52529 48 7L43 7L38 7Z" fill="#6916F2"/>
<path d="M48 7C48 7.52529 48.1552 8.04543 48.4567 8.53073C48.7583 9.01604 49.2002 9.45699 49.7574 9.82843C50.3145 10.1999 50.9759 10.4945 51.7039 10.6955C52.4319 10.8965 53.2121 11 54 11C54.7879 11 55.5681 10.8965 56.2961 10.6955C57.0241 10.4945 57.6855 10.1999 58.2426 9.82843C58.7998 9.45699 59.2417 9.01604 59.5433 8.53073C59.8448 8.04543 60 7.52529 60 7L54 7L48 7Z" fill="#3E0990"/>
<path d="M60 7C60 7.52529 60.1287 8.04543 60.3787 8.53073C60.6288 9.01604 60.9952 9.45699 61.4572 9.82843C61.9192 10.1999 62.4677 10.4945 63.0714 10.6955C63.675 10.8965 64.322 11 64.9753 11C65.6287 11 66.2757 10.8965 66.8793 10.6955C67.483 10.4945 68.0314 10.1999 68.4934 9.82843C68.9554 9.45699 69.3219 9.01604 69.572 8.53073C69.822 8.04543 70 7.52529 70 7H64.9753L60 7Z" fill="#7122F3"/>
<path d="M70 7C70.4442 7.88889 70.5338 8.04543 70.8312 8.53073C71.1285 9.01604 71.5644 9.45699 72.1138 9.82843C72.6633 10.1999 73.3156 10.4945 74.0335 10.6955C74.7514 10.8965 75.5209 11 76.2979 11C77.075 11 77.8444 10.8965 78.5623 10.6955C79.2802 10.4945 79.9325 10.1999 80.482 9.82843C81.0315 9.45699 81.4673 9.01604 81.7647 8.53073C82.0621 8.04543 81.9931 7.52529 81.9931 7L76.2979 7L70 7Z" fill="#3E0990"/>
<path d="M82 7C82 7.52529 82.3229 8.04543 82.5692 8.53073C82.8156 9.01604 83.1766 9.45699 83.6318 9.82843C84.087 10.1999 84.6274 10.4945 85.2221 10.6955C85.8169 10.8965 86.4543 11 87.098 11C87.7418 11 88.3792 10.8965 88.9739 10.6955C89.5687 10.4945 90.1091 10.1999 90.5642 9.82843C91.0194 9.45699 91.3805 9.01604 91.6269 8.53073C91.8732 8.04543 92 7.52529 92 7L87.098 7L82 7Z" fill="#772CF3"/>
<path d="M48.4762 7L58 0H55.8408C54.4388 0 53.0525 0.294815 51.7717 0.865312L38 7H48.4762Z" fill="url(#paint0_linear_246_749)"/>
<path d="M59.1987 7H48L57.4014 0H62L59.1987 7Z" fill="url(#paint1_linear_246_749)"/>
<path d="M67.4074 0H62.5926L60 7H70L67.4074 0Z" fill="url(#paint2_linear_246_749)"/>
<path d="M71.8214 0H67L70 7H82L71.8214 0Z" fill="url(#paint3_linear_246_749)"/>
<path d="M73.1136 0H72L81.5455 7H92L78.74 1.18034C76.9664 0.40192 75.0505 0 73.1136 0Z" fill="url(#paint4_linear_246_749)"/>
<rect y="2" width="24" height="9" rx="4.5" fill="url(#paint5_linear_246_749)"/>
<rect x="25" y="2" width="12" height="9" rx="4.5" fill="url(#paint6_linear_246_749)"/>
<rect width="24.0653" height="9.08746" rx="4.54373" transform="matrix(0.801549 0.59793 -0.567638 0.823278 105.338 13.3915)" fill="url(#paint7_linear_246_749)"/>
<rect width="12.0411" height="9.08808" rx="4.54404" transform="matrix(-0.802685 0.596403 -0.56611 -0.82433 124.263 7.49158)" fill="url(#paint8_linear_246_749)"/>
<rect x="15" y="35" width="33" height="9" rx="4.5" transform="rotate(-90 15 35)" fill="url(#paint9_linear_246_749)"/>
<path d="M133.013 31.3008C130.694 31.3503 128.776 29.5101 128.73 27.1906L128.515 16.2682C128.469 13.9487 130.312 12.0281 132.631 11.9786V11.9786C134.951 11.929 136.868 13.7692 136.914 16.0887L137.13 27.0112C137.176 29.3307 135.332 31.2512 133.013 31.3008V31.3008Z" fill="url(#paint10_linear_246_749)"/>
<path d="M144.716 31.0505C142.391 31.1002 140.469 29.2558 140.423 26.9309L140.06 8.53328C140.014 6.2084 141.862 4.28346 144.186 4.2338V4.2338C146.511 4.18414 148.433 6.02857 148.479 8.35344L148.842 26.751C148.888 29.0759 147.041 31.0009 144.716 31.0505V31.0505Z" fill="#8441F5"/>
<rect x="99" y="34" width="33" height="9" rx="4.5" transform="rotate(-90 99 34)" fill="#8441F5"/>
<rect x="56" y="32" width="16" height="5" rx="2.5" transform="rotate(-90 56 32)" fill="url(#paint11_linear_246_749)"/>
<rect x="68" y="32" width="16" height="5" rx="2.5" transform="rotate(-90 68 32)" fill="url(#paint12_linear_246_749)"/>
<rect x="59" y="23" width="11" height="5" rx="2.5" fill="url(#paint13_linear_246_749)"/>
<ellipse cx="43" cy="23.5" rx="8" ry="8.5" fill="url(#paint14_linear_246_749)"/>
<path d="M139.249 34.9347C147.371 34.552 148.86 27.6137 148.835 26.3586L140.412 26.7829C139.291 27.644 137.74 27.1536 137.259 26.8151L128.727 26.9974C129.684 34.3019 135.389 35.0172 139.249 34.9347Z" fill="url(#paint15_linear_246_749)"/>
<ellipse cx="86" cy="23.5" rx="8" ry="8.5" fill="url(#paint16_linear_246_749)"/>
<defs>
<linearGradient id="paint0_linear_246_749" x1="48" y1="0" x2="48" y2="7" gradientUnits="userSpaceOnUse">
<stop stop-color="#A370F7" stop-opacity="0.56"/>
<stop offset="1" stop-color="#6510F2"/>
</linearGradient>
<linearGradient id="paint1_linear_246_749" x1="55" y1="0" x2="55" y2="7" gradientUnits="userSpaceOnUse">
<stop stop-color="#6510F2" stop-opacity="0.74"/>
<stop offset="1" stop-color="#3E0990"/>
</linearGradient>
<linearGradient id="paint2_linear_246_749" x1="65.1852" y1="0" x2="65.1852" y2="7" gradientUnits="userSpaceOnUse">
<stop stop-color="#A370F7" stop-opacity="0.65"/>
<stop offset="1" stop-color="#6510F2" stop-opacity="0.9375"/>
</linearGradient>
<linearGradient id="paint3_linear_246_749" x1="74.5" y1="0" x2="74.5" y2="7" gradientUnits="userSpaceOnUse">
<stop stop-color="#6510F2" stop-opacity="0.71"/>
<stop offset="1" stop-color="#3E0990"/>
</linearGradient>
<linearGradient id="paint4_linear_246_749" x1="82" y1="-1.76855e-08" x2="81.7923" y2="8.02932" gradientUnits="userSpaceOnUse">
<stop stop-color="#A370F7" stop-opacity="0.67"/>
<stop offset="1" stop-color="#6510F2"/>
</linearGradient>
<linearGradient id="paint5_linear_246_749" x1="12" y1="2" x2="11.7943" y2="14.2727" gradientUnits="userSpaceOnUse">
<stop stop-color="#8441F5" stop-opacity="0.75"/>
<stop offset="1" stop-color="#520BC2"/>
</linearGradient>
<linearGradient id="paint6_linear_246_749" x1="31" y1="2" x2="31" y2="12.4318" gradientUnits="userSpaceOnUse">
<stop stop-color="#8441F5" stop-opacity="0.75"/>
<stop offset="1" stop-color="#520BC2"/>
</linearGradient>
<linearGradient id="paint7_linear_246_749" x1="21.3545" y1="15.4977" x2="6.21773" y2="-6.04681" gradientUnits="userSpaceOnUse">
<stop stop-color="#8441F5"/>
<stop offset="1" stop-color="#3B247B" stop-opacity="0.82"/>
</linearGradient>
<linearGradient id="paint8_linear_246_749" x1="9.48366" y1="-1.8187" x2="-0.581323" y2="10.6855" gradientUnits="userSpaceOnUse">
<stop stop-color="#8441F5"/>
<stop offset="1" stop-color="#8441F5" stop-opacity="0.69"/>
</linearGradient>
<linearGradient id="paint9_linear_246_749" x1="5.925" y1="39.5" x2="48.4124" y2="39.9159" gradientUnits="userSpaceOnUse">
<stop stop-color="#520BC2"/>
<stop offset="1" stop-color="#8441F5" stop-opacity="0.87"/>
</linearGradient>
<linearGradient id="paint10_linear_246_749" x1="133.975" y1="27.8291" x2="133.322" y2="6.69722" gradientUnits="userSpaceOnUse">
<stop stop-color="#520BC2" stop-opacity="0.92"/>
<stop offset="1" stop-color="#9B65F7"/>
</linearGradient>
<linearGradient id="paint11_linear_246_749" x1="56" y1="34.3077" x2="73.4717" y2="34.7686" gradientUnits="userSpaceOnUse">
<stop stop-color="#520BC2"/>
<stop offset="1" stop-color="#8441F5" stop-opacity="0.72"/>
</linearGradient>
<linearGradient id="paint12_linear_246_749" x1="86.1053" y1="34.3077" x2="68" y2="34.3077" gradientUnits="userSpaceOnUse">
<stop stop-color="#8441F5" stop-opacity="0.65"/>
<stop offset="1" stop-color="#520BC2"/>
</linearGradient>
<linearGradient id="paint13_linear_246_749" x1="64.5" y1="23" x2="64.5" y2="28" gradientUnits="userSpaceOnUse">
<stop stop-color="#8A4AF5" stop-opacity="0.82"/>
<stop offset="1" stop-color="#843FF2"/>
</linearGradient>
<linearGradient id="paint14_linear_246_749" x1="43" y1="15" x2="43" y2="32" gradientUnits="userSpaceOnUse">
<stop stop-color="#8441F5" stop-opacity="0.72"/>
<stop offset="1" stop-color="#520BC2"/>
</linearGradient>
<linearGradient id="paint15_linear_246_749" x1="136.389" y1="28.0384" x2="140.126" y2="25.0445" gradientUnits="userSpaceOnUse">
<stop stop-color="#6424C8"/>
<stop offset="1" stop-color="#8441F5"/>
</linearGradient>
<linearGradient id="paint16_linear_246_749" x1="86" y1="16.0625" x2="86" y2="33.4875" gradientUnits="userSpaceOnUse">
<stop stop-color="#8441F5" stop-opacity="0.72"/>
<stop offset="1" stop-color="#520BC2"/>
</linearGradient>
</defs>
</svg>
