<svg width="367" height="350" viewBox="0 0 367 350" fill="none" xmlns="http://www.w3.org/2000/svg">
<g clip-path="url(#clip0_241_691)">
<path opacity="0.18" d="M215.06 345.627C218.785 347.186 222.903 347.415 226.923 347.608C260.851 349.269 294.801 350.065 328.775 349.994C332.172 349.994 335.643 349.959 338.825 348.763C342.008 347.567 344.89 344.941 345.45 341.54C324.178 339.864 302.755 340.028 281.557 339.23C270.445 338.814 258.904 340.227 247.849 341.3C242.247 341.847 236.654 342.488 231.07 343.223C227.559 343.692 218.184 346.934 215.06 345.627Z" fill="#1D2741"/>
<path d="M281.499 335.021L284.116 341.546L273.546 346.623L263.785 347.344C263.785 347.344 262.116 340.819 266.673 340.239C269.337 339.93 271.878 338.933 274.054 337.343L281.499 335.021ZM289.892 337.97C288.567 338.525 287.415 339.434 286.559 340.601C285.703 341.767 285.174 343.147 285.028 344.595L284.745 347.344H296.748V337.964L289.892 337.97Z" fill="#44A1A0"/>
<path opacity="0.22" d="M366.134 38.9631V201.874C366.134 204.245 365.675 206.593 364.781 208.783C363.888 210.974 362.578 212.964 360.926 214.64C359.275 216.316 357.314 217.646 355.156 218.553C352.998 219.46 350.685 219.926 348.35 219.925H17.784C13.0674 219.925 8.54394 218.024 5.2088 214.638C1.87366 211.253 0 206.662 0 201.874V38.9631C0.0061131 34.1776 1.88174 29.5898 5.21556 26.2059C8.54937 22.8221 13.0692 20.9183 17.784 20.912H348.361C353.074 20.9214 357.591 22.8265 360.922 26.2101C364.253 29.5936 366.127 34.1796 366.134 38.9631Z" fill="url(#paint0_linear_241_691)"/>
<path d="M367 38.3593V201.265C367.001 205.396 365.606 209.402 363.049 212.615C360.492 215.829 356.926 218.055 352.947 218.923C351.722 219.185 350.474 219.317 349.222 219.316H18.6446C16.3085 219.317 13.995 218.851 11.8363 217.945C9.67764 217.038 7.71617 215.709 6.06401 214.033C4.41185 212.356 3.10141 210.366 2.20759 208.175C1.31377 205.984 0.8541 203.636 0.854859 201.265V38.3593C0.859447 33.5717 2.73519 28.9816 6.07042 25.5963C9.40565 22.2109 13.9279 20.307 18.6446 20.3024H349.222C353.541 20.3032 357.713 21.9 360.957 24.7947C364.201 27.6894 366.296 31.6839 366.85 36.0318C366.953 36.8032 367.003 37.5809 367 38.3593Z" fill="#44A1A0"/>
<path d="M367 38.3593V201.265C367.001 205.396 365.606 209.402 363.049 212.615C360.492 215.829 356.926 218.055 352.947 218.923C351.722 219.185 350.474 219.317 349.222 219.316H18.6446C16.3085 219.317 13.995 218.851 11.8363 217.945C9.67764 217.038 7.71617 215.709 6.06401 214.033C4.41185 212.356 3.10141 210.366 2.20759 208.175C1.31377 205.984 0.8541 203.636 0.854859 201.265V38.3593C0.859447 33.5717 2.73519 28.9816 6.07042 25.5963C9.40565 22.2109 13.9279 20.307 18.6446 20.3024H349.222C353.541 20.3032 357.713 21.9 360.957 24.7947C364.201 27.6894 366.296 31.6839 366.85 36.0318C366.953 36.8032 367.003 37.5809 367 38.3593Z" fill="url(#paint1_linear_241_691)"/>
<path d="M365.995 36.6415H0.150146C0.705758 32.293 2.8018 28.2985 6.04681 25.4039C9.29182 22.5093 13.4639 20.9127 17.7839 20.912H348.361C352.682 20.9114 356.854 22.5077 360.1 25.4025C363.345 28.2973 365.441 32.2925 365.995 36.6415Z" fill="url(#paint2_linear_241_691)"/>
<path d="M238.949 163.574H115.194C112.668 163.574 110.62 165.653 110.62 168.217V175.856C110.62 178.42 112.668 180.499 115.194 180.499H238.949C241.475 180.499 243.523 178.42 243.523 175.856V168.217C243.523 165.653 241.475 163.574 238.949 163.574Z" fill="white" stroke="#44A1A0" stroke-width="0.88" stroke-miterlimit="10"/>
<path d="M121.455 175.95C123.462 175.95 125.088 174.299 125.088 172.262C125.088 170.226 123.462 168.575 121.455 168.575C119.449 168.575 117.822 170.226 117.822 172.262C117.822 174.299 119.449 175.95 121.455 175.95Z" fill="#44A1A0"/>
<path d="M132.759 175.95C134.765 175.95 136.392 174.299 136.392 172.262C136.392 170.226 134.765 168.575 132.759 168.575C130.752 168.575 129.126 170.226 129.126 172.262C129.126 174.299 130.752 175.95 132.759 175.95Z" fill="#44A1A0"/>
<path d="M144.068 175.95C146.075 175.95 147.701 174.299 147.701 172.262C147.701 170.226 146.075 168.575 144.068 168.575C142.062 168.575 140.435 170.226 140.435 172.262C140.435 174.299 142.062 175.95 144.068 175.95Z" fill="#44A1A0"/>
<path d="M155.371 175.95C157.378 175.95 159.004 174.299 159.004 172.262C159.004 170.226 157.378 168.575 155.371 168.575C153.365 168.575 151.738 170.226 151.738 172.262C151.738 174.299 153.365 175.95 155.371 175.95Z" fill="#44A1A0"/>
<path d="M252.493 171.254V169.307H254.006V168.053H252.493V167.115H254.006V165.86H250.974V171.254C250.053 171.445 249.234 171.976 248.677 172.745C248.12 173.514 247.863 174.465 247.958 175.415C248.053 176.365 248.491 177.245 249.189 177.885C249.886 178.525 250.793 178.879 251.733 178.879C252.674 178.879 253.581 178.525 254.278 177.885C254.976 177.245 255.414 176.365 255.509 175.415C255.604 174.465 255.347 173.514 254.79 172.745C254.233 171.976 253.414 171.445 252.493 171.254ZM251.736 177.703C251.214 177.704 250.703 177.548 250.268 177.254C249.833 176.96 249.494 176.542 249.294 176.053C249.093 175.563 249.04 175.024 249.141 174.504C249.242 173.984 249.493 173.506 249.862 173.131C250.231 172.756 250.701 172.5 251.214 172.396C251.726 172.292 252.257 172.345 252.739 172.548C253.222 172.75 253.635 173.094 253.925 173.534C254.215 173.975 254.37 174.493 254.37 175.023C254.37 175.734 254.093 176.415 253.599 176.918C253.106 177.421 252.436 177.705 251.736 177.709V177.703Z" fill="#44A1A0"/>
<path d="M199.638 73.7697H161.737C157.985 73.7697 154.944 76.8564 154.944 80.6641V119.135C154.944 122.943 157.985 126.029 161.737 126.029H199.638C203.389 126.029 206.43 122.943 206.43 119.135V80.6641C206.43 76.8564 203.389 73.7697 199.638 73.7697Z" fill="url(#paint3_linear_241_691)"/>
<path d="M199.846 73.7697H164.676C161.043 73.7697 158.098 76.7593 158.098 80.4472V119.352C158.098 123.04 161.043 126.029 164.676 126.029H199.846C203.479 126.029 206.425 123.04 206.425 119.352V80.4472C206.425 76.7593 203.479 73.7697 199.846 73.7697Z" fill="#44A1A0"/>
<path d="M208.417 100.07L205.76 102.631L204.605 103.734C203.695 102.631 202.539 101.763 201.234 101.201C199.929 100.639 198.511 100.4 197.096 100.503C196.478 100.579 195.851 100.476 195.289 100.204C193.377 99.1022 196.374 95.3442 196.374 95.3442C197.034 95.3296 197.694 95.359 198.35 95.4322C198.407 95.4264 198.465 95.4264 198.523 95.4322L199.049 95.4967C201.555 95.8601 205.639 97.0737 208.417 100.07Z" fill="white"/>
<path opacity="0.39" d="M205.656 102.391L205.76 102.632L204.605 103.734C203.695 102.631 202.539 101.763 201.234 101.201C199.929 100.639 198.511 100.4 197.096 100.503C196.478 100.579 195.851 100.476 195.289 100.204L196.374 95.3442C196.374 95.3442 197.443 95.3442 198.35 95.4322C198.407 95.4264 198.465 95.4264 198.523 95.4322C198.699 95.4429 198.875 95.4644 199.049 95.4967C199.049 95.4967 199.678 98.2287 199.21 99.3777C199.21 99.3953 203.641 100.146 205.656 102.391Z" fill="url(#paint4_linear_241_691)"/>
<path d="M181.582 84.7856H179.792C178.353 84.7856 177.187 85.9694 177.187 87.4296V112.369C177.187 113.83 178.353 115.013 179.792 115.013H181.582C183.021 115.013 184.187 113.83 184.187 112.369V87.4296C184.187 85.9694 183.021 84.7856 181.582 84.7856Z" fill="url(#paint5_linear_241_691)"/>
<path d="M197.085 99.4891C197.056 102.654 195.798 105.679 193.584 107.907C191.37 110.136 188.38 111.387 185.262 111.39H182.715C182.33 111.39 181.953 111.28 181.628 111.072C181.302 110.865 181.04 110.569 180.872 110.218C180.716 109.9 180.643 109.547 180.66 109.193C180.677 108.838 180.782 108.494 180.967 108.192C181.152 107.891 181.409 107.643 181.715 107.471C182.021 107.299 182.365 107.209 182.715 107.21H183.662C184.689 107.21 185.705 107.003 186.652 106.599C187.598 106.195 188.456 105.603 189.174 104.858C189.892 104.113 190.457 103.23 190.834 102.261C191.212 101.292 191.395 100.256 191.373 99.2136C191.303 97.1478 190.442 95.191 188.973 93.7598C187.504 92.3286 185.542 91.5361 183.506 91.5511H182.351C181.903 91.5511 181.474 91.3707 181.158 91.0497C180.842 90.7286 180.664 90.2932 180.664 89.8392V89.1122C180.664 88.6582 180.842 88.2228 181.158 87.9017C181.474 87.5807 181.903 87.4003 182.351 87.4003H185.06C191.604 87.3945 197.131 92.835 197.085 99.4891Z" fill="white"/>
<path opacity="0.39" d="M193.931 99.9699C193.909 102.722 192.816 105.353 190.892 107.292C188.968 109.231 186.367 110.32 183.656 110.323H181.438C181.242 110.323 181.047 110.292 180.861 110.23C180.705 109.912 180.632 109.559 180.649 109.204C180.665 108.85 180.771 108.506 180.955 108.204C181.14 107.903 181.398 107.654 181.703 107.482C182.009 107.311 182.353 107.221 182.703 107.222H183.65C184.677 107.222 185.694 107.014 186.64 106.61C187.587 106.206 188.444 105.615 189.163 104.87C189.881 104.125 190.445 103.242 190.823 102.273C191.2 101.303 191.383 100.267 191.361 99.2253C191.292 97.1595 190.431 95.2027 188.962 93.7716C187.492 92.3404 185.531 91.5479 183.494 91.5628H182.339C181.892 91.5628 181.463 91.3825 181.147 91.0614C180.83 90.7404 180.653 90.305 180.653 89.851V89.5285C180.802 89.479 180.958 89.4533 181.115 89.4523H183.465C186.225 89.446 188.875 90.5488 190.836 92.5195C192.797 94.4903 193.91 97.1689 193.931 99.9699Z" fill="url(#paint6_linear_241_691)"/>
<path d="M191.003 97.0092C191.003 97.0092 191.777 99.1139 190.812 102.327C190.812 102.327 187.156 106.143 190.275 112.211L192.851 115.008L189.854 118.003C187.99 116.539 186.544 114.597 185.664 112.378C184.784 110.159 184.502 107.742 184.846 105.375C185.51 100.204 191.003 97.0092 191.003 97.0092Z" fill="white"/>
<path d="M187.295 120.419L211.034 97.5544L230.949 115.008L206.424 138.886L187.295 120.419Z" fill="#E08E41"/>
<path d="M187.295 120.419L188.872 129.482L206.424 146.578V138.886L187.295 120.419Z" fill="#E08E41"/>
<path d="M230.949 115.008V123.327L206.425 146.578V138.886L230.949 115.008Z" fill="#E08E41"/>
<path d="M187.295 120.419L188.872 129.482L206.424 146.578V138.886L187.295 120.419Z" fill="url(#paint7_linear_241_691)"/>
<path d="M230.949 115.008V123.327L206.425 146.578V138.886L230.949 115.008Z" fill="url(#paint8_linear_241_691)"/>
<path d="M191.673 124.646L215.637 101.588L217.849 103.528L193.931 126.827L191.673 124.646Z" fill="url(#paint9_linear_241_691)"/>
<path d="M198.748 131.323L223.284 108.266L225.496 110.2L201.007 133.498L198.748 131.323Z" fill="url(#paint10_linear_241_691)"/>
<path opacity="0.21" d="M267.193 154.023C266.951 157.645 267.145 161.283 267.77 164.858C268.163 167.068 268.689 169.501 267.568 171.447C266.991 172.503 265.951 173.241 265.021 174.021C259.118 178.946 255.704 186.256 250.662 192.084C250.328 192.563 249.843 192.913 249.287 193.075C248.716 193.112 248.149 192.949 247.682 192.611C244.611 190.813 242.031 188.266 240.173 185.201C239.266 183.7 238.44 181.988 236.881 181.22C233.993 179.778 230.493 182.844 230.175 186.11C229.857 189.375 231.584 192.447 233.254 195.255L240.976 208.259C243.327 212.222 245.805 216.32 249.64 218.812C252.294 220.454 255.275 221.475 258.367 221.801C262.745 222.388 267.187 222.095 271.594 221.749C279.653 221.116 287.691 220.303 295.708 219.31C298.458 218.97 301.582 218.36 302.974 215.939C303.91 214.309 303.783 212.298 303.621 210.422C303.055 203.625 302.478 196.831 301.888 190.038C301.571 186.186 301.097 182 298.423 179.256C296.823 177.626 294.582 176.7 293.161 174.9C292.146 173.457 291.491 171.785 291.255 170.028C289.886 162.7 291.197 154.827 288.367 147.926C287.79 146.531 287.016 145.147 285.739 144.368C284.567 143.751 283.248 143.481 281.933 143.588C275.608 143.77 267.655 146.83 267.193 154.023Z" fill="url(#paint11_linear_241_691)"/>
<path opacity="0.18" d="M353.12 257.499C349.695 297.559 241.114 284.725 163.03 268.486C84.946 252.246 20.5217 284.725 5.66613 257.499C-0.912607 245.446 3.48284 230.39 10.4312 217.352C13.0796 218.85 16.0632 219.631 19.0951 219.621H346.727C351.238 230.402 354.339 243.3 353.12 257.499Z" fill="#44A1A0"/>
<path d="M267.822 240.855L260.712 293.42C260.414 295.633 260.641 297.886 261.376 299.992L274.083 337.97L281.511 335.625L275.908 297.84C275.789 297.057 275.84 296.256 276.059 295.495L285.699 261.703L289.892 337.917H296.748L302.645 262.705C304.643 250.136 300.982 240.855 300.982 240.855H267.822Z" fill="#3F3D56"/>
<path d="M304.262 226.937L297.227 180.939L296.245 175.334C296.245 175.334 309.38 182.956 313.146 196.287C318.072 213.787 304.262 226.937 304.262 226.937Z" fill="#44A1A0"/>
<path d="M304.262 226.937L297.227 180.939L296.245 175.334C296.245 175.334 309.38 182.956 313.146 196.287C318.072 213.787 304.262 226.937 304.262 226.937Z" fill="url(#paint12_linear_241_691)"/>
<path d="M311.482 216.232C316.813 205.533 306.284 186.919 306.284 186.919L297.216 180.945L298.238 174.302C298.238 174.302 312.863 175.821 314.289 196.78C314.763 203.528 314.266 211.864 311.482 216.232Z" fill="#44A1A0"/>
<path d="M236.136 180.317C235.645 178.629 234.79 176.618 233.057 176.466C233.527 178.005 233.457 179.662 232.861 181.156C229.083 179.737 228.205 174.121 224.434 172.667C223.856 173.288 224.179 174.302 224.538 175.076C225.196 176.518 225.858 177.961 226.524 179.403C225.639 177.988 224.697 176.62 223.7 175.299C223.405 174.894 222.897 174.455 222.481 174.713C222.065 174.971 222.216 175.516 222.366 175.938C223.024 177.814 223.775 179.661 224.601 181.466C223.674 179.887 222.613 178.392 221.43 176.999C220.656 177.193 220.818 178.353 221.153 179.086L223.631 184.445L221.644 181.513C221.003 181.578 221.101 182.575 221.413 183.149C224.077 187.978 228.24 191.777 233.253 193.954C234.27 194.394 235.448 194.757 236.447 194.282C240.745 192.295 236.967 183.214 236.136 180.317Z" fill="url(#paint13_linear_241_691)"/>
<path d="M304.262 194.546V230.613C304.262 235.033 303.552 238.627 299.191 238.627H268.741C264.397 238.627 264.23 235.069 264.201 230.666L263.975 206.154C263.975 206.154 257.402 218.038 252.158 216.883C246.913 215.728 231.365 193.972 231.365 193.972L239.104 187.37L252.146 200.643C252.146 200.643 254.243 195.807 257.293 184.978C260.342 174.15 270.254 174.121 270.254 174.121H296.73C306.29 174.121 304.262 194.546 304.262 194.546Z" fill="#44A1A0"/>
<path d="M304.262 198.609C304.262 198.609 308.837 205.134 304.262 211.659V198.609Z" fill="#3F3D56"/>
<path d="M300.982 238.399H267.822V240.855H300.982V238.399Z" fill="url(#paint14_linear_241_691)"/>
<path d="M288.685 149.591H279.114V174.291H288.685V149.591Z" fill="url(#paint15_linear_241_691)"/>
<path d="M288.69 146.883V174.296H283.642V172.626C283.642 172.139 283.548 171.658 283.364 171.209C283.181 170.759 282.912 170.351 282.573 170.008C282.234 169.664 281.831 169.392 281.388 169.206C280.946 169.021 280.471 168.926 279.992 168.926H279.703C277.298 168.926 274.992 167.957 273.291 166.23C271.59 164.504 270.635 162.163 270.635 159.722V146.883H288.69Z" fill="url(#paint16_linear_241_691)"/>
<path d="M270.635 149.591C270.635 149.591 262.26 144.954 265.258 139.877C268.255 134.8 273.142 137.995 273.142 137.995H289.285C289.285 137.995 291.139 137.702 291.856 140.891C292.572 144.08 288.714 163.879 288.714 163.879H280.691L279.663 158.731C279.663 158.731 281.263 156.972 281.118 155.102C281.132 154.752 281.026 154.408 280.819 154.128C280.611 153.848 280.315 153.649 279.98 153.564C279.646 153.479 279.292 153.514 278.98 153.663C278.667 153.812 278.415 154.066 278.265 154.381C277.543 155.683 277.832 150.172 275.261 149.591C273.739 149.241 272.158 149.241 270.635 149.591Z" fill="#3F3D56"/>
<path d="M286.548 174.244C286.548 174.244 282.834 179.18 277.687 179.18C272.541 179.18 257.547 194.112 256.542 198.609C255.537 203.106 252.158 200.643 252.158 200.643C252.158 200.643 254.255 195.807 257.304 184.978C260.354 174.15 270.254 174.121 270.254 174.121H283.712L286.548 174.244Z" fill="url(#paint17_linear_241_691)"/>
<path d="M281.499 335.021L284.116 341.546L273.546 346.623L263.785 347.344C263.785 347.344 262.116 340.819 266.673 340.239C269.337 339.93 271.878 338.933 274.054 337.343L281.499 335.021Z" fill="url(#paint18_linear_241_691)"/>
<path d="M289.892 337.97C288.567 338.525 287.415 339.434 286.559 340.601C285.703 341.767 285.174 343.147 285.029 344.595L284.746 347.344H296.748V337.964L289.892 337.97Z" fill="url(#paint19_linear_241_691)"/>
<path opacity="0.18" d="M69.3857 21.2169C69.3857 21.2169 143.525 -26.5226 238.469 21.2169H69.3857Z" fill="#44A1A0"/>
</g>
<defs>
<linearGradient id="paint0_linear_241_691" x1="0" y1="120.419" x2="366.145" y2="120.419" gradientUnits="userSpaceOnUse">
<stop stop-color="#44A1A0"/>
<stop offset="1" stop-color="#28938C"/>
</linearGradient>
<linearGradient id="paint1_linear_241_691" x1="-52.2082" y1="70.8911" x2="505.589" y2="183.056" gradientUnits="userSpaceOnUse">
<stop stop-color="white" stop-opacity="0"/>
<stop offset="1" stop-color="white"/>
</linearGradient>
<linearGradient id="paint2_linear_241_691" x1="-31.2707" y1="33.3584" x2="623.053" y2="20.3215" gradientUnits="userSpaceOnUse">
<stop offset="0.02" stop-opacity="0"/>
<stop offset="0.99" stop-color="#3F3D56"/>
</linearGradient>
<linearGradient id="paint3_linear_241_691" x1="181.305" y1="99.6591" x2="67.3108" y2="142.037" gradientUnits="userSpaceOnUse">
<stop stop-color="#44A1A0"/>
<stop offset="0.01" stop-color="#67F9F0"/>
<stop offset="0.12" stop-color="#5CCEB3"/>
<stop offset="0.24" stop-color="#53A4A9"/>
<stop offset="0.37" stop-color="#4C838B"/>
<stop offset="0.5" stop-color="#465A73"/>
<stop offset="0.63" stop-color="#424A63"/>
<stop offset="0.79" stop-color="#404059"/>
<stop offset="0.99" stop-color="#3F3D56"/>
</linearGradient>
<linearGradient id="paint4_linear_241_691" x1="195.277" y1="99.5419" x2="205.76" y2="99.5419" gradientUnits="userSpaceOnUse">
<stop stop-color="#44A1A0"/>
<stop offset="1" stop-color="#28938C"/>
</linearGradient>
<linearGradient id="paint5_linear_241_691" x1="173.242" y1="99.8702" x2="232.486" y2="100.058" gradientUnits="userSpaceOnUse">
<stop stop-opacity="0"/>
<stop offset="0.02" stop-color="#030304" stop-opacity="0.04"/>
<stop offset="0.18" stop-color="#181821" stop-opacity="0.39"/>
<stop offset="0.35" stop-color="#292839" stop-opacity="0.66"/>
<stop offset="0.53" stop-color="#363449" stop-opacity="0.85"/>
<stop offset="0.73" stop-color="#3D3B53" stop-opacity="0.96"/>
<stop offset="0.99" stop-color="#3F3D56"/>
</linearGradient>
<linearGradient id="paint6_linear_241_691" x1="203.334" y1="99.1902" x2="185.302" y2="99.7763" gradientUnits="userSpaceOnUse">
<stop stop-color="#44A1A0"/>
<stop offset="1" stop-color="#28938C"/>
</linearGradient>
<linearGradient id="paint7_linear_241_691" x1="192.325" y1="145.81" x2="212.204" y2="93.4163" gradientUnits="userSpaceOnUse">
<stop stop-opacity="0"/>
<stop offset="0.02" stop-color="#030304" stop-opacity="0.04"/>
<stop offset="0.18" stop-color="#181821" stop-opacity="0.39"/>
<stop offset="0.35" stop-color="#292839" stop-opacity="0.66"/>
<stop offset="0.53" stop-color="#363449" stop-opacity="0.85"/>
<stop offset="0.73" stop-color="#3D3B53" stop-opacity="0.96"/>
<stop offset="0.99" stop-color="#3F3D56"/>
</linearGradient>
<linearGradient id="paint8_linear_241_691" x1="221.575" y1="141.003" x2="206.459" y2="89.0793" gradientUnits="userSpaceOnUse">
<stop stop-opacity="0"/>
<stop offset="0.02" stop-color="#030304" stop-opacity="0.04"/>
<stop offset="0.18" stop-color="#181821" stop-opacity="0.39"/>
<stop offset="0.35" stop-color="#292839" stop-opacity="0.66"/>
<stop offset="0.53" stop-color="#363449" stop-opacity="0.85"/>
<stop offset="0.73" stop-color="#3D3B53" stop-opacity="0.96"/>
<stop offset="0.99" stop-color="#3F3D56"/>
</linearGradient>
<linearGradient id="paint9_linear_241_691" x1="214.649" y1="99.7998" x2="139.741" y2="204.898" gradientUnits="userSpaceOnUse">
<stop stop-opacity="0"/>
<stop offset="0.02" stop-color="#030304" stop-opacity="0.04"/>
<stop offset="0.18" stop-color="#181821" stop-opacity="0.39"/>
<stop offset="0.35" stop-color="#292839" stop-opacity="0.66"/>
<stop offset="0.53" stop-color="#363449" stop-opacity="0.85"/>
<stop offset="0.73" stop-color="#3D3B53" stop-opacity="0.96"/>
<stop offset="0.99" stop-color="#3F3D56"/>
</linearGradient>
<linearGradient id="paint10_linear_241_691" x1="222.672" y1="105.516" x2="147.763" y2="210.62" gradientUnits="userSpaceOnUse">
<stop stop-opacity="0"/>
<stop offset="0.02" stop-color="#030304" stop-opacity="0.04"/>
<stop offset="0.18" stop-color="#181821" stop-opacity="0.39"/>
<stop offset="0.35" stop-color="#292839" stop-opacity="0.66"/>
<stop offset="0.53" stop-color="#363449" stop-opacity="0.85"/>
<stop offset="0.73" stop-color="#3D3B53" stop-opacity="0.96"/>
<stop offset="0.99" stop-color="#3F3D56"/>
</linearGradient>
<linearGradient id="paint11_linear_241_691" x1="245.568" y1="160.578" x2="392.367" y2="296.746" gradientUnits="userSpaceOnUse">
<stop stop-opacity="0"/>
<stop offset="0.02" stop-color="#030304" stop-opacity="0.04"/>
<stop offset="0.18" stop-color="#181821" stop-opacity="0.39"/>
<stop offset="0.35" stop-color="#292839" stop-opacity="0.66"/>
<stop offset="0.53" stop-color="#363449" stop-opacity="0.85"/>
<stop offset="0.73" stop-color="#3D3B53" stop-opacity="0.96"/>
<stop offset="0.99" stop-color="#3F3D56"/>
</linearGradient>
<linearGradient id="paint12_linear_241_691" x1="316.669" y1="196.211" x2="192.929" y2="232.208" gradientUnits="userSpaceOnUse">
<stop stop-opacity="0"/>
<stop offset="0.02" stop-color="#030304" stop-opacity="0.04"/>
<stop offset="0.18" stop-color="#181821" stop-opacity="0.39"/>
<stop offset="0.35" stop-color="#292839" stop-opacity="0.66"/>
<stop offset="0.53" stop-color="#363449" stop-opacity="0.85"/>
<stop offset="0.73" stop-color="#3D3B53" stop-opacity="0.96"/>
<stop offset="0.99" stop-color="#3F3D56"/>
</linearGradient>
<linearGradient id="paint13_linear_241_691" x1="220.876" y1="183.6" x2="238.469" y2="183.6" gradientUnits="userSpaceOnUse">
<stop stop-color="#ECC4D7"/>
<stop offset="0.42" stop-color="#EFD4D1"/>
<stop offset="1" stop-color="#F2EAC9"/>
</linearGradient>
<linearGradient id="paint14_linear_241_691" x1="267.822" y1="239.63" x2="300.982" y2="239.63" gradientUnits="userSpaceOnUse">
<stop stop-color="#44A1A0"/>
<stop offset="1" stop-color="#28938C"/>
</linearGradient>
<linearGradient id="paint15_linear_241_691" x1="280.945" y1="161.997" x2="296.661" y2="161.718" gradientUnits="userSpaceOnUse">
<stop stop-color="#ECC4D7"/>
<stop offset="0.42" stop-color="#EFD4D1"/>
<stop offset="1" stop-color="#F2EAC9"/>
</linearGradient>
<linearGradient id="paint16_linear_241_691" x1="281.863" y1="159.411" x2="278.602" y2="161.106" gradientUnits="userSpaceOnUse">
<stop stop-color="#ECC4D7"/>
<stop offset="0.42" stop-color="#EFD4D1"/>
<stop offset="1" stop-color="#F2EAC9"/>
</linearGradient>
<linearGradient id="paint17_linear_241_691" x1="289.17" y1="195.373" x2="248.145" y2="179.548" gradientUnits="userSpaceOnUse">
<stop stop-color="white" stop-opacity="0"/>
<stop offset="1" stop-color="white"/>
</linearGradient>
<linearGradient id="paint18_linear_241_691" x1="263.484" y1="341.183" x2="284.116" y2="341.183" gradientUnits="userSpaceOnUse">
<stop stop-opacity="0"/>
<stop offset="0.02" stop-color="#030304" stop-opacity="0.04"/>
<stop offset="0.18" stop-color="#181821" stop-opacity="0.39"/>
<stop offset="0.35" stop-color="#292839" stop-opacity="0.66"/>
<stop offset="0.53" stop-color="#363449" stop-opacity="0.85"/>
<stop offset="0.73" stop-color="#3D3B53" stop-opacity="0.96"/>
<stop offset="0.99" stop-color="#3F3D56"/>
</linearGradient>
<linearGradient id="paint19_linear_241_691" x1="284.734" y1="342.66" x2="296.736" y2="342.66" gradientUnits="userSpaceOnUse">
<stop stop-opacity="0"/>
<stop offset="0.02" stop-color="#030304" stop-opacity="0.04"/>
<stop offset="0.18" stop-color="#181821" stop-opacity="0.39"/>
<stop offset="0.35" stop-color="#292839" stop-opacity="0.66"/>
<stop offset="0.53" stop-color="#363449" stop-opacity="0.85"/>
<stop offset="0.73" stop-color="#3D3B53" stop-opacity="0.96"/>
<stop offset="0.99" stop-color="#3F3D56"/>
</linearGradient>
<clipPath id="clip0_241_691">
<rect width="367" height="350" fill="white"/>
</clipPath>
</defs>
</svg>
