<svg width="392" height="426" viewBox="0 0 392 426" fill="none" xmlns="http://www.w3.org/2000/svg">
<g clip-path="url(#clip0_232_230)">
<path opacity="0.18" d="M37.942 143.644C8.29811 176.303 -10.1851 224.431 6.02924 265.668C17.1757 294.028 42.296 314.004 58.7648 339.557C71.855 359.87 80.252 384.648 99.958 398.415C109.684 405.177 121.297 408.551 132.853 410.919C152.467 414.989 173.594 416.389 191.844 408.048C210.299 399.636 223.304 382.466 239.985 370.845C261.388 355.951 287.709 350.855 312.151 341.99C336.593 333.125 361.529 318.002 369.806 293.03C374.535 278.76 373.128 263.234 375.079 248.312C379.32 215.803 399.492 183.438 389.01 152.422C377.744 119.074 337.413 107.037 302.708 105.766C268.003 104.496 230.507 108.522 201.28 89.501C191.978 83.45 184.041 75.3103 174.308 69.9915C148.036 55.6357 127.658 74.3844 106.546 88.532C82.1957 104.905 57.8459 121.715 37.942 143.644Z" fill="#44A1A0"/>
<path d="M323.664 65.7753C330.645 46.2456 324.221 25.9596 309.316 20.4653C294.411 14.9711 276.669 26.3491 269.688 45.8789C262.708 65.4087 269.132 85.6946 284.037 91.1889C298.942 96.6831 316.684 85.3051 323.664 65.7753Z" fill="#4389C9"/>
<path d="M323.664 65.7753C330.645 46.2456 324.221 25.9596 309.316 20.4653C294.411 14.9711 276.669 26.3491 269.688 45.8789C262.708 65.4087 269.132 85.6946 284.037 91.1889C298.942 96.6831 316.684 85.3051 323.664 65.7753Z" fill="url(#paint0_linear_232_230)"/>
<path d="M119.203 71.3921C134.086 69.6728 144.379 52.4703 142.195 32.9691C140.01 13.468 126.175 -0.947089 111.292 0.77218C96.4102 2.49145 86.1166 19.694 88.3011 39.1951C90.4856 58.6963 104.321 73.1113 119.203 71.3921Z" fill="#B83BCC"/>
<path d="M119.203 71.3921C134.086 69.6728 144.379 52.4703 142.195 32.9691C140.01 13.468 126.175 -0.947089 111.292 0.77218C96.4102 2.49145 86.1166 19.694 88.3011 39.1951C90.4856 58.6963 104.321 73.1113 119.203 71.3921Z" fill="url(#paint1_linear_232_230)"/>
<path opacity="0.06" d="M107.485 46.0389C107.485 47.9339 107.485 50.2164 109.125 51.1711C109.89 51.5404 110.732 51.713 111.578 51.6736C116.109 51.8817 120.816 52.901 124.301 55.8583C127.785 58.8155 129.609 64.12 127.552 68.2257C125.495 72.3315 120.307 73.968 115.776 73.4225C109.931 72.7478 104.778 69.367 99.866 66.0796C96.9751 64.1415 94.0348 62.1604 91.8861 59.4041C85.1289 50.7261 84.1111 33.0039 90.946 24.0028C101.329 10.3433 107.436 38.9256 107.485 46.0389Z" fill="url(#paint2_linear_232_230)"/>
<path d="M79.2305 85.798C93.8777 82.6173 102.475 64.4798 98.4339 45.2868C94.3925 26.0938 79.2425 13.1132 64.5954 16.2939C49.9483 19.4745 41.3506 37.612 45.392 56.805C49.4334 75.9981 64.5834 88.9786 79.2305 85.798Z" fill="#E08E41"/>
<path d="M79.2305 85.798C93.8777 82.6173 102.475 64.4798 98.4339 45.2868C94.3925 26.0938 79.2425 13.1132 64.5954 16.2939C49.9483 19.4745 41.3506 37.612 45.392 56.805C49.4334 75.9981 64.5834 88.9786 79.2305 85.798Z" fill="url(#paint3_linear_232_230)"/>
<path d="M263.345 321.914V405.464C263.345 405.464 261.755 419.762 245.816 420.868C236.543 421.499 201.859 423.136 174.506 424.385C154.877 425.275 139.017 425.993 139.017 425.993C139.017 425.993 122.76 423.064 122.76 409.132V328.266H122.823L124.576 328.18L263.345 321.914Z" fill="#44A1A0"/>
<path d="M259.988 336.485C259.988 336.485 169.021 352.319 141.575 345.392C127.891 341.947 122.307 334.554 123.198 327.548C124.089 320.543 131.567 313.831 143.95 311.936C143.95 311.936 225.128 297.193 249.718 308.347C260.08 313.042 263.529 318.784 264.059 323.844C264.78 330.8 259.988 336.485 259.988 336.485Z" fill="url(#paint4_linear_232_230)"/>
<path d="M264.073 323.844C263.543 318.784 260.094 313.042 249.732 308.347C225.142 297.193 143.964 311.936 143.964 311.936C131.581 313.831 124.117 320.492 123.212 327.548C122.187 319.516 129.906 311.211 143.964 309.065C143.964 309.065 225.142 294.322 249.732 305.476C262.116 311.089 264.632 318.181 264.073 323.844Z" fill="url(#paint5_linear_232_230)"/>
<path d="M226.167 279.004C225.979 279.739 225.709 280.45 225.361 281.122C221.304 289.103 205.91 299.504 205.91 299.504C205.91 299.504 191.724 302.706 180.379 304.177C169.035 305.649 164.052 301.586 164.052 301.586C161.886 299.907 159.553 298.463 157.09 297.279H157.054C153.394 295.461 149.517 294.134 145.519 293.331C134.21 291.077 137.575 282.629 141.427 283.06C145.279 283.49 157.125 272.35 162.377 277.009C167.628 281.667 176.336 271.137 188.72 259.114C201.103 247.091 217.438 258.203 217.438 258.203L221.679 257.865C222.813 257.769 223.955 257.913 225.033 258.286C226.111 258.66 227.101 259.255 227.941 260.036C228.781 260.816 229.454 261.765 229.916 262.822C230.378 263.878 230.62 265.021 230.627 266.177C230.627 268.28 230.231 270.247 229.454 271.432C227.93 273.741 226.818 276.304 226.167 279.004Z" fill="#3F3D56"/>
<path d="M216.54 266.149C216.54 266.149 218.873 261.655 222.195 263.055C225.517 264.455 226.789 272.235 226.789 272.235L216.54 266.149Z" fill="#091240"/>
<path d="M226.167 279.004L225.361 281.122C221.304 289.104 205.91 299.504 205.91 299.504C205.91 299.504 191.724 302.706 180.379 304.177C169.035 305.649 164.052 301.586 164.052 301.586C161.886 299.907 159.553 298.463 157.09 297.279C158.171 297.53 174.386 294.128 182.401 291.049C190.416 287.969 192.706 267.211 201.025 261.074C209.345 254.937 214.971 265.452 214.971 265.452L226.167 279.004Z" fill="#25233A"/>
<path d="M264.073 323.844C263.959 324.943 263.736 326.028 263.409 327.082C262.671 329.453 261.512 331.667 259.988 333.614C259.988 333.614 169.021 349.448 141.575 342.521C135.921 341.086 131.68 339.004 128.669 336.549C125.382 333.858 123.608 330.721 123.212 327.548C124.117 320.492 131.581 313.831 143.964 311.936C143.964 311.936 225.142 297.193 249.732 308.347C260.094 313.042 263.543 318.784 264.073 323.844Z" fill="#78CDD7"/>
<path d="M264.073 323.844C263.959 324.943 263.736 326.028 263.409 327.082C262.671 329.453 261.512 331.667 259.988 333.614C259.988 333.614 169.021 349.448 141.575 342.521C135.921 341.086 131.68 339.004 128.669 336.549C125.382 333.858 123.608 330.721 123.212 327.548C124.117 320.492 131.581 313.831 143.964 311.936C143.964 311.936 225.142 297.193 249.732 308.347C260.094 313.042 263.543 318.784 264.073 323.844Z" fill="url(#paint6_linear_232_230)"/>
<path d="M263.727 321.914L263.409 327.074C262.671 329.446 261.512 331.66 259.988 333.606C259.988 333.606 169.021 349.441 141.575 342.514C135.921 341.078 131.68 338.997 128.669 336.542C129.199 336.434 153.075 331.898 161.112 331.195C169.148 330.491 158.093 317.937 174.916 311.269C191.738 304.601 236.281 308.276 236.281 308.276L263.727 321.914Z" fill="url(#paint7_linear_232_230)"/>
<path d="M183.553 309.941C183.553 309.941 167.049 322.423 169.162 337.841C171.276 353.259 201.994 351.479 218.173 344.301C218.173 344.301 240.176 350.496 247.619 344.301C255.062 338.107 251.683 313.437 236.274 308.276C220.866 303.115 202.99 299.662 183.553 309.941Z" fill="#78CDD7"/>
<path d="M183.553 309.941C183.553 309.941 167.049 322.423 169.162 337.841C171.276 353.259 201.994 351.479 218.173 344.301C218.173 344.301 240.176 350.496 247.619 344.301C255.062 338.107 251.683 313.437 236.274 308.276C220.866 303.115 202.99 299.662 183.553 309.941Z" fill="url(#paint8_linear_232_230)"/>
<path opacity="0.19" d="M242.812 323.428C242.812 323.428 230.146 328.675 227.856 329.357C225.566 330.039 212.928 332.867 210.702 331.826C208.475 330.785 196.876 327.563 193.031 330.391C189.186 333.219 196.191 344.244 196.191 344.244L226.16 344.309L244.339 342.012L242.812 323.428Z" fill="url(#paint9_linear_232_230)"/>
<path d="M219.678 314.929C219.487 318.339 218.159 322.143 214.13 322.71C208.108 323.564 205.104 317.334 205.104 317.334C205.104 317.334 199.923 308.405 202.34 303.804C202.842 302.835 201.563 294.142 202.694 293.618C206.934 291.623 216.554 300.265 217.961 300.459C218.314 300.509 218.554 300.811 218.71 301.292C219.332 303.222 218.632 308.053 219.304 310.623C219.635 312.032 219.761 313.483 219.678 314.929Z" fill="url(#paint10_linear_232_230)"/>
<path opacity="0.19" d="M210.193 309.388C207.019 307.113 204.15 299.504 204.15 299.504L218.71 301.292C219.332 303.222 218.632 308.053 219.304 310.623C219.579 311.656 215.996 313.551 210.193 309.388Z" fill="url(#paint11_linear_232_230)"/>
<path d="M228.089 276.14C228.089 276.14 229.538 293.984 227.969 297.408C226.096 301.507 224.541 304.766 214.964 303.868C202.785 302.734 196.021 290.467 195.781 289.513C195.541 288.558 197.124 264.297 211.281 265.517C225.439 266.737 226.407 270.025 228.089 276.14Z" fill="url(#paint12_linear_232_230)"/>
<path d="M241.773 311.283C241.773 311.283 257.882 324.404 252.644 344.301C247.407 364.198 215.996 347.517 215.996 347.517L228.994 337.927C228.994 337.927 241.632 336.399 242.713 333.247C243.795 330.096 241.773 311.283 241.773 311.283Z" fill="#78CDD7"/>
<path d="M241.773 311.283C241.773 311.283 257.882 324.404 252.644 344.301C247.407 364.198 215.996 347.517 215.996 347.517L228.994 337.927C228.994 337.927 241.632 336.399 242.713 333.247C243.795 330.096 241.773 311.283 241.773 311.283Z" fill="url(#paint13_linear_232_230)"/>
<path d="M169.162 337.841C169.162 337.841 178.676 366.718 196.523 360.358C214.37 353.999 233.087 337.935 233.087 337.935L230.38 331.202C230.38 331.202 204.093 340.842 197.915 336.542C191.738 332.243 186.218 311.865 178.259 314.908C170.3 317.951 168.25 331.245 169.162 337.841Z" fill="#78CDD7"/>
<path d="M169.162 337.841C169.162 337.841 178.676 366.718 196.523 360.358C214.37 353.999 233.087 337.935 233.087 337.935L230.38 331.202C230.38 331.202 204.093 340.842 197.915 336.542C191.738 332.243 186.218 311.865 178.259 314.908C170.3 317.951 168.25 331.245 169.162 337.841Z" fill="url(#paint14_linear_232_230)"/>
<path d="M198.601 332.68C198.601 332.68 200.722 330.175 205.881 331.704C209.081 332.663 212.137 334.061 214.964 335.86C214.964 335.86 207.048 337.368 206.722 337.411C206.397 337.454 204.079 339.93 202.694 339.514C201.308 339.097 197.336 339.033 197.216 338.796C197.096 338.559 195.894 335.674 198.601 332.68Z" fill="url(#paint15_linear_232_230)"/>
<path d="M231.023 332.68C231.023 332.68 238.84 325.625 243.039 329.364L242.721 333.262C242.721 333.262 241.533 336.133 232.733 337.353L231.023 332.68Z" fill="url(#paint16_linear_232_230)"/>
<path d="M168.971 240.445L143.773 198.296" stroke="white" stroke-width="3.63" stroke-miterlimit="10" stroke-linecap="round"/>
<path d="M208.193 235.499L214.964 196.444" stroke="white" stroke-width="3.63" stroke-miterlimit="10" stroke-linecap="round"/>
<path d="M185.334 235.499L164.893 169.305" stroke="white" stroke-width="3.63" stroke-miterlimit="10" stroke-linecap="round"/>
<path d="M138.451 202.63C155.22 195.987 161.972 172.791 153.533 150.821C145.093 128.85 124.658 116.424 107.889 123.067C91.1198 129.71 84.3673 152.906 92.8068 174.877C101.246 196.847 121.682 209.273 138.451 202.63Z" fill="#E08E41"/>
<path d="M138.451 202.63C155.22 195.987 161.972 172.791 153.533 150.821C145.093 128.85 124.658 116.424 107.889 123.067C91.1198 129.71 84.3673 152.906 92.8068 174.877C101.246 196.847 121.682 209.273 138.451 202.63Z" fill="url(#paint17_linear_232_230)"/>
<path opacity="0.06" d="M95.5756 133.889C95.5756 133.889 92.1122 141.72 91.6457 143.938C91.1792 146.156 113.557 151.984 113.557 151.984C113.557 151.984 131.058 193.056 154.263 185.354C154.263 185.354 156.956 181.88 158.009 174.997C159.062 168.113 118.745 126.137 118.745 126.137L95.5756 133.889Z" fill="url(#paint18_linear_232_230)"/>
<path d="M162.813 103.397C180.697 101.33 193.067 80.6601 190.442 57.228C187.818 33.7959 171.192 16.4753 153.307 18.5414C135.423 20.6075 123.053 41.2778 125.678 64.7099C128.302 88.142 144.928 105.463 162.813 103.397Z" fill="#4389C9"/>
<path d="M162.813 103.397C180.697 101.33 193.067 80.6601 190.442 57.228C187.818 33.7959 171.192 16.4753 153.307 18.5414C135.423 20.6075 123.053 41.2778 125.678 64.7099C128.302 88.142 144.928 105.463 162.813 103.397Z" fill="url(#paint19_linear_232_230)"/>
<path opacity="0.06" d="M143.653 80.6363C143.917 81.1591 144.312 81.6022 144.798 81.9211C145.156 82.082 145.539 82.1791 145.929 82.2082L155.98 83.4715C155.429 76.6454 159.797 70.5011 164.186 65.3043C165.338 63.9477 166.547 62.5121 166.9 60.7536C167.066 59.6907 167.066 58.6079 166.9 57.545C166.476 53.3244 166.194 48.9747 167.31 44.8904C168.427 40.8062 171.36 36.9948 175.41 35.9181L178.81 48.9675C179.599 51.6071 180.096 54.3274 180.295 57.0785C180.296 60.0707 179.928 63.0513 179.199 65.9503C176.843 77.0043 174.068 87.9577 170.873 98.8107C170.648 99.9317 170.102 100.96 169.304 101.768C168.307 102.601 166.907 102.651 165.621 102.601C157.846 102.299 150.311 99.6864 142.932 97.1023C140.812 96.3487 138.571 95.5447 137.002 93.8938C135.77 92.418 134.862 90.6931 134.337 88.8334C133.086 85.2445 128.252 74.1259 131.92 71.1256C136.635 67.2711 141.851 77.6575 143.653 80.6363Z" fill="url(#paint20_linear_232_230)"/>
<path d="M118.221 141.549C135.823 137.727 146.156 115.933 141.3 92.8712C136.443 69.8093 118.238 54.2125 100.636 58.0348C83.0344 61.8571 72.7019 83.651 77.558 106.713C82.414 129.775 100.62 145.371 118.221 141.549Z" fill="#5CB945"/>
<path d="M118.221 141.549C135.823 137.727 146.156 115.933 141.3 92.8712C136.443 69.8093 118.238 54.2125 100.636 58.0348C83.0344 61.8571 72.7019 83.651 77.558 106.713C82.414 129.775 100.62 145.371 118.221 141.549Z" fill="url(#paint21_linear_232_230)"/>
<path d="M158.132 176.06C175.734 172.237 186.066 150.443 181.21 127.382C176.354 104.32 158.149 88.7229 140.547 92.5452C122.945 96.3674 112.613 118.161 117.469 141.223C122.325 164.285 140.53 179.882 158.132 176.06Z" fill="#5CB945"/>
<path d="M158.132 176.06C175.734 172.237 186.066 150.443 181.21 127.382C176.354 104.32 158.149 88.7229 140.547 92.5452C122.945 96.3674 112.613 118.161 117.469 141.223C122.325 164.285 140.53 179.882 158.132 176.06Z" fill="url(#paint22_linear_232_230)"/>
<path d="M268.76 40.0258C272.05 20.6853 262.751 2.90791 247.992 0.318896C233.232 -2.27012 218.6 11.3097 215.31 30.6502C212.021 49.9907 221.319 67.7681 236.079 70.3571C250.839 72.9462 265.47 59.3664 268.76 40.0258Z" fill="#5CB945"/>
<path d="M268.76 40.0258C272.05 20.6853 262.751 2.90791 247.992 0.318896C233.232 -2.27012 218.6 11.3097 215.31 30.6502C212.021 49.9907 221.319 67.7681 236.079 70.3571C250.839 72.9462 265.47 59.3664 268.76 40.0258Z" fill="url(#paint23_linear_232_230)"/>
<path d="M223.314 39.4026C224.736 19.8289 213.78 3.05391 198.842 1.93461C183.904 0.815302 170.642 15.7756 169.22 35.3493C167.798 54.923 178.754 71.698 193.692 72.8173C208.63 73.9366 221.892 58.9763 223.314 39.4026Z" fill="#E08E41"/>
<path d="M223.314 39.4026C224.736 19.8289 213.78 3.05391 198.842 1.93461C183.904 0.815302 170.642 15.7756 169.22 35.3493C167.798 54.923 178.754 71.698 193.692 72.8173C208.63 73.9366 221.892 58.9763 223.314 39.4026Z" fill="url(#paint24_linear_232_230)"/>
<path d="M219.537 200.831C237.468 199.235 250.36 178.896 248.332 155.402C246.304 131.909 230.124 114.158 212.193 115.755C194.262 117.351 181.371 137.69 183.399 161.183C185.427 184.676 201.607 202.427 219.537 200.831Z" fill="#B83BCC"/>
<path d="M219.537 200.831C237.468 199.235 250.36 178.896 248.332 155.402C246.304 131.909 230.124 114.158 212.193 115.755C194.262 117.351 181.371 137.69 183.399 161.183C185.427 184.676 201.607 202.427 219.537 200.831Z" fill="url(#paint25_linear_232_230)"/>
<path opacity="0.06" d="M199.449 145.445C201.143 151.904 204.488 157.792 209.146 162.514C213.803 167.236 219.607 170.624 225.969 172.334C228.668 173.139 231.514 173.291 234.281 172.779C236.757 172.16 238.982 170.776 240.65 168.818C242.317 166.86 243.345 164.424 243.59 161.847C243.887 157.641 242.049 153.628 240.247 149.831C238.056 145.223 235.864 140.615 233.299 136.193C230.987 132.224 228.351 128.384 224.93 125.34C221.509 122.297 217.254 120.079 212.723 119.741C206.433 119.275 200.453 122.397 195.187 125.922C193.644 126.893 192.221 128.047 190.946 129.36C188.783 131.728 184.585 139.136 186.225 142.373C187.681 145.244 199.697 146.457 199.449 145.445Z" fill="url(#paint26_linear_232_230)"/>
<path d="M312.438 144.011C324.049 123.587 320.825 99.6215 305.237 90.482C289.649 81.3425 267.599 90.4901 255.988 110.914C244.377 131.337 247.601 155.303 263.189 164.443C278.777 173.582 300.827 164.435 312.438 144.011Z" fill="#5CB945"/>
<path d="M312.438 144.011C324.049 123.587 320.825 99.6215 305.237 90.482C289.649 81.3425 267.599 90.4901 255.988 110.914C244.377 131.337 247.601 155.303 263.189 164.443C278.777 173.582 300.827 164.435 312.438 144.011Z" fill="url(#paint27_linear_232_230)"/>
<path d="M281.185 66.5748C280.552 70.2998 279.536 73.947 278.153 77.4565C271.41 94.6834 256.708 105.615 241.901 103.017C224.167 99.9089 212.992 78.5547 216.943 55.3128C217.806 50.1563 219.406 45.1555 221.693 40.4689C229.037 25.5676 242.586 16.4732 256.242 18.8707C273.962 21.9859 285.137 43.34 281.185 66.5748Z" fill="#B83BCC"/>
<path d="M281.185 66.5748C280.552 70.2998 279.536 73.947 278.153 77.4565C271.41 94.6834 256.708 105.615 241.901 103.017C224.167 99.9089 212.992 78.5547 216.943 55.3128C217.806 50.1563 219.406 45.1555 221.693 40.4689C229.037 25.5676 242.586 16.4732 256.242 18.8707C273.962 21.9859 285.137 43.34 281.185 66.5748Z" fill="url(#paint28_linear_232_230)"/>
<path opacity="0.06" d="M279.447 76.1573C272.704 93.3842 258.002 104.316 243.194 101.718C225.46 98.6097 214.285 77.2555 218.236 54.0135C219.11 48.8552 220.723 43.8543 223.022 39.1697C226.513 38.9472 228.478 44.912 229.765 47.7042C233.814 56.4764 235.584 66.1561 234.903 75.8199C243.554 72.3176 253.189 72.2663 261.875 75.6764C263.033 76.2458 264.283 76.5984 265.565 76.7172C266.651 76.6446 267.723 76.425 268.753 76.064C272.262 75.1284 275.954 75.1606 279.447 76.1573Z" fill="url(#paint29_linear_232_230)"/>
<path d="M228.344 95.5735C226.86 115.944 214.702 132.181 199.81 135.253C197.486 135.737 195.108 135.894 192.742 135.719C174.788 134.37 161.642 114.186 163.331 90.6997C165.02 67.2137 181.001 49.2116 198.926 50.5538C210.334 51.408 219.806 59.8851 224.76 71.9296C226.818 77.0082 228.036 82.3971 228.365 87.8788C228.538 90.441 228.531 93.0124 228.344 95.5735Z" fill="#875AD0"/>
<path d="M228.344 95.5735C226.86 115.944 214.702 132.181 199.81 135.253C197.486 135.737 195.108 135.894 192.742 135.719C174.788 134.37 161.642 114.186 163.331 90.6997C165.02 67.2137 181.001 49.2116 198.926 50.5538C210.334 51.408 219.806 59.8851 224.76 71.9296C226.818 77.0082 228.036 82.3971 228.365 87.8788C228.538 90.441 228.531 93.0124 228.344 95.5735Z" fill="url(#paint30_linear_232_230)"/>
<path opacity="0.06" d="M229.623 94.2743C228.132 114.645 215.982 130.881 201.089 133.954C183.885 95.7314 226.047 70.6304 226.047 70.6304L229.652 86.5796C229.822 89.1419 229.813 91.7134 229.623 94.2743Z" fill="url(#paint31_linear_232_230)"/>
<path d="M271.786 129.887C273.494 106.368 260.328 86.211 242.377 84.8659C224.426 83.5208 208.489 101.497 206.78 125.016C205.071 148.535 218.238 168.692 236.188 170.037C254.139 171.382 270.077 153.406 271.786 129.887Z" fill="#4389C9"/>
<path d="M271.786 129.887C273.494 106.368 260.328 86.211 242.377 84.8659C224.426 83.5208 208.489 101.497 206.78 125.016C205.071 148.535 218.238 168.692 236.188 170.037C254.139 171.382 270.077 153.406 271.786 129.887Z" fill="url(#paint32_linear_232_230)"/>
<path d="M198.594 274.942C198.594 274.942 199.082 284.574 200.559 287.811C200.559 287.811 196.968 283.691 196.558 286.376C195.548 292.994 201.131 293.949 201.308 293.891C202.722 293.482 203.429 300.028 202.375 300.244C199.817 300.775 194.947 301.737 194.947 301.737L192.346 293.288L198.594 274.942Z" fill="#25233A"/>
<path opacity="0.19" d="M200.467 291.113C200.467 291.113 199.386 290.955 199.322 289.398C199.258 287.84 198.75 287.582 198.212 287.496C197.675 287.409 196.544 288.572 197.915 290.589C199.287 292.606 201.011 293.159 201.131 292.743C201.252 292.326 200.467 291.113 200.467 291.113Z" fill="url(#paint33_linear_232_230)"/>
<path d="M227.05 243.194L269.516 164.201" stroke="white" stroke-width="3.63" stroke-miterlimit="10" stroke-linecap="round"/>
<path d="M174.887 424.385C155.259 425.275 139.398 425.993 139.398 425.993C139.398 425.993 123.106 423.064 123.141 409.132V328.266H123.205C123.318 331.704 125.636 346.491 157.09 347.151L156.383 411.695C156.383 411.695 158.92 421.686 174.887 424.385Z" fill="#247B7B"/>
<path d="M174.887 424.385C155.259 425.275 139.398 425.993 139.398 425.993C139.398 425.993 123.106 423.064 123.141 409.132V328.266H123.205C123.318 331.704 125.636 346.491 157.09 347.151L156.383 411.695C156.383 411.695 158.92 421.686 174.887 424.385Z" fill="url(#paint34_linear_232_230)"/>
<path d="M123.141 329.666C123.141 329.666 113.585 257.463 168.978 240.445C246.198 216.722 263.345 287.496 261.635 317.334" stroke="white" stroke-width="3.63" stroke-miterlimit="10" stroke-linecap="round"/>
<path opacity="0.18" d="M95.3848 62.7921C92.8462 64.7791 90.5494 67.0658 88.5428 69.6039C87.206 71.0234 86.114 72.6613 85.3127 74.449C84.795 75.9915 84.4974 77.6013 84.4292 79.2295C84.2578 80.3766 84.3228 81.5474 84.62 82.6677C84.773 83.2316 85.0868 83.7369 85.522 84.1201C85.9571 84.5033 86.4942 84.7471 87.0656 84.821C88.1399 84.8641 89.0588 84.1032 89.8928 83.3855L106.079 69.1445C106.671 68.7138 107.124 68.1142 107.379 67.4218C107.49 66.6886 107.382 65.9386 107.068 65.2685C106.397 63.3951 105.506 59.8564 103.188 59.72C100.516 59.5334 97.4558 61.2704 95.3848 62.7921ZM58.0084 24.0316C56.1956 25.915 54.6105 28.0114 53.2868 30.2763C52.3741 31.5662 51.6812 33.0026 51.2371 34.5256C50.9944 35.8216 50.9349 37.1461 51.0604 38.4591C51.054 39.3983 51.2368 40.329 51.5976 41.1939C51.7855 41.6253 52.094 41.9912 52.4847 42.2463C52.8754 42.5015 53.3312 42.6347 53.7957 42.6294C54.6408 42.4273 55.3831 41.9162 55.8809 41.1939L67.2606 27.922C67.6891 27.5112 67.9849 26.9781 68.1088 26.3931C68.1178 25.7959 67.9477 25.2101 67.6211 24.7135C66.9142 23.2779 65.7692 20.5575 63.8961 20.7154C61.7545 20.8661 59.4927 22.596 58.0084 24.0316ZM108.8 1.5289C106.872 2.40913 105.055 3.51999 103.386 4.8379C102.308 5.54155 101.353 6.42205 100.559 7.44347C99.999 8.3606 99.5706 9.35392 99.2864 10.3936C99.0044 11.1044 98.872 11.8672 98.8977 12.6331C98.9138 13.0158 99.0413 13.385 99.264 13.6942C99.4866 14.0033 99.7945 14.2385 100.149 14.3701C100.856 14.4691 101.574 14.2977 102.163 13.8892L114.695 7.26403C115.141 7.08075 115.523 6.76568 115.791 6.35961C115.974 5.90501 116.019 5.40466 115.918 4.92404C115.769 3.61766 115.727 1.2059 114.264 0.760868C112.582 0.24406 110.355 0.882892 108.8 1.5289ZM146.587 23.7086C144.203 25.6209 142.053 27.8162 140.183 30.2476C138.934 31.6084 137.921 33.1737 137.186 34.8773C136.709 36.3452 136.444 37.8758 136.401 39.4209C136.253 40.5109 136.328 41.6202 136.62 42.6797C136.779 43.2056 137.085 43.6728 137.503 44.0237C137.92 44.3745 138.429 44.5935 138.967 44.6536C139.985 44.6536 140.847 43.9358 141.603 43.2683L156.772 29.5657C157.336 29.1579 157.762 28.5841 157.995 27.922C158.087 27.2294 157.974 26.5246 157.669 25.8978C157.019 24.132 156.129 20.7872 153.93 20.6867C151.407 20.5718 148.523 22.2586 146.587 23.7086ZM127.799 109.448C126.402 111.597 125.263 113.908 124.407 116.332C123.767 117.745 123.364 119.256 123.212 120.804C123.215 122.094 123.401 123.378 123.763 124.615C123.928 125.519 124.275 126.379 124.781 127.142C125.042 127.516 125.406 127.805 125.826 127.972C126.247 128.139 126.707 128.178 127.149 128.082C127.929 127.724 128.547 127.081 128.881 126.28L137.363 111.394C137.701 110.918 137.89 110.35 137.907 109.764C137.798 109.19 137.525 108.661 137.122 108.242C136.154 107.015 134.585 104.603 132.818 105.106C130.817 105.687 128.966 107.79 127.799 109.448ZM178.69 63.1151C176.976 65.0062 175.486 67.0949 174.251 69.3383C173.391 70.6245 172.75 72.049 172.357 73.5518C172.151 74.8263 172.125 76.1242 172.279 77.4063C172.299 78.3231 172.501 79.2265 172.873 80.0621C173.071 80.4751 173.382 80.8206 173.77 81.0565C174.158 81.2923 174.605 81.4082 175.057 81.39C175.883 81.1613 176.597 80.6326 177.064 79.9042L187.858 66.6323C188.265 66.2192 188.54 65.6916 188.649 65.1177C188.644 64.534 188.464 63.9656 188.133 63.4884C187.37 62.1174 186.218 59.4688 184.394 59.6697C182.281 59.921 180.111 61.6652 178.69 63.1151ZM252.771 20.3565C250.24 20.5057 247.734 20.9586 245.307 21.7059C243.811 22.0304 242.378 22.6053 241.067 23.4071C240.051 24.183 239.149 25.1013 238.388 26.1347C237.761 26.8037 237.28 27.5983 236.974 28.4675C236.833 28.9032 236.821 29.3712 236.939 29.8139C237.057 30.2565 237.3 30.6544 237.639 30.9582C238.388 31.3801 239.266 31.5005 240.098 31.2956L256.949 29.3288C257.526 29.3196 258.088 29.1346 258.56 28.7977C258.942 28.3659 259.188 27.8287 259.267 27.2544C259.656 25.7255 260.624 23.0123 259.175 21.871C257.55 20.5646 254.786 20.3134 252.771 20.3565ZM230.005 90.9725C227.848 92.3404 225.86 93.9645 224.082 95.8104C222.916 96.8177 221.924 98.0162 221.149 99.3562C220.618 100.53 220.256 101.775 220.074 103.053C219.848 103.941 219.807 104.868 219.954 105.773C220.032 106.225 220.24 106.644 220.552 106.976C220.864 107.308 221.266 107.539 221.707 107.639C222.564 107.647 223.393 107.33 224.032 106.749L237.9 96.8583C238.404 96.5748 238.811 96.1415 239.066 95.6165C239.21 95.0497 239.183 94.4521 238.989 93.901C238.614 92.3721 238.19 89.5154 236.38 89.2139C234.331 88.8406 231.751 89.9532 230.005 90.9725ZM295.293 89.8097C292.772 89.5429 290.229 89.5814 287.716 89.9245C286.186 89.9983 284.678 90.3332 283.256 90.915C282.131 91.5107 281.096 92.2673 280.182 93.1617C279.466 93.7253 278.874 94.4343 278.443 95.2433C278.235 95.6513 278.15 96.1123 278.198 96.5691C278.245 97.0258 278.424 97.4583 278.712 97.813C279.386 98.3465 280.234 98.6027 281.087 98.5308L298.05 99.3347C298.332 99.4057 298.625 99.4186 298.912 99.3725C299.199 99.3264 299.474 99.2223 299.72 99.0663C299.967 98.9103 300.18 98.7057 300.347 98.4645C300.514 98.2233 300.632 97.9505 300.694 97.6622C301.316 96.2267 302.701 93.7001 301.45 92.3363C299.98 90.7859 297.287 90.0681 295.293 89.8097ZM92.8403 157.54C93.1452 160.097 93.7503 162.608 94.6426 165.019C94.9425 166.416 95.522 167.735 96.3452 168.895C97.1684 170.054 98.2177 171.029 99.4278 171.76C100.127 172.341 100.938 172.766 101.81 173.008C102.248 173.124 102.709 173.106 103.137 172.958C103.566 172.81 103.942 172.538 104.22 172.176C104.585 171.39 104.645 170.493 104.39 169.664C103.391 164.012 102.392 158.366 101.393 152.724C101.344 152.141 101.125 151.586 100.764 151.13C100.321 150.756 99.7757 150.528 99.2016 150.477C97.6749 150.183 94.9607 149.372 93.9217 150.915C92.7413 152.709 92.6706 155.53 92.8403 157.54ZM303.599 20.1914C301.071 20.4048 298.577 20.9228 296.17 21.7346C294.681 22.0956 293.262 22.707 291.971 23.5435C290.976 24.3465 290.098 25.289 289.363 26.3428C288.765 27.0312 288.312 27.8375 288.034 28.7115C287.897 29.1535 287.892 29.6272 288.02 30.0721C288.148 30.517 288.404 30.913 288.755 31.2094C289.518 31.6089 290.399 31.7085 291.229 31.4894L308.016 29.0561C308.591 29.0296 309.144 28.8296 309.607 28.4818C309.992 28.0444 310.238 27.499 310.313 26.9171C310.66 25.381 311.564 22.6103 310.087 21.5408C308.377 20.2703 305.606 20.0909 303.599 20.1914ZM189.285 4.21343C187.541 5.61146 185.968 7.21635 184.599 8.9939C183.684 9.98972 182.941 11.1351 182.401 12.3819C182.058 13.4569 181.865 14.5756 181.828 15.7052C181.72 16.5029 181.778 17.3148 181.998 18.0883C182.112 18.4723 182.335 18.8135 182.639 19.069C182.944 19.3245 183.316 19.4827 183.708 19.5238C184.454 19.4447 185.143 19.0834 185.638 18.5118L196.735 8.46273C197.144 8.16022 197.454 7.74018 197.626 7.25685C197.693 6.75065 197.609 6.23562 197.385 5.77821C196.905 4.48619 196.254 2.03853 194.65 1.96675C192.812 1.91651 190.699 3.1511 189.285 4.21343Z" fill="white"/>
<path d="M369.416 220.953L352.537 229.058L372.026 239.828L387.862 224.173L369.416 220.953Z" fill="url(#paint35_linear_232_230)"/>
<path d="M366.356 198.82L350.52 214.476L370.01 225.242L385.846 209.591L366.356 198.82Z" fill="url(#paint36_linear_232_230)"/>
<path d="M370.011 225.25L372.028 239.836L352.603 229.487L350.527 214.47L370.011 225.25Z" fill="url(#paint37_linear_232_230)"/>
<path d="M385.845 209.587L387.922 224.603L372.028 239.836L370.011 225.25L385.845 209.587Z" fill="url(#paint38_linear_232_230)"/>
<path d="M370.553 229.174L372.028 239.836L352.603 229.487L351.07 218.398L370.553 229.174Z" fill="url(#paint39_linear_232_230)"/>
<path d="M386.388 213.514L387.922 224.603L372.028 239.836L370.553 229.174L386.388 213.514Z" fill="url(#paint40_linear_232_230)"/>
<path opacity="0.5" d="M357.59 219.521L373.86 202.862L378.302 205.319L362.421 221.051L364.459 235.791L359.474 233.144L357.59 219.521Z" fill="url(#paint41_linear_232_230)"/>
<path opacity="0.5" d="M380.937 215.895L360.255 204.929L356.639 208.501L376.703 218.679L378.742 233.423L382.822 229.527L380.937 215.895Z" fill="url(#paint42_linear_232_230)"/>
<path d="M391.201 172.079C390.983 171.919 390.683 171.985 390.55 172.227L369.2 209.024L374.862 171.987C374.905 171.7 374.725 171.435 374.468 171.375C374.212 171.324 373.962 171.507 373.922 171.786L367.991 210.644L351.734 174.854C351.619 174.597 351.333 174.488 351.1 174.607C350.862 174.735 350.768 175.038 350.891 175.302L366.38 209.414L335.853 179.791C335.659 179.594 335.357 179.611 335.183 179.825C335.012 180.035 335.035 180.363 335.239 180.559L367.566 211.932C367.671 212.038 367.813 212.084 367.946 212.066C368.028 212.055 368.098 212.02 368.167 211.969C368.173 211.96 368.173 211.96 368.173 211.96C368.176 211.96 368.176 211.96 368.178 211.968C368.253 211.999 368.338 212.012 368.42 212.001C368.545 211.983 368.67 211.9 368.742 211.77L391.353 172.799C391.493 172.556 391.426 172.234 391.201 172.079Z" fill="url(#paint43_linear_232_230)"/>
<path d="M359.184 148.701C343.911 150.813 333.158 165.427 334.15 182.013C337.611 180.371 341.544 178.879 345.827 177.592C349.1 176.609 352.571 175.757 356.207 175.051C358.31 174.636 360.477 174.279 362.679 173.974C364.884 173.669 367.067 173.425 369.204 173.254C372.894 172.947 376.471 172.825 379.88 172.883C384.355 172.96 388.545 173.328 392.314 173.97C388.776 157.736 374.457 146.589 359.184 148.701Z" fill="url(#paint44_linear_232_230)"/>
<path d="M391.817 172.938C388.088 172.307 383.95 171.939 379.528 171.868C376.157 171.812 372.629 171.928 368.984 172.233C366.869 172.401 364.718 172.637 362.535 172.938C360.356 173.24 358.223 173.597 356.138 174.009C352.55 174.704 349.119 175.551 345.89 176.519C341.661 177.787 337.774 179.264 334.356 180.884C333.369 164.499 343.996 150.065 359.084 147.978C374.172 145.892 388.318 156.901 391.817 172.938Z" fill="url(#paint45_linear_232_230)"/>
<path d="M359.084 147.978C355.924 148.415 354.778 159.564 356.138 174.009C352.55 174.704 349.119 175.551 345.89 176.519C345.222 161.436 350.656 149.144 359.084 147.978Z" fill="url(#paint46_linear_232_230)"/>
<path d="M379.528 171.868C376.157 171.812 372.629 171.928 368.984 172.233C366.377 157.96 362.244 147.541 359.084 147.978C367.512 146.813 376.074 157.17 379.528 171.868Z" fill="url(#paint47_linear_232_230)"/>
<path d="M368.984 172.233C366.869 172.401 364.718 172.637 362.536 172.938C360.356 173.24 358.223 173.597 356.138 174.009C354.778 159.564 355.924 148.415 359.084 147.978C362.244 147.541 366.377 157.96 368.984 172.233Z" fill="url(#paint48_linear_232_230)"/>
<path d="M369.932 211.266C370.084 212.366 369.39 213.369 368.387 213.508C367.381 213.647 366.447 212.869 366.295 211.769C366.142 210.664 366.83 209.662 367.836 209.523C368.839 209.384 369.779 210.161 369.932 211.266Z" fill="url(#paint49_linear_232_230)"/>
<path opacity="0.7" d="M30.3059 291.866L21.6986 292.775L28.2812 300.885L37.6986 296.367L30.3059 291.866Z" fill="url(#paint50_linear_232_230)"/>
<path opacity="0.7" d="M32.6801 281.29L23.2628 285.808L29.8458 293.915L39.2628 289.4L32.6801 281.29Z" fill="url(#paint51_linear_232_230)"/>
<path opacity="0.7" d="M29.845 293.919L28.2803 300.889L21.6557 292.982L23.2665 285.806L29.845 293.919Z" fill="url(#paint52_linear_232_230)"/>
<path opacity="0.7" d="M39.2632 289.398L37.6524 296.573L28.2803 300.889L29.845 293.919L39.2632 289.398Z" fill="url(#paint53_linear_232_230)"/>
<path opacity="0.7" d="M29.424 295.794L28.2803 300.889L21.6557 292.982L22.8452 287.683L29.424 295.794Z" fill="url(#paint54_linear_232_230)"/>
<path opacity="0.7" d="M38.8419 291.275L37.6524 296.573L28.2803 300.889L29.424 295.794L38.8419 291.275Z" fill="url(#paint55_linear_232_230)"/>
<path opacity="0.7" d="M25.4608 289.267L35.2322 284.365L36.7321 286.214L27.2822 290.759L25.701 297.802L23.9995 295.777L25.4608 289.267Z" fill="url(#paint56_linear_232_230)"/>
<path opacity="0.7" d="M36.1017 291.461L29.0392 283.066L26.8893 284.096L33.8176 292.03L32.2359 299.075L34.6394 297.974L36.1017 291.461Z" fill="url(#paint57_linear_232_230)"/>
<path opacity="0.7" d="M47.8185 273.211C47.7515 273.102 47.6114 273.083 47.5142 273.172L32.2014 286.402L40.8101 270.48C40.8765 270.356 40.8434 270.206 40.7428 270.137C40.6413 270.071 40.5033 270.113 40.4394 270.234L31.4118 286.94L30.3899 267.978C30.3835 267.842 30.2785 267.745 30.1588 267.761C30.0348 267.78 29.944 267.902 29.9529 268.043L30.9245 286.115L22.74 267.61C22.6897 267.488 22.5566 267.446 22.4461 267.515C22.3377 267.583 22.2928 267.736 22.348 267.858L31.0142 287.456C31.0418 287.522 31.0951 287.566 31.1555 287.58C31.1924 287.588 31.2284 287.584 31.2664 287.572C31.2706 287.569 31.2706 287.569 31.2706 287.569C31.2722 287.569 31.2722 287.569 31.2714 287.573C31.2988 287.6 31.3331 287.62 31.37 287.628C31.4269 287.641 31.4942 287.623 31.5471 287.576L47.764 273.564C47.8646 273.476 47.8894 273.319 47.8185 273.211Z" fill="url(#paint58_linear_232_230)"/>
<path opacity="0.7" d="M37.9526 257.303C31.0351 255.75 23.9761 260.63 21.6376 268.341C23.3989 268.163 25.3387 268.132 27.3943 268.251C28.9649 268.343 30.5995 268.526 32.2798 268.803C33.253 268.961 34.2445 269.155 35.2415 269.379C36.2403 269.603 37.2195 269.851 38.1666 270.125C39.8043 270.593 41.362 271.126 42.8177 271.713C44.7286 272.485 46.4688 273.342 47.9819 274.255C49.1675 266.285 44.87 258.856 37.9526 257.303Z" fill="url(#paint59_linear_232_230)"/>
<path opacity="0.7" d="M47.9404 273.703C46.4423 272.802 44.7248 271.954 42.836 271.194C41.3961 270.614 39.8601 270.085 38.2422 269.624C37.3051 269.353 36.3414 269.106 35.3527 268.884C34.3657 268.662 33.3889 268.473 32.424 268.318C30.7658 268.044 29.1498 267.864 27.6001 267.773C25.5709 267.654 23.6538 267.686 21.9144 267.861C24.2214 260.242 31.1965 255.423 38.0301 256.957C44.8638 258.492 49.1096 265.83 47.9404 273.703Z" fill="url(#paint60_linear_232_230)"/>
<path opacity="0.7" d="M38.0301 256.957C36.5991 256.636 34.2474 261.521 32.424 268.318C30.7658 268.044 29.1498 267.864 27.6001 267.773C29.8276 260.8 34.2128 256.1 38.0301 256.957Z" fill="url(#paint61_linear_232_230)"/>
<path opacity="0.7" d="M42.836 271.194C41.3962 270.613 39.8602 270.085 38.2422 269.624C39.5009 262.7 39.4613 257.279 38.0301 256.957C41.8475 257.814 43.8016 263.937 42.836 271.194Z" fill="url(#paint62_linear_232_230)"/>
<path opacity="0.7" d="M38.2422 269.624C37.3051 269.353 36.3414 269.106 35.3527 268.884C34.3657 268.662 33.3889 268.473 32.424 268.318C34.2474 261.521 36.5991 256.636 38.0301 256.957C39.4612 257.279 39.5009 262.7 38.2422 269.624Z" fill="url(#paint63_linear_232_230)"/>
<path opacity="0.7" d="M32.1426 287.542C32.0245 288.068 31.5587 288.41 31.1046 288.308C30.6488 288.206 30.3772 287.698 30.4953 287.172C30.6138 286.645 31.0762 286.302 31.532 286.404C31.9862 286.506 32.2611 287.014 32.1426 287.542Z" fill="url(#paint64_linear_232_230)"/>
</g>
<defs>
<linearGradient id="paint0_linear_232_230" x1="252.633" y1="80.2722" x2="308.401" y2="50.2666" gradientUnits="userSpaceOnUse">
<stop/>
<stop offset="1" stop-opacity="0"/>
</linearGradient>
<linearGradient id="paint1_linear_232_230" x1="154.259" y1="96.8464" x2="104.702" y2="21.9761" gradientUnits="userSpaceOnUse">
<stop/>
<stop offset="1" stop-opacity="0"/>
</linearGradient>
<linearGradient id="paint2_linear_232_230" x1="86.281" y1="46.9362" x2="128.407" y2="46.9362" gradientUnits="userSpaceOnUse">
<stop stop-color="#183866"/>
<stop offset="1" stop-color="#1A7FC1"/>
</linearGradient>
<linearGradient id="paint3_linear_232_230" x1="125.749" y1="82.0825" x2="63.4135" y2="47.2472" gradientUnits="userSpaceOnUse">
<stop/>
<stop offset="1" stop-opacity="0"/>
</linearGradient>
<linearGradient id="paint4_linear_232_230" x1="192.925" y1="320.205" x2="196.642" y2="355.15" gradientUnits="userSpaceOnUse">
<stop stop-color="#44A1A0"/>
<stop offset="0.2" stop-color="#48BBBA"/>
<stop offset="0.46" stop-color="#509B8E"/>
<stop offset="0.69" stop-color="#477670"/>
<stop offset="0.87" stop-color="#41455E"/>
<stop offset="0.99" stop-color="#3F3D56"/>
</linearGradient>
<linearGradient id="paint5_linear_232_230" x1="194.113" y1="329.917" x2="191.752" y2="302.697" gradientUnits="userSpaceOnUse">
<stop stop-color="#44A1A0"/>
<stop offset="0.2" stop-color="#4DAFA4"/>
<stop offset="0.46" stop-color="#509B84"/>
<stop offset="0.69" stop-color="#476E76"/>
<stop offset="0.87" stop-color="#41595E"/>
<stop offset="0.99" stop-color="#3D5356"/>
</linearGradient>
<linearGradient id="paint6_linear_232_230" x1="39.2779" y1="44.8072" x2="-73.92" y2="63.7471" gradientUnits="userSpaceOnUse">
<stop stop-opacity="0.56"/>
<stop offset="1" stop-opacity="0"/>
</linearGradient>
<linearGradient id="paint7_linear_232_230" x1="27.8227" y1="36.9723" x2="-17.1359" y2="75.1943" gradientUnits="userSpaceOnUse">
<stop stop-opacity="0.37"/>
<stop offset="1" stop-opacity="0"/>
</linearGradient>
<linearGradient id="paint8_linear_232_230" x1="-14.6428" y1="73.9459" x2="27.9332" y2="64.2082" gradientUnits="userSpaceOnUse">
<stop/>
<stop offset="1" stop-opacity="0"/>
</linearGradient>
<linearGradient id="paint9_linear_232_230" x1="191.893" y1="333.865" x2="244.339" y2="333.865" gradientUnits="userSpaceOnUse">
<stop stop-color="#183866"/>
<stop offset="1" stop-color="#1A7FC1"/>
</linearGradient>
<linearGradient id="paint10_linear_232_230" x1="201.697" y1="308.053" x2="219.7" y2="308.053" gradientUnits="userSpaceOnUse">
<stop stop-color="#ECC4D7"/>
<stop offset="0.42" stop-color="#EFD4D1"/>
<stop offset="1" stop-color="#F2EAC9"/>
</linearGradient>
<linearGradient id="paint11_linear_232_230" x1="204.15" y1="305.735" x2="219.318" y2="305.735" gradientUnits="userSpaceOnUse">
<stop stop-color="#183866"/>
<stop offset="1" stop-color="#1A7FC1"/>
</linearGradient>
<linearGradient id="paint12_linear_232_230" x1="195.76" y1="284.739" x2="228.697" y2="284.739" gradientUnits="userSpaceOnUse">
<stop stop-color="#ECC4D7"/>
<stop offset="0.42" stop-color="#EFD4D1"/>
<stop offset="1" stop-color="#F2EAC9"/>
</linearGradient>
<linearGradient id="paint13_linear_232_230" x1="0.667732" y1="49.7769" x2="31.413" y2="117.718" gradientUnits="userSpaceOnUse">
<stop/>
<stop offset="1" stop-opacity="0"/>
</linearGradient>
<linearGradient id="paint14_linear_232_230" x1="-37.8256" y1="69.7161" x2="14.2398" y2="58.1952" gradientUnits="userSpaceOnUse">
<stop/>
<stop offset="1" stop-opacity="0"/>
</linearGradient>
<linearGradient id="paint15_linear_232_230" x1="201.64" y1="345.084" x2="206.932" y2="333.862" gradientUnits="userSpaceOnUse">
<stop stop-color="#ECC4D7"/>
<stop offset="0.42" stop-color="#EFD4D1"/>
<stop offset="1" stop-color="#F2EAC9"/>
</linearGradient>
<linearGradient id="paint16_linear_232_230" x1="232.712" y1="342.048" x2="238.649" y2="329.47" gradientUnits="userSpaceOnUse">
<stop stop-color="#ECC4D7"/>
<stop offset="0.42" stop-color="#EFD4D1"/>
<stop offset="1" stop-color="#F2EAC9"/>
</linearGradient>
<linearGradient id="paint17_linear_232_230" x1="191.647" y1="140.096" x2="95.4426" y2="171.111" gradientUnits="userSpaceOnUse">
<stop/>
<stop offset="0.62" stop-opacity="0.26"/>
<stop offset="1" stop-opacity="0"/>
</linearGradient>
<linearGradient id="paint18_linear_232_230" x1="91.6387" y1="156.248" x2="158.044" y2="156.248" gradientUnits="userSpaceOnUse">
<stop stop-color="#183866"/>
<stop offset="1" stop-color="#1A7FC1"/>
</linearGradient>
<linearGradient id="paint19_linear_232_230" x1="198.076" y1="84.942" x2="137.657" y2="49.8031" gradientUnits="userSpaceOnUse">
<stop/>
<stop offset="1" stop-opacity="0"/>
</linearGradient>
<linearGradient id="paint20_linear_232_230" x1="130.57" y1="69.2665" x2="180.302" y2="69.2665" gradientUnits="userSpaceOnUse">
<stop stop-color="#183866"/>
<stop offset="1" stop-color="#1A7FC1"/>
</linearGradient>
<linearGradient id="paint21_linear_232_230" x1="158.582" y1="161.849" x2="96.3461" y2="85.6737" gradientUnits="userSpaceOnUse">
<stop/>
<stop offset="1" stop-opacity="0"/>
</linearGradient>
<linearGradient id="paint22_linear_232_230" x1="200.62" y1="122.688" x2="131.436" y2="137.89" gradientUnits="userSpaceOnUse">
<stop/>
<stop offset="1" stop-opacity="0"/>
</linearGradient>
<linearGradient id="paint23_linear_232_230" x1="212.289" y1="62.6566" x2="260.91" y2="19.3368" gradientUnits="userSpaceOnUse">
<stop/>
<stop offset="1" stop-opacity="0"/>
</linearGradient>
<linearGradient id="paint24_linear_232_230" x1="250.819" y1="80.8277" x2="178.618" y2="25.0877" gradientUnits="userSpaceOnUse">
<stop/>
<stop offset="1" stop-opacity="0"/>
</linearGradient>
<linearGradient id="paint25_linear_232_230" x1="225.252" y1="104.277" x2="209.369" y2="192.904" gradientUnits="userSpaceOnUse">
<stop/>
<stop offset="1" stop-opacity="0"/>
</linearGradient>
<linearGradient id="paint26_linear_232_230" x1="185.85" y1="146.386" x2="243.625" y2="146.386" gradientUnits="userSpaceOnUse">
<stop stop-color="#183866"/>
<stop offset="1" stop-color="#1A7FC1"/>
</linearGradient>
<linearGradient id="paint27_linear_232_230" x1="219.223" y1="128.326" x2="307.144" y2="127.199" gradientUnits="userSpaceOnUse">
<stop/>
<stop offset="1" stop-opacity="0"/>
</linearGradient>
<linearGradient id="paint28_linear_232_230" x1="231.533" y1="-34.9268" x2="281.369" y2="16.5489" gradientUnits="userSpaceOnUse">
<stop/>
<stop offset="1" stop-opacity="0"/>
</linearGradient>
<linearGradient id="paint29_linear_232_230" x1="217.438" y1="70.6303" x2="279.447" y2="70.6303" gradientUnits="userSpaceOnUse">
<stop stop-color="#183866"/>
<stop offset="1" stop-color="#1A7FC1"/>
</linearGradient>
<linearGradient id="paint30_linear_232_230" x1="204.437" y1="26.9561" x2="233.259" y2="-38.5872" gradientUnits="userSpaceOnUse">
<stop stop-opacity="0.14"/>
<stop offset="1" stop-opacity="0"/>
</linearGradient>
<linearGradient id="paint31_linear_232_230" x1="196.961" y1="102.292" x2="229.772" y2="102.292" gradientUnits="userSpaceOnUse">
<stop stop-color="#183866"/>
<stop offset="1" stop-color="#1A7FC1"/>
</linearGradient>
<linearGradient id="paint32_linear_232_230" x1="181.183" y1="153.347" x2="246.587" y2="125.097" gradientUnits="userSpaceOnUse">
<stop/>
<stop offset="1" stop-opacity="0"/>
</linearGradient>
<linearGradient id="paint33_linear_232_230" x1="197.258" y1="290.187" x2="201.139" y2="290.187" gradientUnits="userSpaceOnUse">
<stop stop-color="#183866"/>
<stop offset="1" stop-color="#1A7FC1"/>
</linearGradient>
<linearGradient id="paint34_linear_232_230" x1="-3.28148" y1="112.001" x2="-81.4639" y2="-29.3492" gradientUnits="userSpaceOnUse">
<stop stop-opacity="0.12"/>
<stop offset="1" stop-opacity="0"/>
</linearGradient>
<linearGradient id="paint35_linear_232_230" x1="371.654" y1="237.132" x2="368.636" y2="215.306" gradientUnits="userSpaceOnUse">
<stop offset="0.037" stop-color="#D4C95E"/>
<stop offset="1" stop-color="#FF9444"/>
</linearGradient>
<linearGradient id="paint36_linear_232_230" x1="369.725" y1="223.183" x2="366.235" y2="197.948" gradientUnits="userSpaceOnUse">
<stop offset="0.037" stop-color="#D4C95E"/>
<stop offset="1" stop-color="#FF9444"/>
</linearGradient>
<linearGradient id="paint37_linear_232_230" x1="356.004" y1="227.205" x2="384.149" y2="226.322" gradientUnits="userSpaceOnUse">
<stop offset="0.037" stop-color="#D4C95E"/>
<stop offset="1" stop-color="#FF9444"/>
</linearGradient>
<linearGradient id="paint38_linear_232_230" x1="406.291" y1="220.929" x2="433.972" y2="217.101" gradientUnits="userSpaceOnUse">
<stop offset="0.037" stop-color="#D4C95E"/>
<stop offset="1" stop-color="#FF9444"/>
</linearGradient>
<linearGradient id="paint39_linear_232_230" x1="356.382" y1="229.168" x2="383.957" y2="228.303" gradientUnits="userSpaceOnUse">
<stop offset="0.037" stop-color="#D4C95E"/>
<stop offset="1" stop-color="#FF9444"/>
</linearGradient>
<linearGradient id="paint40_linear_232_230" x1="406.562" y1="222.893" x2="434.244" y2="219.065" gradientUnits="userSpaceOnUse">
<stop offset="0.037" stop-color="#D4C95E"/>
<stop offset="1" stop-color="#FF9444"/>
</linearGradient>
<linearGradient id="paint41_linear_232_230" x1="403.365" y1="214.597" x2="438.237" y2="209.774" gradientUnits="userSpaceOnUse">
<stop offset="0.213" stop-color="#F9EDAB"/>
<stop offset="1" stop-color="#F9ED97"/>
</linearGradient>
<linearGradient id="paint42_linear_232_230" x1="334.378" y1="224.033" x2="298.584" y2="228.982" gradientUnits="userSpaceOnUse">
<stop offset="0.213" stop-color="#F9EDAB"/>
<stop offset="1" stop-color="#F9ED97"/>
</linearGradient>
<linearGradient id="paint43_linear_232_230" x1="369.749" y1="223.359" x2="367.177" y2="204.755" gradientUnits="userSpaceOnUse">
<stop offset="0.213" stop-color="#55C541"/>
<stop offset="1" stop-color="#009444"/>
</linearGradient>
<linearGradient id="paint44_linear_232_230" x1="359.389" y1="150.201" x2="365.324" y2="193.117" gradientUnits="userSpaceOnUse">
<stop offset="0.213" stop-color="#55C541"/>
<stop offset="1" stop-color="#009444"/>
</linearGradient>
<linearGradient id="paint45_linear_232_230" x1="359.264" y1="149.265" x2="364.358" y2="186.103" gradientUnits="userSpaceOnUse">
<stop offset="0.213" stop-color="#55C541"/>
<stop offset="1" stop-color="#009444"/>
</linearGradient>
<linearGradient id="paint46_linear_232_230" x1="355.242" y1="182.17" x2="349.826" y2="143.007" gradientUnits="userSpaceOnUse">
<stop offset="0.213" stop-color="#F9EDAB"/>
<stop offset="1" stop-color="#F9ED97"/>
</linearGradient>
<linearGradient id="paint47_linear_232_230" x1="372.061" y1="179.844" x2="366.645" y2="140.681" gradientUnits="userSpaceOnUse">
<stop offset="0.213" stop-color="#F9EDAB"/>
<stop offset="1" stop-color="#F9ED97"/>
</linearGradient>
<linearGradient id="paint48_linear_232_230" x1="359.707" y1="152.482" x2="364.316" y2="185.813" gradientUnits="userSpaceOnUse">
<stop offset="0.213" stop-color="#55C541"/>
<stop offset="1" stop-color="#009444"/>
</linearGradient>
<linearGradient id="paint49_linear_232_230" x1="367.118" y1="204.317" x2="368.308" y2="212.922" gradientUnits="userSpaceOnUse">
<stop offset="0.213" stop-color="#55C541"/>
<stop offset="1" stop-color="#009444"/>
</linearGradient>
<linearGradient id="paint50_linear_232_230" x1="28.5705" y1="299.596" x2="30.9117" y2="289.168" gradientUnits="userSpaceOnUse">
<stop offset="0.037" stop-color="#D4C95E"/>
<stop offset="1" stop-color="#FF9444"/>
</linearGradient>
<linearGradient id="paint51_linear_232_230" x1="30.0667" y1="292.931" x2="32.7738" y2="280.873" gradientUnits="userSpaceOnUse">
<stop offset="0.037" stop-color="#D4C95E"/>
<stop offset="1" stop-color="#FF9444"/>
</linearGradient>
<linearGradient id="paint52_linear_232_230" x1="23.4979" y1="292.503" x2="35.7903" y2="296.596" gradientUnits="userSpaceOnUse">
<stop offset="0.037" stop-color="#D4C95E"/>
<stop offset="1" stop-color="#FF9444"/>
</linearGradient>
<linearGradient id="paint53_linear_232_230" x1="46.1613" y1="297.925" x2="58.6991" y2="300.739" gradientUnits="userSpaceOnUse">
<stop offset="0.037" stop-color="#D4C95E"/>
<stop offset="1" stop-color="#FF9444"/>
</linearGradient>
<linearGradient id="paint54_linear_232_230" x1="23.3334" y1="293.459" x2="35.3765" y2="297.468" gradientUnits="userSpaceOnUse">
<stop offset="0.037" stop-color="#D4C95E"/>
<stop offset="1" stop-color="#FF9444"/>
</linearGradient>
<linearGradient id="paint55_linear_232_230" x1="45.9507" y1="298.863" x2="58.4884" y2="301.678" gradientUnits="userSpaceOnUse">
<stop offset="0.037" stop-color="#D4C95E"/>
<stop offset="1" stop-color="#FF9444"/>
</linearGradient>
<linearGradient id="paint56_linear_232_230" x1="45.9595" y1="294.561" x2="61.7538" y2="298.107" gradientUnits="userSpaceOnUse">
<stop offset="0.213" stop-color="#F9EDAB"/>
<stop offset="1" stop-color="#F9ED97"/>
</linearGradient>
<linearGradient id="paint57_linear_232_230" x1="14.7303" y1="287.5" x2="-1.4817" y2="283.86" gradientUnits="userSpaceOnUse">
<stop offset="0.213" stop-color="#F9EDAB"/>
<stop offset="1" stop-color="#F9ED97"/>
</linearGradient>
<linearGradient id="paint58_linear_232_230" x1="30.0479" y1="293.015" x2="32.0436" y2="284.126" gradientUnits="userSpaceOnUse">
<stop offset="0.213" stop-color="#55C541"/>
<stop offset="1" stop-color="#009444"/>
</linearGradient>
<linearGradient id="paint59_linear_232_230" x1="37.7909" y1="258.019" x2="33.1873" y2="278.525" gradientUnits="userSpaceOnUse">
<stop offset="0.213" stop-color="#55C541"/>
<stop offset="1" stop-color="#009444"/>
</linearGradient>
<linearGradient id="paint60_linear_232_230" x1="37.8929" y1="257.572" x2="33.9413" y2="275.174" gradientUnits="userSpaceOnUse">
<stop offset="0.213" stop-color="#55C541"/>
<stop offset="1" stop-color="#009444"/>
</linearGradient>
<linearGradient id="paint61_linear_232_230" x1="30.6782" y1="271.884" x2="34.8792" y2="253.171" gradientUnits="userSpaceOnUse">
<stop offset="0.213" stop-color="#F9EDAB"/>
<stop offset="1" stop-color="#F9ED97"/>
</linearGradient>
<linearGradient id="paint62_linear_232_230" x1="38.2961" y1="273.594" x2="42.4972" y2="254.881" gradientUnits="userSpaceOnUse">
<stop offset="0.213" stop-color="#F9EDAB"/>
<stop offset="1" stop-color="#F9ED97"/>
</linearGradient>
<linearGradient id="paint63_linear_232_230" x1="37.547" y1="259.11" x2="33.9717" y2="275.036" gradientUnits="userSpaceOnUse">
<stop offset="0.213" stop-color="#55C541"/>
<stop offset="1" stop-color="#009444"/>
</linearGradient>
<linearGradient id="paint64_linear_232_230" x1="32.0913" y1="283.917" x2="31.1682" y2="288.029" gradientUnits="userSpaceOnUse">
<stop offset="0.213" stop-color="#55C541"/>
<stop offset="1" stop-color="#009444"/>
</linearGradient>
<clipPath id="clip0_232_230">
<rect width="392" height="426" fill="white"/>
</clipPath>
</defs>
</svg>
