<svg width="429" height="420" viewBox="0 0 429 420" fill="none" xmlns="http://www.w3.org/2000/svg">
<g clip-path="url(#clip0_410_843)">
<g clip-path="url(#clip1_410_843)">
<path opacity="0.18" d="M236.339 20.5818C220.087 34.0198 208.21 52.7642 189.998 63.3512C162.368 79.4179 127.681 72.8837 96.4285 79.2389C65.3534 85.571 36.7116 106.365 23.9917 135.533C11.2717 164.701 16.4485 201.657 38.9927 223.879C46.8023 231.586 56.5077 237.629 62.2523 246.989C75.0627 267.86 63.5544 296.341 72.9224 318.985C81.3032 339.236 104.054 349.356 125.531 353.478C147.009 357.599 169.646 357.796 189.541 366.86C201.404 372.266 211.787 380.625 223.871 385.504C239.273 391.723 256.384 391.863 273.015 391.513C301.94 390.899 334.779 386.981 351.97 363.562C371.749 336.566 360.839 296.772 376.929 267.416C384.405 253.772 397.167 243.59 405.005 230.108C415.842 211.526 415.832 187.127 405.045 168.622C396.225 153.47 381.31 142.852 371.334 128.447C357.81 108.919 354.462 84.2652 345.975 62.069C330.617 21.9101 274.234 -10.7701 236.339 20.5818Z" fill="#44A1A0"/>
<path d="M306.845 168.045C309.236 163.93 314.887 162.787 319.47 164.006C324.053 165.226 327.894 168.234 331.833 170.861C335.772 173.488 340.251 175.851 344.983 175.516C346.87 175.351 348.751 174.806 350.639 174.97C352.381 175.182 353.993 175.994 355.2 177.268C356.408 178.541 357.135 180.197 357.26 181.953C343.625 182.358 330.171 185.295 317.581 190.614C311.379 193.234 304.239 196.43 298.303 193.259C296.088 192.066 294.291 190.058 291.869 189.394C286.876 188.029 281.79 192.873 276.74 191.659C274.563 191.122 272.842 189.523 270.87 188.439C264.347 184.86 255.906 187.355 249.08 184.391C248.506 184.201 247.978 183.892 247.532 183.483C247.086 183.074 246.732 182.575 246.492 182.018C246.015 180.414 247.327 178.724 248.892 178.111C250.457 177.498 252.186 177.624 253.86 177.599C258.154 177.511 262.354 176.284 266.032 174.042C267.578 173.093 269.166 171.923 270.971 172.025C274.555 172.224 277.595 177.268 280.644 175.373C278.417 176.754 278.638 168.836 278.988 168.043C280.127 165.51 284.344 163.426 286.803 162.562C293.77 160.092 302.29 162.128 306.845 168.045Z" fill="#44A1A0"/>
<path d="M306.845 168.045C309.236 163.93 314.887 162.787 319.47 164.006C324.053 165.226 327.894 168.234 331.833 170.861C335.772 173.488 340.251 175.851 344.983 175.516C346.87 175.351 348.751 174.806 350.639 174.97C352.381 175.182 353.993 175.994 355.2 177.268C356.408 178.541 357.135 180.197 357.26 181.953C343.625 182.358 330.171 185.295 317.581 190.614C311.379 193.234 304.239 196.43 298.303 193.259C296.088 192.066 294.291 190.058 291.869 189.394C286.876 188.029 281.79 192.873 276.74 191.659C274.563 191.122 272.842 189.523 270.87 188.439C264.347 184.86 255.906 187.355 249.08 184.391C248.506 184.201 247.978 183.892 247.532 183.483C247.086 183.074 246.732 182.575 246.492 182.018C246.015 180.414 247.327 178.724 248.892 178.111C250.457 177.498 252.186 177.624 253.86 177.599C258.154 177.511 262.354 176.284 266.032 174.042C267.578 173.093 269.166 171.923 270.971 172.025C274.555 172.224 277.595 177.268 280.644 175.373C278.417 176.754 278.638 168.836 278.988 168.043C280.127 165.51 284.344 163.426 286.803 162.562C293.77 160.092 302.29 162.128 306.845 168.045Z" fill="url(#paint0_linear_410_843)"/>
<path d="M218.747 212.175C218.747 212.175 182.536 280.537 176.118 285.33C171.072 289.099 146.355 285.47 136.027 283.754C133.225 283.295 131.474 282.962 131.474 282.962L150.471 251.246C147.438 255.294 144.05 259.063 140.348 262.506C135.344 267.002 129.635 270.332 126.057 266.662C118.536 258.961 116.88 255.919 116.88 255.919L120.318 240.132C120.318 240.132 138.311 241.249 142.827 233.401C147.343 225.554 164.682 204.092 180.08 205.495L183.256 205.782L195.479 206.898C195.479 206.898 217.579 185.43 227.314 162.73C237.048 140.03 240.585 137.73 240.585 137.73L253.309 144.484C253.309 144.484 242.338 167.203 239.26 173.534C236.181 179.864 218.747 212.175 218.747 212.175Z" fill="#3F3D56"/>
<path d="M215.659 195.281C211.251 200.192 206.162 204.428 201.091 208.645C198.737 210.33 195.396 214.975 192.286 215.223C188.973 215.489 186.193 209.709 184.422 207.418C184.027 206.896 183.622 206.357 183.24 205.812L195.463 206.929C195.463 206.929 217.563 185.461 227.297 162.761C237.032 140.061 240.569 137.76 240.569 137.76L241.859 138.445C242.012 138.656 242.135 138.886 242.226 139.129C242.907 140.87 242.109 142.815 241.313 144.515C239.073 149.432 236.793 154.406 233.39 158.597C231.662 160.485 230.037 162.463 228.521 164.525C227.128 166.673 226.234 169.31 226.823 171.794C227.116 172.928 227.702 174.061 227.708 175.259C227.658 176.29 227.373 177.296 226.876 178.202C224.004 184.42 220.223 190.177 215.659 195.281ZM143.607 278.952C142.442 279.635 141.357 280.448 140.374 281.375C139.992 281.846 139.56 282.273 139.085 282.648C138.652 282.918 138.181 283.12 137.688 283.247L136.003 283.781C133.201 283.321 131.451 282.989 131.451 282.989L150.448 251.272C147.414 255.32 144.026 259.089 140.325 262.533C143.909 257.156 150.202 249.938 152.049 246.643C154.718 241.926 158.061 237.625 161.969 233.875C162.734 235.387 162.285 237.204 161.731 238.798C159.587 244.999 156.131 250.776 154.874 257.213C154.05 261.423 154.163 265.886 152.399 269.813C150.636 273.74 147.191 276.599 143.607 278.952Z" fill="#25233A"/>
<path d="M152.129 260.149L142.792 262.835C142.309 262.974 141.795 262.952 141.327 262.771L101.749 247.633C101.241 247.443 100.816 247.078 100.552 246.602C100.288 246.127 100.2 245.572 100.306 245.037L106.591 212.61C106.658 212.275 106.797 211.959 106.999 211.683C107.2 211.408 107.459 211.179 107.757 211.014C108.055 210.849 108.386 210.751 108.725 210.727C109.064 210.703 109.404 210.754 109.721 210.876L146.282 225.225C146.784 225.421 147.2 225.788 147.459 226.262C147.718 226.735 147.803 227.285 147.699 227.817L143.554 249.208C143.355 250.208 143.255 250.908 143.255 250.908L152.608 255.873C153.012 256.092 153.341 256.427 153.554 256.836C153.766 257.244 153.852 257.707 153.801 258.166C153.749 258.625 153.563 259.059 153.265 259.412C152.967 259.765 152.572 260.022 152.129 260.149Z" fill="#44A1A0"/>
<path d="M256.71 120.046L232.832 127.175L256.353 144.549L280.373 127.618L256.71 120.046Z" fill="url(#paint1_linear_410_843)"/>
<path d="M257.122 91.2675L233.096 108.203L256.622 125.575L280.647 108.645L257.122 91.2675Z" fill="url(#paint2_linear_410_843)"/>
<path d="M256.646 125.608L256.369 144.557L232.834 127.72L233.119 108.211L256.646 125.608Z" fill="url(#paint3_linear_410_843)"/>
<path d="M280.647 108.663L280.362 128.172L256.332 144.568L256.608 125.619L280.647 108.663Z" fill="url(#paint4_linear_410_843)"/>
<path d="M256.571 130.708L256.369 144.558L232.836 127.723L233.046 113.318L256.571 130.708Z" fill="url(#paint5_linear_410_843)"/>
<path d="M280.572 113.77L280.362 128.175L256.334 144.57L256.536 130.719L280.572 113.77Z" fill="url(#paint6_linear_410_843)"/>
<path opacity="0.5" d="M241.398 115.969L266.209 97.8293L271.573 101.795L247.46 118.827L247.181 137.976L241.139 133.666L241.398 115.969Z" fill="url(#paint7_linear_410_843)"/>
<path opacity="0.5" d="M272.916 115.755L247.849 97.8976L242.361 101.762L266.772 118.5L266.492 137.653L272.657 133.462L272.916 115.755Z" fill="url(#paint8_linear_410_843)"/>
<path d="M295.245 61.8866C294.99 61.6415 294.581 61.6694 294.358 61.9522L258.809 104.746L273.726 58.6907C273.841 58.3332 273.657 57.9622 273.33 57.8378C273.003 57.7239 272.636 57.9104 272.527 58.2576L256.89 106.579L242.662 57.9799C242.562 57.6309 242.207 57.4377 241.876 57.5453C241.536 57.6635 241.351 58.0309 241.46 58.3907L255.015 104.71L220.734 61.2676C220.519 60.9808 220.116 60.9454 219.844 61.1855C219.576 61.4203 219.54 61.8419 219.77 62.1289L256.07 108.138C256.188 108.292 256.366 108.378 256.545 108.38C256.655 108.381 256.755 108.35 256.855 108.298C256.865 108.288 256.865 108.288 256.865 108.288C256.87 108.288 256.87 108.288 256.87 108.298C256.964 108.352 257.073 108.385 257.183 108.386C257.352 108.387 257.532 108.304 257.654 108.153L295.301 62.8313C295.534 62.5486 295.511 62.1264 295.245 61.8866Z" fill="url(#paint9_linear_410_843)"/>
<path d="M257.733 26.0518C237.179 25.8598 220.067 42.4212 218.04 63.7057C222.931 62.2697 228.415 61.1133 234.318 60.2826C238.829 59.6497 243.576 59.2196 248.509 59.0073C251.364 58.8757 254.293 58.8294 257.255 58.857C260.223 58.8848 263.149 58.986 266 59.1707C270.926 59.4751 275.664 59.994 280.145 60.7107C286.027 61.6516 291.476 62.9099 296.314 64.4369C294.917 43.1203 278.286 26.2437 257.733 26.0518Z" fill="url(#paint10_linear_410_843)"/>
<path d="M295.867 63.0281C291.078 61.5227 285.698 60.2755 279.886 59.3511C275.454 58.6452 270.781 58.1271 265.915 57.8284C263.094 57.6438 260.212 57.5379 257.275 57.5104C254.342 57.483 251.458 57.5351 248.628 57.667C243.759 57.8747 239.067 58.3053 234.616 58.9282C228.788 59.7439 223.368 60.8902 218.538 62.3057C220.532 41.2791 237.442 24.9215 257.746 25.1112C278.051 25.3009 294.48 41.9698 295.867 63.0281Z" fill="url(#paint11_linear_410_843)"/>
<path d="M257.765 25.0883C253.51 25.0488 249.752 39.026 248.638 57.6719C243.766 57.8801 239.07 58.3114 234.616 58.9351C236.772 39.6074 246.414 24.983 257.765 25.0883Z" fill="url(#paint12_linear_410_843)"/>
<path d="M279.883 59.3656C275.448 58.6594 270.771 58.1412 265.902 57.8426C265.337 39.1811 261.984 25.138 257.729 25.0986C269.08 25.204 278.287 40.0033 279.883 59.3656Z" fill="url(#paint13_linear_410_843)"/>
<path d="M265.921 57.8395C263.098 57.6548 260.214 57.5488 257.273 57.5215C254.338 57.4942 251.451 57.5465 248.618 57.6786C249.733 39.03 253.491 25.0509 257.746 25.0905C262.003 25.1301 265.356 39.1752 265.921 57.8395Z" fill="url(#paint14_linear_410_843)"/>
<path d="M259.332 107.776C259.311 109.205 258.194 110.351 256.843 110.338C255.489 110.326 254.414 109.16 254.435 107.73C254.456 106.295 255.564 105.15 256.919 105.163C258.269 105.175 259.353 106.341 259.332 107.776Z" fill="url(#paint15_linear_410_843)"/>
<path d="M243.302 131.511C243.386 131.24 243.532 130.992 243.73 130.789C243.928 130.586 244.17 130.433 244.438 130.342C244.701 130.323 244.963 130.388 245.186 130.528C245.409 130.667 245.582 130.874 245.68 131.119C245.879 131.61 245.964 132.14 245.928 132.669L245.962 135.006C245.926 135.633 246.029 136.259 246.263 136.84C246.775 137.62 247.527 138.212 248.405 138.525L252.552 140.501C252.737 140.574 252.897 140.696 253.016 140.855C253.075 141.004 253.094 141.167 253.071 141.326C253.048 141.486 252.983 141.636 252.884 141.763C252.518 142.419 252.011 142.985 251.401 143.422L246.757 141.172C245.48 140.553 243.278 139.971 242.289 138.957C240.802 137.395 242.527 133.173 243.302 131.511Z" fill="url(#paint16_linear_410_843)"/>
<path d="M137.28 362.033C135.489 364.38 125.05 374.073 125.05 374.073L123.015 370.39L120.348 365.57C120.348 365.57 145.879 335.384 147.071 331.545C148.262 327.706 147.885 315.95 147.885 315.95L100.757 396.188L89.7709 394.887C89.7709 394.887 122.135 298.504 131.448 282.958L176.092 285.326C176.092 285.326 170.021 322.426 167.766 329.752C165.512 337.078 139.078 359.69 137.28 362.033Z" fill="#44A1A0"/>
<path d="M113.877 373.837L124.446 392.423C124.446 392.423 127.967 390.319 127.081 384.838C126.195 379.358 125.019 374.057 125.019 374.057L120.303 365.546L113.877 373.837ZM89.7936 394.899C89.7936 394.899 79.5664 401.828 78.7523 407.981C77.9382 414.134 85.5929 410.144 90.1041 407.696C93.9398 405.603 99.845 400.234 99.845 400.234L100.757 396.188L89.7936 394.899Z" fill="#3F3D56"/>
<path d="M157.649 331.25L123.015 370.39L120.348 365.57C120.348 365.57 145.879 335.384 147.071 331.545C148.262 327.706 147.886 315.95 147.886 315.95C147.886 315.95 156.071 310.686 156.715 313.083C157.36 315.48 157.649 331.25 157.649 331.25Z" fill="url(#paint17_linear_410_843)"/>
<path d="M139.132 283.368L92.0655 395.165L89.7776 394.929C89.7776 394.929 122.379 298.154 131.454 283L139.132 283.368Z" fill="url(#paint18_linear_410_843)"/>
<path d="M152.609 255.835L141.878 258.69L143.554 249.208C143.354 250.208 143.255 250.908 143.255 250.908L152.609 255.835Z" fill="url(#paint19_linear_410_843)"/>
<path d="M106.575 212.64L142.819 227.056C143.433 227.3 143.946 227.746 144.273 228.322C144.6 228.897 144.723 229.568 144.621 230.224L139.742 262.165L101.71 247.651L106.575 212.64Z" fill="url(#paint20_linear_410_843)"/>
<path d="M197.892 199.549C195.966 201.051 195.463 206.929 195.463 206.929C195.463 206.929 195.415 212.354 192.394 216.249C192.284 216.455 192.087 216.624 191.932 216.806C188.437 220.714 176.765 208.422 180.533 202.369C184.301 196.317 185.894 176.634 185.894 176.634C199.499 160.793 209.758 173.548 210.432 175.138C211.105 176.729 207.974 193.296 205.053 195.884C204.213 196.638 203.255 197.247 202.218 197.687C200.567 198.415 199.154 198.565 197.892 199.549Z" fill="url(#paint21_linear_410_843)"/>
<path d="M210.423 175.154C210.423 175.154 215.055 171.232 214.006 168.405C212.957 165.579 209.883 163.34 206.21 161.185C202.537 159.03 201.705 157.756 197.061 159.411C192.417 161.065 188.76 165.571 186.48 165.467C184.2 165.362 181.066 167.417 180.503 170.787C179.94 174.158 179.919 179.988 180.317 180.395C180.714 180.802 182.117 186.077 181.166 188.253C180.215 190.429 183.909 193.682 183.909 193.682L188.05 185.312C188.05 185.312 186.421 187.227 185.405 184.319C184.389 181.412 188.493 180.812 188.684 181.021C188.875 181.23 188.651 175.583 190.567 173.899C192.482 172.215 203.102 163.263 210.423 175.154Z" fill="#3F3D56"/>
<path d="M192.378 216.279C192.081 216.533 191.735 216.723 191.362 216.836C190.812 216.955 190.242 216.923 189.71 216.744C189.178 216.566 188.705 216.246 188.34 215.819C187.63 214.949 187.153 213.911 186.954 212.803C186.422 210.445 186.433 207.994 186.985 205.636C187.537 203.278 188.616 201.074 190.141 199.192C190.676 198.495 191.343 197.911 192.104 197.474C193.884 196.54 196.039 197.009 198.039 197.2C200.039 197.391 201.827 196.921 202.202 197.717C200.558 198.43 199.146 198.58 197.884 199.564C195.958 201.066 195.455 206.944 195.455 206.944C195.455 206.944 195.415 212.353 192.378 216.279Z" fill="url(#paint22_linear_410_843)"/>
<g opacity="0.6">
<path d="M331.408 235.213L322.937 237.115L330.684 243.752L339.445 238.433L331.408 235.213Z" fill="url(#paint23_linear_410_843)"/>
<path d="M332.256 225.182L323.494 230.502L331.242 237.138L340.005 231.82L332.256 225.182Z" fill="url(#paint24_linear_410_843)"/>
<path d="M331.25 237.151L330.69 243.755L322.924 237.305L323.502 230.506L331.25 237.151Z" fill="url(#paint25_linear_410_843)"/>
<path d="M340.005 231.827L339.427 238.626L330.675 243.759L331.236 237.155L340.005 231.827Z" fill="url(#paint26_linear_410_843)"/>
<path d="M331.099 238.928L330.689 243.755L322.925 237.306L323.352 232.286L331.099 238.928Z" fill="url(#paint27_linear_410_843)"/>
<path d="M339.853 233.607L339.427 238.627L330.676 243.76L331.086 238.932L339.853 233.607Z" fill="url(#paint28_linear_410_843)"/>
<path opacity="0.5" d="M326.188 233.415L335.254 227.693L337.02 229.208L328.224 234.561L327.658 241.234L325.664 239.583L326.188 233.415Z" fill="url(#paint29_linear_410_843)"/>
<path opacity="0.5" d="M337.145 234.112L328.872 227.268L326.871 228.482L334.942 234.919L334.376 241.594L336.621 240.283L337.145 234.112Z" fill="url(#paint30_linear_410_843)"/>
<path d="M346.222 215.864C346.139 215.772 345.996 215.772 345.912 215.865L332.512 229.924L338.823 214.222C338.872 214.1 338.817 213.967 338.706 213.915C338.596 213.867 338.464 213.924 338.417 214.042L331.8 230.517L328.047 213.215C328.021 213.09 327.902 213.014 327.785 213.044C327.664 213.077 327.591 213.2 327.62 213.328L331.194 229.819L320.348 213.825C320.28 213.72 320.141 213.698 320.04 213.775C319.942 213.85 319.919 213.996 319.992 214.102L331.477 231.04C331.514 231.097 331.574 231.131 331.636 231.136C331.674 231.139 331.709 231.131 331.746 231.116C331.749 231.112 331.749 231.112 331.749 231.112C331.751 231.112 331.751 231.112 331.751 231.116C331.782 231.137 331.819 231.151 331.857 231.154C331.916 231.159 331.981 231.134 332.027 231.084L346.218 216.195C346.306 216.102 346.308 215.954 346.222 215.864Z" fill="url(#paint31_linear_410_843)"/>
<path d="M334.065 202.443C326.929 201.873 320.577 207.232 319.351 214.607C321.086 214.226 323.019 213.957 325.091 213.811C326.674 213.701 328.334 213.667 330.053 213.714C331.048 213.738 332.067 213.793 333.095 213.875C334.126 213.958 335.14 214.064 336.126 214.199C337.83 214.425 339.463 214.722 341.003 215.082C343.024 215.554 344.886 216.126 346.53 216.777C346.567 209.307 341.202 203.013 334.065 202.443Z" fill="url(#paint32_linear_410_843)"/>
<path d="M346.409 216.275C344.782 215.633 342.943 215.066 340.946 214.601C339.424 214.247 337.813 213.952 336.129 213.728C335.154 213.595 334.155 213.487 333.135 213.406C332.117 213.325 331.113 213.272 330.127 213.249C328.43 213.202 326.789 213.238 325.228 213.346C323.183 213.488 321.271 213.755 319.558 214.131C320.766 206.845 327.043 201.552 334.093 202.115C341.143 202.678 346.443 208.895 346.409 216.275Z" fill="url(#paint33_linear_410_843)"/>
<path d="M334.1 202.106C332.623 201.989 330.974 206.773 330.13 213.251C328.432 213.204 326.79 213.24 325.227 213.349C326.45 206.658 330.159 201.792 334.1 202.106Z" fill="url(#paint34_linear_410_843)"/>
<path d="M340.945 214.607C339.421 214.253 337.809 213.957 336.124 213.734C336.385 207.21 335.564 202.228 334.087 202.11C338.028 202.425 340.865 207.813 340.945 214.607Z" fill="url(#paint35_linear_410_843)"/>
<path d="M336.131 213.733C335.155 213.599 334.155 213.492 333.134 213.41C332.115 213.329 331.11 213.277 330.123 213.253C330.967 206.774 332.616 201.989 334.094 202.107C335.572 202.225 336.393 207.207 336.131 213.733Z" fill="url(#paint36_linear_410_843)"/>
<path d="M332.62 230.995C332.578 231.493 332.161 231.866 331.692 231.828C331.222 231.791 330.877 231.358 330.919 230.859C330.962 230.359 331.375 229.987 331.845 230.024C332.314 230.062 332.662 230.495 332.62 230.995Z" fill="url(#paint37_linear_410_843)"/>
</g>
<g opacity="0.7">
<path opacity="0.7" d="M84.0003 158.905L76.6256 160.036L82.5853 166.748L90.5261 162.48L84.0003 158.905Z" fill="url(#paint38_linear_410_843)"/>
<path opacity="0.7" d="M85.659 149.692L77.7162 153.962L83.6773 160.674L91.6198 156.406L85.659 149.692Z" fill="url(#paint39_linear_410_843)"/>
<path opacity="0.7" d="M83.6843 160.685L82.5895 166.751L76.5965 160.21L77.7236 153.964L83.6843 160.685Z" fill="url(#paint40_linear_410_843)"/>
<path opacity="0.7" d="M91.62 156.413L90.4929 162.658L82.5769 166.755L83.6717 160.689L91.62 156.413Z" fill="url(#paint41_linear_410_843)"/>
<path opacity="0.7" d="M83.3896 162.318L82.5893 166.751L76.5972 160.211L77.4294 155.599L83.3896 162.318Z" fill="url(#paint42_linear_410_843)"/>
<path opacity="0.7" d="M91.3249 158.048L90.4926 162.659L82.5777 166.755L83.3779 162.321L91.3249 158.048Z" fill="url(#paint43_linear_410_843)"/>
<path opacity="0.7" d="M79.7327 156.855L87.9706 152.237L89.3294 153.769L81.3555 158.066L80.2492 164.196L78.7102 162.521L79.7327 156.855Z" fill="url(#paint44_linear_410_843)"/>
<path opacity="0.7" d="M88.9758 158.313L82.5889 151.37L80.7748 152.344L87.0293 158.896L85.9227 165.027L87.9527 163.981L88.9758 158.313Z" fill="url(#paint45_linear_410_843)"/>
<path opacity="0.7" d="M98.395 142.112C98.3333 142.021 98.2121 142.01 98.1316 142.09L85.4308 154.097L92.2631 140.045C92.3159 139.936 92.2818 139.808 92.1927 139.752C92.103 139.7 91.9858 139.742 91.9351 139.848L84.7706 154.592L83.2029 138.313C83.1924 138.196 83.0985 138.117 82.996 138.135C82.89 138.157 82.8163 138.265 82.829 138.386L84.3212 153.902L76.6046 138.306C76.5569 138.203 76.4408 138.172 76.3482 138.236C76.2573 138.299 76.2242 138.432 76.2762 138.535L84.4471 155.053C84.4732 155.108 84.5207 155.144 84.5732 155.153C84.6052 155.159 84.6361 155.154 84.6684 155.142C84.6719 155.139 84.6719 155.139 84.6719 155.139C84.6733 155.139 84.6733 155.139 84.6727 155.143C84.6973 155.164 84.7275 155.18 84.7596 155.186C84.809 155.195 84.8663 155.177 84.9101 155.134L98.3609 142.418C98.4443 142.338 98.4599 142.202 98.395 142.112Z" fill="url(#paint46_linear_410_843)"/>
<path opacity="0.7" d="M89.3222 128.799C83.3127 127.742 77.415 132.226 75.6828 138.956C77.1921 138.732 78.8603 138.626 80.6337 138.646C81.9887 138.661 83.402 138.753 84.8582 138.924C85.7015 139.02 86.5617 139.147 87.4279 139.299C88.2956 139.452 89.1473 139.626 89.9724 139.823C91.3987 140.159 92.7587 140.555 94.0328 141.002C95.7054 141.589 97.2341 142.256 98.5694 142.98C99.3002 136.075 95.3318 129.856 89.3222 128.799Z" fill="url(#paint47_linear_410_843)"/>
<path opacity="0.7" d="M98.5135 142.507C97.1916 141.792 95.6826 141.131 94.0296 140.553C92.7693 140.112 91.4283 139.72 90.0191 139.388C89.2028 139.193 88.3644 139.019 87.5055 138.868C86.648 138.717 85.8006 138.594 84.9646 138.5C83.5276 138.331 82.1303 138.241 80.7933 138.226C79.0427 138.205 77.3941 138.31 75.9034 138.531C77.612 131.882 83.4396 127.454 89.3763 128.498C95.3131 129.542 99.2337 135.685 98.5135 142.507Z" fill="url(#paint48_linear_410_843)"/>
<path opacity="0.7" d="M89.3837 128.49C88.1394 128.271 86.2911 132.573 84.9671 138.502C83.5289 138.333 82.1305 138.244 80.7923 138.228C82.4579 132.131 86.0646 127.906 89.3837 128.49Z" fill="url(#paint49_linear_410_843)"/>
<path opacity="0.7" d="M94.0279 140.56C92.7666 140.119 91.4244 139.726 90.0141 139.394C90.847 133.38 90.6162 128.712 89.3718 128.493C92.691 129.077 94.5962 134.27 94.0279 140.56Z" fill="url(#paint50_linear_410_843)"/>
<path opacity="0.7" d="M90.0202 139.393C89.2031 139.197 88.3638 139.024 87.504 138.872C86.6456 138.722 85.7973 138.599 84.9604 138.504C86.2844 132.575 88.133 128.272 89.3776 128.49C90.6222 128.709 90.8532 133.378 90.0202 139.393Z" fill="url(#paint51_linear_410_843)"/>
<path opacity="0.7" d="M85.4233 155.095C85.3407 155.553 84.952 155.866 84.5573 155.797C84.1611 155.727 83.9089 155.301 83.9915 154.843C84.0744 154.384 84.4601 154.07 84.8563 154.14C85.2511 154.209 85.5062 154.636 85.4233 155.095Z" fill="url(#paint52_linear_410_843)"/>
</g>
<path d="M278.829 250.557C277.648 258.432 282.914 266.695 290.502 268.858C296.884 270.677 303.654 268.505 310.29 268.022C321.897 267.161 333.293 271.611 344.926 271.51C352.628 271.433 360.191 269.382 366.898 265.554C370.774 263.337 374.453 260.503 378.818 259.616C382.477 258.869 386.399 259.565 389.897 258.232C395.841 255.974 398.336 248.01 395.736 242.224C393.135 236.438 386.613 233.088 380.264 232.988C374.098 232.926 367.908 235.497 361.896 234.16C355.175 232.669 350.217 226.616 343.528 224.966C333.731 222.56 324.514 230.149 317.209 237.18C316.219 234.911 314.572 232.995 312.482 231.678C310.391 230.362 307.953 229.706 305.48 229.795C300.408 230.068 295.695 234.657 291.226 236.91C285.278 239.998 279.962 243.231 278.829 250.557Z" fill="#44A1A0"/>
<path d="M278.829 250.557C277.648 258.432 282.914 266.695 290.502 268.858C296.884 270.677 303.654 268.505 310.29 268.022C321.897 267.161 333.293 271.611 344.926 271.51C352.628 271.433 360.191 269.382 366.898 265.554C370.774 263.337 374.453 260.503 378.818 259.616C382.477 258.869 386.399 259.565 389.897 258.232C395.841 255.974 398.336 248.01 395.736 242.224C393.135 236.438 386.613 233.088 380.264 232.988C374.098 232.926 367.908 235.497 361.896 234.16C355.175 232.669 350.217 226.616 343.528 224.966C333.731 222.56 324.514 230.149 317.209 237.18C316.219 234.911 314.572 232.995 312.482 231.678C310.391 230.362 307.953 229.706 305.48 229.795C300.408 230.068 295.695 234.657 291.226 236.91C285.278 239.998 279.962 243.231 278.829 250.557Z" fill="url(#paint53_linear_410_843)"/>
<path d="M10.4504 117.444C8.59335 125.189 13.1227 133.882 20.5005 136.698C26.6984 139.066 33.6197 137.482 40.279 137.586C51.9032 137.738 62.8671 143.156 74.4607 144.076C82.1396 144.669 89.8514 143.284 96.8642 140.051C100.916 138.187 104.816 135.674 109.248 135.171C112.956 134.753 116.802 135.787 120.4 134.764C126.506 133.031 129.688 125.302 127.599 119.318C125.509 113.333 119.295 109.41 112.99 108.767C106.855 108.16 100.469 110.183 94.5973 108.337C88.0241 106.265 83.6107 99.7933 77.1003 97.5759C67.5529 94.3173 57.718 101.087 49.8351 107.451C49.044 105.105 47.5695 103.053 45.6015 101.561C43.6336 100.069 41.2624 99.2045 38.7938 99.0789C33.7192 98.9091 28.629 103.064 23.9834 104.929C17.7853 107.481 12.2282 110.284 10.4504 117.444Z" fill="#44A1A0"/>
<path d="M10.4504 117.444C8.59335 125.189 13.1227 133.882 20.5005 136.698C26.6984 139.066 33.6197 137.482 40.279 137.586C51.9032 137.738 62.8671 143.156 74.4607 144.076C82.1396 144.669 89.8514 143.284 96.8642 140.051C100.916 138.187 104.816 135.674 109.248 135.171C112.956 134.753 116.802 135.787 120.4 134.764C126.506 133.031 129.688 125.302 127.599 119.318C125.509 113.333 119.295 109.41 112.99 108.767C106.855 108.16 100.469 110.183 94.5973 108.337C88.0241 106.265 83.6107 99.7933 77.1003 97.5759C67.5529 94.3173 57.718 101.087 49.8351 107.451C49.044 105.105 47.5695 103.053 45.6015 101.561C43.6336 100.069 41.2624 99.2045 38.7938 99.0789C33.7192 98.9091 28.629 103.064 23.9834 104.929C17.7853 107.481 12.2282 110.284 10.4504 117.444Z" fill="url(#paint54_linear_410_843)"/>
<path d="M114.254 254.212C114.943 254.78 115.72 255.229 116.556 255.541L120.942 257.488C121.499 257.758 122.087 257.955 122.694 258.076C123.249 258.151 123.815 258.088 124.342 257.894C124.869 257.7 125.341 257.379 125.718 256.961C125.835 256.841 125.916 256.69 125.949 256.526C126.036 256.014 125.405 255.718 124.864 255.764C124.324 255.81 123.836 256.07 123.336 255.931C123.083 255.824 122.856 255.667 122.667 255.468L120.599 253.588C120.489 253.472 120.355 253.381 120.206 253.321C119.638 253.127 119.203 253.835 119.007 254.406C118.96 254.105 118.847 253.818 118.676 253.567C118.505 253.315 118.28 253.105 118.018 252.952C117.748 252.811 117.433 252.783 117.141 252.873C116.849 252.963 116.603 253.165 116.458 253.435L115.922 252.172C115.845 252.004 115.727 251.804 115.539 251.812C115.44 251.831 115.35 251.884 115.284 251.961L114.532 252.608C114.729 252.439 113.738 251.208 113.249 251.927C112.855 252.559 113.883 253.868 114.254 254.212Z" fill="url(#paint55_linear_410_843)"/>
</g>
</g>
<defs>
<linearGradient id="paint0_linear_410_843" x1="306.155" y1="157.339" x2="298.776" y2="199.68" gradientUnits="userSpaceOnUse">
<stop stop-color="white" stop-opacity="0"/>
<stop offset="0.06" stop-color="white" stop-opacity="0.13"/>
<stop offset="0.16" stop-color="white" stop-opacity="0.33"/>
<stop offset="0.26" stop-color="white" stop-opacity="0.51"/>
<stop offset="0.37" stop-color="white" stop-opacity="0.66"/>
<stop offset="0.48" stop-color="white" stop-opacity="0.79"/>
<stop offset="0.59" stop-color="white" stop-opacity="0.88"/>
<stop offset="0.71" stop-color="white" stop-opacity="0.95"/>
<stop offset="0.84" stop-color="white" stop-opacity="0.99"/>
<stop offset="1" stop-color="white"/>
</linearGradient>
<linearGradient id="paint1_linear_410_843" x1="256.404" y1="141.048" x2="256.669" y2="112.715" gradientUnits="userSpaceOnUse">
<stop offset="0.037" stop-color="#D4C95E"/>
<stop offset="1" stop-color="#FF9444"/>
</linearGradient>
<linearGradient id="paint2_linear_410_843" x1="256.661" y1="122.902" x2="256.965" y2="90.1331" gradientUnits="userSpaceOnUse">
<stop offset="0.037" stop-color="#D4C95E"/>
<stop offset="1" stop-color="#FF9444"/>
</linearGradient>
<linearGradient id="paint3_linear_410_843" x1="237.779" y1="125.456" x2="275.019" y2="130.114" gradientUnits="userSpaceOnUse">
<stop offset="0.037" stop-color="#D4C95E"/>
<stop offset="1" stop-color="#FF9444"/>
</linearGradient>
<linearGradient id="paint4_linear_410_843" x1="305.33" y1="126.958" x2="342.608" y2="127.502" gradientUnits="userSpaceOnUse">
<stop offset="0.037" stop-color="#D4C95E"/>
<stop offset="1" stop-color="#FF9444"/>
</linearGradient>
<linearGradient id="paint5_linear_410_843" x1="237.884" y1="128.029" x2="274.365" y2="132.592" gradientUnits="userSpaceOnUse">
<stop offset="0.037" stop-color="#D4C95E"/>
<stop offset="1" stop-color="#FF9444"/>
</linearGradient>
<linearGradient id="paint6_linear_410_843" x1="305.289" y1="129.511" x2="342.563" y2="130.056" gradientUnits="userSpaceOnUse">
<stop offset="0.037" stop-color="#D4C95E"/>
<stop offset="1" stop-color="#FF9444"/>
</linearGradient>
<linearGradient id="paint7_linear_410_843" x1="302.759" y1="118.33" x2="349.715" y2="119.016" gradientUnits="userSpaceOnUse">
<stop offset="0.213" stop-color="#F9EDAB"/>
<stop offset="1" stop-color="#F9ED97"/>
</linearGradient>
<linearGradient id="paint8_linear_410_843" x1="209.876" y1="117.337" x2="161.68" y2="116.633" gradientUnits="userSpaceOnUse">
<stop offset="0.213" stop-color="#F9EDAB"/>
<stop offset="1" stop-color="#F9ED97"/>
</linearGradient>
<linearGradient id="paint9_linear_410_843" x1="256.65" y1="123.087" x2="256.874" y2="98.9312" gradientUnits="userSpaceOnUse">
<stop offset="0.213" stop-color="#55C541"/>
<stop offset="1" stop-color="#009444"/>
</linearGradient>
<linearGradient id="paint10_linear_410_843" x1="257.702" y1="27.9978" x2="257.182" y2="83.7071" gradientUnits="userSpaceOnUse">
<stop offset="0.213" stop-color="#55C541"/>
<stop offset="1" stop-color="#009444"/>
</linearGradient>
<linearGradient id="paint11_linear_410_843" x1="257.724" y1="26.7816" x2="257.277" y2="74.6009" gradientUnits="userSpaceOnUse">
<stop offset="0.213" stop-color="#55C541"/>
<stop offset="1" stop-color="#009444"/>
</linearGradient>
<linearGradient id="paint12_linear_410_843" x1="245.812" y1="67.8916" x2="246.284" y2="17.011" gradientUnits="userSpaceOnUse">
<stop offset="0.213" stop-color="#F9EDAB"/>
<stop offset="1" stop-color="#F9ED97"/>
</linearGradient>
<linearGradient id="paint13_linear_410_843" x1="268.428" y1="68.1121" x2="268.9" y2="17.2316" gradientUnits="userSpaceOnUse">
<stop offset="0.213" stop-color="#F9EDAB"/>
<stop offset="1" stop-color="#F9ED97"/>
</linearGradient>
<linearGradient id="paint14_linear_410_843" x1="257.661" y1="30.9427" x2="257.259" y2="74.2521" gradientUnits="userSpaceOnUse">
<stop offset="0.213" stop-color="#55C541"/>
<stop offset="1" stop-color="#009444"/>
</linearGradient>
<linearGradient id="paint15_linear_410_843" x1="257.02" y1="98.4014" x2="256.917" y2="109.579" gradientUnits="userSpaceOnUse">
<stop offset="0.213" stop-color="#55C541"/>
<stop offset="1" stop-color="#009444"/>
</linearGradient>
<linearGradient id="paint16_linear_410_843" x1="242.018" y1="133.911" x2="253.748" y2="140.137" gradientUnits="userSpaceOnUse">
<stop stop-color="#ECC4D7"/>
<stop offset="0.42" stop-color="#EFD4D1"/>
<stop offset="1" stop-color="#F2EAC9"/>
</linearGradient>
<linearGradient id="paint17_linear_410_843" x1="173.88" y1="343.35" x2="-7.64556" y2="332.292" gradientUnits="userSpaceOnUse">
<stop stop-opacity="0.07"/>
<stop offset="0.08" stop-opacity="0.25"/>
<stop offset="1"/>
</linearGradient>
<linearGradient id="paint18_linear_410_843" x1="92.7833" y1="331.377" x2="251.251" y2="388.376" gradientUnits="userSpaceOnUse">
<stop stop-opacity="0.07"/>
<stop offset="0.08" stop-opacity="0.25"/>
<stop offset="1"/>
</linearGradient>
<linearGradient id="paint19_linear_410_843" x1="153.309" y1="251.509" x2="100.969" y2="263.288" gradientUnits="userSpaceOnUse">
<stop stop-opacity="0.07"/>
<stop offset="0.08" stop-opacity="0.25"/>
<stop offset="1"/>
</linearGradient>
<linearGradient id="paint20_linear_410_843" x1="119.281" y1="251.342" x2="102.1" y2="313.644" gradientUnits="userSpaceOnUse">
<stop stop-opacity="0.07"/>
<stop offset="0.52" stop-opacity="0.83"/>
<stop offset="0.56" stop-opacity="0.87"/>
<stop offset="1"/>
</linearGradient>
<linearGradient id="paint21_linear_410_843" x1="181.198" y1="185.481" x2="204.322" y2="197.756" gradientUnits="userSpaceOnUse">
<stop stop-color="#ECC4D7"/>
<stop offset="0.42" stop-color="#EFD4D1"/>
<stop offset="1" stop-color="#F2EAC9"/>
</linearGradient>
<linearGradient id="paint22_linear_410_843" x1="193.299" y1="190.75" x2="199.667" y2="262.831" gradientUnits="userSpaceOnUse">
<stop stop-color="#ECC4D7"/>
<stop offset="0.42" stop-color="#EFD4D1"/>
<stop offset="1" stop-color="#F2EAC9"/>
</linearGradient>
<linearGradient id="paint23_linear_410_843" x1="330.788" y1="242.532" x2="331.576" y2="232.655" gradientUnits="userSpaceOnUse">
<stop offset="0.037" stop-color="#D4C95E"/>
<stop offset="1" stop-color="#FF9444"/>
</linearGradient>
<linearGradient id="paint24_linear_410_843" x1="331.321" y1="236.207" x2="332.232" y2="224.783" gradientUnits="userSpaceOnUse">
<stop offset="0.037" stop-color="#D4C95E"/>
<stop offset="1" stop-color="#FF9444"/>
</linearGradient>
<linearGradient id="paint25_linear_410_843" x1="324.698" y1="236.636" x2="337.527" y2="239.157" gradientUnits="userSpaceOnUse">
<stop offset="0.037" stop-color="#D4C95E"/>
<stop offset="1" stop-color="#FF9444"/>
</linearGradient>
<linearGradient id="paint26_linear_410_843" x1="348.133" y1="238.814" x2="361.073" y2="239.912" gradientUnits="userSpaceOnUse">
<stop offset="0.037" stop-color="#D4C95E"/>
<stop offset="1" stop-color="#FF9444"/>
</linearGradient>
<linearGradient id="paint27_linear_410_843" x1="324.672" y1="237.536" x2="337.239" y2="240.006" gradientUnits="userSpaceOnUse">
<stop offset="0.037" stop-color="#D4C95E"/>
<stop offset="1" stop-color="#FF9444"/>
</linearGradient>
<linearGradient id="paint28_linear_410_843" x1="348.056" y1="239.704" x2="360.994" y2="240.802" gradientUnits="userSpaceOnUse">
<stop offset="0.037" stop-color="#D4C95E"/>
<stop offset="1" stop-color="#FF9444"/>
</linearGradient>
<linearGradient id="paint29_linear_410_843" x1="347.451" y1="235.74" x2="363.75" y2="237.123" gradientUnits="userSpaceOnUse">
<stop offset="0.213" stop-color="#F9EDAB"/>
<stop offset="1" stop-color="#F9ED97"/>
</linearGradient>
<linearGradient id="paint30_linear_410_843" x1="315.202" y1="233.121" x2="298.472" y2="231.701" gradientUnits="userSpaceOnUse">
<stop offset="0.213" stop-color="#F9EDAB"/>
<stop offset="1" stop-color="#F9ED97"/>
</linearGradient>
<linearGradient id="paint31_linear_410_843" x1="331.312" y1="236.27" x2="331.984" y2="227.848" gradientUnits="userSpaceOnUse">
<stop offset="0.213" stop-color="#55C541"/>
<stop offset="1" stop-color="#009444"/>
</linearGradient>
<linearGradient id="paint32_linear_410_843" x1="334.007" y1="203.121" x2="332.456" y2="222.542" gradientUnits="userSpaceOnUse">
<stop offset="0.213" stop-color="#55C541"/>
<stop offset="1" stop-color="#009444"/>
</linearGradient>
<linearGradient id="paint33_linear_410_843" x1="334.044" y1="202.698" x2="332.713" y2="219.368" gradientUnits="userSpaceOnUse">
<stop offset="0.213" stop-color="#55C541"/>
<stop offset="1" stop-color="#009444"/>
</linearGradient>
<linearGradient id="paint34_linear_410_843" x1="328.898" y1="216.747" x2="330.313" y2="199.008" gradientUnits="userSpaceOnUse">
<stop offset="0.213" stop-color="#F9EDAB"/>
<stop offset="1" stop-color="#F9ED97"/>
</linearGradient>
<linearGradient id="paint35_linear_410_843" x1="336.75" y1="217.379" x2="338.165" y2="199.639" gradientUnits="userSpaceOnUse">
<stop offset="0.213" stop-color="#F9EDAB"/>
<stop offset="1" stop-color="#F9ED97"/>
</linearGradient>
<linearGradient id="paint36_linear_410_843" x1="333.921" y1="204.147" x2="332.716" y2="219.247" gradientUnits="userSpaceOnUse">
<stop offset="0.213" stop-color="#55C541"/>
<stop offset="1" stop-color="#009444"/>
</linearGradient>
<linearGradient id="paint37_linear_410_843" x1="332.046" y1="227.668" x2="331.736" y2="231.565" gradientUnits="userSpaceOnUse">
<stop offset="0.213" stop-color="#55C541"/>
<stop offset="1" stop-color="#009444"/>
</linearGradient>
<linearGradient id="paint38_linear_410_843" x1="82.7875" y1="165.627" x2="84.3834" y2="156.552" gradientUnits="userSpaceOnUse">
<stop offset="0.037" stop-color="#D4C95E"/>
<stop offset="1" stop-color="#FF9444"/>
</linearGradient>
<linearGradient id="paint39_linear_410_843" x1="83.8317" y1="159.818" x2="85.677" y2="149.321" gradientUnits="userSpaceOnUse">
<stop offset="0.037" stop-color="#D4C95E"/>
<stop offset="1" stop-color="#FF9444"/>
</linearGradient>
<linearGradient id="paint40_linear_410_843" x1="78.1659" y1="159.723" x2="88.8898" y2="162.793" gradientUnits="userSpaceOnUse">
<stop offset="0.037" stop-color="#D4C95E"/>
<stop offset="1" stop-color="#FF9444"/>
</linearGradient>
<linearGradient id="paint41_linear_410_843" x1="97.8711" y1="163.477" x2="108.764" y2="165.443" gradientUnits="userSpaceOnUse">
<stop offset="0.037" stop-color="#D4C95E"/>
<stop offset="1" stop-color="#FF9444"/>
</linearGradient>
<linearGradient id="paint42_linear_410_843" x1="78.0594" y1="160.553" x2="88.5643" y2="163.561" gradientUnits="userSpaceOnUse">
<stop offset="0.037" stop-color="#D4C95E"/>
<stop offset="1" stop-color="#FF9444"/>
</linearGradient>
<linearGradient id="paint43_linear_410_843" x1="97.7224" y1="164.295" x2="108.613" y2="166.26" gradientUnits="userSpaceOnUse">
<stop offset="0.037" stop-color="#D4C95E"/>
<stop offset="1" stop-color="#FF9444"/>
</linearGradient>
<linearGradient id="paint44_linear_410_843" x1="97.5794" y1="160.584" x2="111.3" y2="163.06" gradientUnits="userSpaceOnUse">
<stop offset="0.213" stop-color="#F9EDAB"/>
<stop offset="1" stop-color="#F9ED97"/>
</linearGradient>
<linearGradient id="paint45_linear_410_843" x1="70.4267" y1="155.768" x2="56.3441" y2="153.226" gradientUnits="userSpaceOnUse">
<stop offset="0.213" stop-color="#F9EDAB"/>
<stop offset="1" stop-color="#F9ED97"/>
</linearGradient>
<linearGradient id="paint46_linear_410_843" x1="83.8171" y1="159.876" x2="85.1774" y2="152.138" gradientUnits="userSpaceOnUse">
<stop offset="0.213" stop-color="#55C541"/>
<stop offset="1" stop-color="#009444"/>
</linearGradient>
<linearGradient id="paint47_linear_410_843" x1="89.2091" y1="129.422" x2="86.0712" y2="147.266" gradientUnits="userSpaceOnUse">
<stop offset="0.213" stop-color="#55C541"/>
<stop offset="1" stop-color="#009444"/>
</linearGradient>
<linearGradient id="paint48_linear_410_843" x1="89.2806" y1="129.033" x2="86.5871" y2="144.349" gradientUnits="userSpaceOnUse">
<stop offset="0.213" stop-color="#55C541"/>
<stop offset="1" stop-color="#009444"/>
</linearGradient>
<linearGradient id="paint49_linear_410_843" x1="83.5928" y1="141.644" x2="86.458" y2="125.343" gradientUnits="userSpaceOnUse">
<stop offset="0.213" stop-color="#F9EDAB"/>
<stop offset="1" stop-color="#F9ED97"/>
</linearGradient>
<linearGradient id="paint50_linear_410_843" x1="90.2046" y1="142.811" x2="93.0698" y2="126.511" gradientUnits="userSpaceOnUse">
<stop offset="0.213" stop-color="#F9EDAB"/>
<stop offset="1" stop-color="#F9ED97"/>
</linearGradient>
<linearGradient id="paint51_linear_410_843" x1="89.0395" y1="130.364" x2="86.6002" y2="144.239" gradientUnits="userSpaceOnUse">
<stop offset="0.213" stop-color="#55C541"/>
<stop offset="1" stop-color="#009444"/>
</linearGradient>
<linearGradient id="paint52_linear_410_843" x1="85.2477" y1="151.976" x2="84.6183" y2="155.556" gradientUnits="userSpaceOnUse">
<stop offset="0.213" stop-color="#55C541"/>
<stop offset="1" stop-color="#009444"/>
</linearGradient>
<linearGradient id="paint53_linear_410_843" x1="340.947" y1="222.207" x2="333.029" y2="292.213" gradientUnits="userSpaceOnUse">
<stop offset="0.02" stop-color="white" stop-opacity="0"/>
<stop offset="0.06" stop-color="white" stop-opacity="0.13"/>
<stop offset="0.13" stop-color="white" stop-opacity="0.33"/>
<stop offset="0.2" stop-color="white" stop-opacity="0.51"/>
<stop offset="0.27" stop-color="white" stop-opacity="0.66"/>
<stop offset="0.35" stop-color="white" stop-opacity="0.79"/>
<stop offset="0.43" stop-color="white" stop-opacity="0.88"/>
<stop offset="0.51" stop-color="white" stop-opacity="0.95"/>
<stop offset="0.6" stop-color="white" stop-opacity="0.99"/>
<stop offset="0.71" stop-color="white"/>
</linearGradient>
<linearGradient id="paint54_linear_410_843" x1="69.2828" y1="91.8621" x2="69.2943" y2="156.022" gradientUnits="userSpaceOnUse">
<stop stop-color="white" stop-opacity="0"/>
<stop offset="0.06" stop-color="white" stop-opacity="0.13"/>
<stop offset="0.16" stop-color="white" stop-opacity="0.33"/>
<stop offset="0.26" stop-color="white" stop-opacity="0.51"/>
<stop offset="0.37" stop-color="white" stop-opacity="0.66"/>
<stop offset="0.48" stop-color="white" stop-opacity="0.79"/>
<stop offset="0.59" stop-color="white" stop-opacity="0.88"/>
<stop offset="0.71" stop-color="white" stop-opacity="0.95"/>
<stop offset="0.84" stop-color="white" stop-opacity="0.99"/>
<stop offset="1" stop-color="white"/>
</linearGradient>
<linearGradient id="paint55_linear_410_843" x1="113.398" y1="251.683" x2="125.233" y2="257.966" gradientUnits="userSpaceOnUse">
<stop stop-color="#ECC4D7"/>
<stop offset="0.42" stop-color="#EFD4D1"/>
<stop offset="1" stop-color="#F2EAC9"/>
</linearGradient>
<clipPath id="clip0_410_843">
<rect width="429" height="420" fill="white"/>
</clipPath>
<clipPath id="clip1_410_843">
<rect width="444.783" height="515.186" fill="white" transform="translate(140.557 -140) rotate(27.9612)"/>
</clipPath>
</defs>
</svg>
