<svg width="319" height="202" viewBox="0 0 319 202" fill="none" xmlns="http://www.w3.org/2000/svg">
<g clip-path="url(#clip0_415_877)">
<path opacity="0.18" d="M50.8513 42.2948C41.4247 44.0407 31.6262 45.9355 24.0585 51.1496C17.6682 55.5483 7.71097 63.6689 4.69397 70.2669C-8.08663 98.1375 6.3632 132.051 34.4108 149.395C47.6019 157.553 64.0424 161.502 75.8974 171.104C83.3954 177.178 88.647 185.217 96.6252 190.8C108.283 198.951 124.022 200.755 138.917 201.628C149.266 202.24 160.017 202.504 169.618 199.066C176.558 196.583 182.437 192.323 188.208 188.124L226.437 160.233C232.58 155.757 238.323 148.627 246.321 148.675C318.303 149.125 323.156 75.1156 212.681 42.3354C202.944 39.4458 196.267 31.4132 187.12 27.2954C168.224 18.7856 146.477 21.5433 127.419 27.4307C103.221 34.9253 75.9633 37.6288 50.8513 42.2948Z" fill="#44A1A0"/>
<path opacity="0.05" d="M301.727 161.688C304.74 161.732 308.621 162.388 309.085 164.987C309.337 166.34 308.45 167.657 307.49 168.75C301.483 175.608 291.529 179.076 281.708 180.007C271.886 180.937 261.987 179.635 252.181 178.579C238.011 177.049 223.785 176.034 209.501 175.534C199.346 175.175 188.665 174.952 179.92 170.431C178.297 169.595 176.702 168.55 175.923 167.048C174.374 164.06 176.822 160.423 180.183 158.971C183.545 157.519 187.495 157.662 191.244 157.837C228.06 159.57 264.849 161.688 301.727 161.688Z" fill="#000405"/>
<path d="M301.855 42.7685C301.855 42.7685 288.753 57.5717 286.266 60.0518C281.731 64.5588 278.807 70.4699 278.807 70.4699L272.223 94.9468L264.864 93.2313L248.865 89.5093C248.865 89.5093 254.551 76.1306 251.797 72.0703C248.126 66.6566 251.302 63.273 252.138 60.9485C253.687 56.6412 245.775 48.7676 245.775 48.7676L240.705 28.9296L248.358 28.0364L253.912 44.1186L263.428 51.5388L270.205 51.8534C270.205 51.8534 275.317 52.7738 279.035 51.2715C282.591 49.83 295.151 37.4563 295.151 37.4563L300.274 41.5166L301.855 42.7685ZM239.086 67.8713V156.034C239.086 157.139 238.836 158.232 238.352 159.253C237.868 160.273 237.158 161.2 236.264 161.981C235.369 162.762 234.308 163.381 233.139 163.803C231.971 164.226 230.719 164.443 229.454 164.442H78.531C77.2663 164.442 76.014 164.225 74.8456 163.802C73.6772 163.379 72.6157 162.759 71.7216 161.977C70.8275 161.196 70.1183 160.268 69.6347 159.247C69.1511 158.226 68.9024 157.132 68.9029 156.027V67.8713C68.9019 66.7663 69.1502 65.6719 69.6337 64.6508C70.1171 63.6296 70.8262 62.7018 71.7204 61.9202C72.6146 61.1387 73.6764 60.5188 74.845 60.0961C76.0136 59.6733 77.2662 59.4559 78.531 59.4563H229.454C230.719 59.4563 231.972 59.674 233.14 60.0969C234.309 60.5198 235.371 61.1396 236.265 61.921C237.16 62.7024 237.869 63.6301 238.353 64.651C238.837 65.672 239.086 66.7662 239.086 67.8713Z" fill="#44A1A0"/>
<path d="M236.476 62.1463H71.2538L72.5938 61.2497C72.6557 61.2028 72.7204 61.1587 72.7875 61.1177L151.384 8.48266L153.867 6.82132L233.831 60.3767L236.476 62.1463Z" fill="#44A1A0"/>
<path d="M239.086 67.8713L237.076 69.1402L222.441 78.4011L151.384 123.366L83.0468 77.386L68.903 67.8713L69.085 66.2371C69.4295 64.7049 70.2587 63.2877 71.4784 62.1463C71.8208 61.8207 72.1939 61.5207 72.5938 61.2497C72.6557 61.2028 72.7204 61.1587 72.7875 61.1177C74.4464 60.0365 76.4614 59.4537 78.531 59.4564H229.454C231.848 59.4575 234.155 60.2365 235.926 61.6419C237.698 63.0473 238.808 64.9784 239.04 67.0593C239.071 67.3291 239.087 67.6001 239.086 67.8713Z" fill="#44A1A0"/>
<path opacity="0.61" d="M72.5938 61.2429C72.1958 61.5158 71.8229 61.8156 71.4784 62.1395H71.2538L72.5938 61.2429Z" fill="url(#paint0_linear_415_877)"/>
<path opacity="0.61" d="M239.086 67.8713L237.076 69.1436L222.441 78.4011L151.384 123.366L83.0468 77.3894L68.903 67.8713L69.085 66.2404C69.4296 64.7073 70.2587 63.289 71.4784 62.1463C71.8228 61.8224 72.1958 61.5226 72.5938 61.2497L72.7875 61.1211L151.384 8.48266L153.867 6.82132L233.831 60.3767C235.273 61.0182 236.506 61.9673 237.417 63.136C238.327 64.3047 238.886 65.6553 239.04 67.0627C239.071 67.3314 239.087 67.6013 239.086 67.8713Z" fill="url(#paint1_linear_415_877)"/>
<path d="M222.441 61.3579V78.4044L196.217 94.984L190.202 98.8006L151.384 123.365L114.874 98.8006L109.224 94.9975L83.0468 77.4029V61.3579C83.0468 60.0325 83.6495 58.7613 84.7222 57.8241C85.795 56.8869 87.25 56.3604 88.7671 56.3604H216.724C218.241 56.3612 219.695 56.8882 220.767 57.8253C221.838 58.7624 222.441 60.0331 222.441 61.3579Z" fill="white"/>
<path d="M203.223 76.3032H99.8165C99.2393 76.3032 98.6856 76.1029 98.2775 75.7462C97.8693 75.3896 97.64 74.906 97.64 74.4016C97.64 74.1519 97.6963 73.9046 97.8056 73.6739C97.915 73.4432 98.0753 73.2336 98.2775 73.057C98.4796 72.8804 98.7195 72.7404 98.9836 72.6448C99.2477 72.5492 99.5307 72.5001 99.8165 72.5001H203.223C203.509 72.5001 203.792 72.5492 204.056 72.6448C204.32 72.7404 204.56 72.8804 204.762 73.057C204.964 73.2336 205.125 73.4432 205.234 73.6739C205.344 73.9046 205.4 74.1519 205.4 74.4016C205.4 74.906 205.17 75.3896 204.762 75.7462C204.354 76.1029 203.8 76.3032 203.223 76.3032Z" fill="url(#paint2_linear_415_877)"/>
<path d="M203.223 87.5536H99.8165C99.2393 87.5536 98.6856 87.3533 98.2775 86.9967C97.8693 86.6401 97.64 86.1564 97.64 85.6521C97.64 85.1477 97.8693 84.6641 98.2775 84.3074C98.6856 83.9508 99.2393 83.7505 99.8165 83.7505H203.223C203.8 83.7505 204.354 83.9508 204.762 84.3074C205.17 84.6641 205.4 85.1477 205.4 85.6521C205.4 86.1564 205.17 86.6401 204.762 86.9967C204.354 87.3533 203.8 87.5536 203.223 87.5536Z" fill="url(#paint3_linear_415_877)"/>
<path d="M196.217 94.9976L190.202 98.8007H114.874L109.22 94.9976H196.217Z" fill="url(#paint4_linear_415_877)"/>
<path opacity="0.05" d="M151.384 123.365L88.3101 164.449H215.76L151.384 123.365Z" fill="#000405"/>
<path d="M96.9777 30.5199C93.8019 24.5682 81.8733 25.5461 81.8733 25.5461C89.2319 21.7531 87.8221 12.12 87.7331 11.5516C90.9514 19.9496 102.063 18.0954 103.058 17.9127C95.6803 19.503 96.9777 30.5199 96.9777 30.5199ZM76.2963 42.7313C74.2786 38.9485 66.6915 39.571 66.6915 39.571C71.4939 37.0773 70.4056 30.6587 70.4056 30.6587V30.6959C72.466 36.0047 79.5147 34.8272 80.1421 34.7122C75.4714 35.7273 76.2963 42.7313 76.2963 42.7313Z" fill="#44A1A0"/>
<path d="M279.454 31.3658C280.389 30.7091 281.572 30.3831 282.769 30.4522C283.645 30.4211 284.502 30.6797 285.17 31.1763C285.684 31.681 286.011 32.3097 286.107 32.9798C286.296 33.8104 286.368 34.6581 286.32 35.5039C286.235 37.057 285.774 38.7014 286.541 40.1056C286.724 40.4392 286.97 40.7435 287.269 41.0056C287.616 41.3448 288.098 41.5544 288.617 41.591C288.875 41.601 289.128 41.5301 289.331 41.3911C289.535 41.2521 289.674 41.0542 289.725 40.8331C289.467 41.3346 289.081 41.7777 288.596 42.1283C288.111 42.4789 287.541 42.7277 286.929 42.8555C286.317 42.9833 285.679 42.9867 285.066 42.8654C284.452 42.7442 283.878 42.5015 283.389 42.1561L284.062 43.3505C283.505 43.2245 282.964 43.0452 282.451 42.8159C280.805 42.0343 279.884 40.4473 279.446 38.8435C279.059 37.3717 278.981 35.8524 278.617 34.3738C278.334 33.2403 278.404 32.1846 279.454 31.3658Z" fill="#3F3D56"/>
<path d="M278.958 32.99C279.292 32.9805 279.626 33.0253 279.942 33.1219C280.203 33.217 280.43 33.3729 280.598 33.5728C280.765 33.7726 280.866 34.0087 280.891 34.2554C280.905 34.5034 280.836 34.7496 280.693 34.9641C280.55 35.1786 280.339 35.352 280.085 35.4634C279.754 35.5824 279.397 35.6366 279.039 35.6224C278.714 35.6224 278.385 35.6224 278.059 35.5953C277.966 35.5955 277.875 35.5758 277.792 35.5378C277.709 35.4782 277.646 35.3998 277.61 35.3111C277.398 34.9425 277.238 34.5528 277.134 34.1505C276.867 32.9054 277.827 32.9798 278.958 32.99Z" fill="#44A1A0"/>
<path d="M272.657 44.8697C272.657 44.8697 272.595 45.8475 272.517 47.1198C272.451 48.1924 272.37 49.4883 272.304 50.5643C272.191 52.3844 271.297 54.1002 269.799 55.369C268.923 56.1506 266.836 57.6089 265.244 57.0912C264.469 56.8408 264.442 55.9881 264.605 55.4772C264.963 54.5457 265.163 53.5733 265.198 52.591C265.223 51.7959 265.141 51.0009 264.954 50.2225C263.954 48.0469 272.657 44.8697 272.657 44.8697Z" fill="url(#paint5_linear_415_877)"/>
<path d="M272.657 44.8697C272.657 44.8697 272.595 45.8475 272.517 47.1198C271.905 48.3108 271.332 49.2819 271.019 49.7657C270.387 50.7436 267.792 52.2831 265.209 52.591C265.235 51.7959 265.153 51.0009 264.965 50.2225C263.954 48.0469 272.657 44.8697 272.657 44.8697Z" fill="url(#paint6_linear_415_877)"/>
<path d="M265.077 31.914C263.937 31.9746 262.823 32.2397 261.805 32.6928C260.787 33.1459 259.886 33.7773 259.16 34.5477C258.433 35.3181 257.896 36.2109 257.581 37.1706C257.267 38.1303 257.182 39.1363 257.332 40.1259C257.59 43.0822 258.459 45.9732 259.896 48.6593C262.607 52.7197 269.477 49.3801 270.565 47.7086C271.654 46.0371 275.829 38.4984 274.074 36.3634C272.866 34.922 269.516 31.7583 265.077 31.914Z" fill="url(#paint7_linear_415_877)"/>
<path d="M262.638 27.7894C265.552 27.0455 268.662 27.1248 271.522 28.0161C274.338 28.95 276.766 30.8718 277.839 33.3317C278.762 35.6113 278.673 38.1103 277.591 40.3357C276.501 42.543 274.764 44.4604 272.556 45.8949C271.987 44.3723 273.741 43.0189 274.423 41.5335C274.581 41.259 274.615 40.9427 274.52 40.647C274.272 40.0955 273.327 40.0346 272.788 40.3932C272.25 40.7519 272.014 41.3576 271.816 41.9226C272.339 39.5034 272.726 36.6611 270.767 34.8881C269.605 33.8392 267.85 33.4467 266.177 33.4332C264.641 33.4292 263.12 33.7008 261.708 34.2309C260.297 34.7611 259.024 35.5387 257.971 36.5156C257.355 37.0942 256.48 37.8048 255.697 37.4055C255.454 37.2601 255.263 37.057 255.147 36.8202C252.835 32.8208 258.908 28.6826 262.638 27.7894Z" fill="#3F3D56"/>
<path d="M266.379 32.2591C264.442 31.5147 262.409 30.9056 260.306 30.9056C258.203 30.9056 256.023 31.5282 254.632 32.9087C253.906 33.678 253.378 34.5746 253.083 35.5378C252.85 36.1404 252.757 36.7779 252.812 37.4123C252.896 37.8723 253.026 38.3252 253.199 38.7657C253.563 39.862 253.718 41.1342 252.924 42.0546C252.777 42.2381 252.584 42.39 252.36 42.499C252.136 42.608 251.887 42.6712 251.631 42.6839C251.374 42.6879 251.125 42.61 250.93 42.4648C250.734 42.3197 250.606 42.1173 250.57 41.8955C250.229 42.738 250.786 43.726 251.673 44.1693C252.13 44.3725 252.631 44.4887 253.143 44.5103C253.655 44.5319 254.167 44.4583 254.644 44.2945C255.045 44.1839 255.417 44.0057 255.74 43.77C256.059 43.5019 256.321 43.187 256.514 42.8395C257.324 41.5572 257.731 40.1327 258.335 38.7488C258.939 37.3649 259.814 36.0419 261.243 35.2637C262.376 34.7237 263.648 34.4475 264.938 34.4618C266.22 34.4246 267.51 34.5159 268.788 34.4144C270.066 34.3129 269.14 33.6497 268.59 33.3012C267.896 32.8883 267.155 32.5391 266.379 32.2591Z" fill="#3F3D56"/>
<path d="M318.396 20.1289C318.725 20.3522 315.642 22.4501 315.642 22.4501C315.642 22.4501 314.201 24.6189 312.738 25.2212C311.274 25.8235 300.274 41.5132 300.274 41.5132L295.933 38.0755L305.298 27.0687C305.298 27.0687 308.396 21.8816 308.051 19.6248C308.051 19.6248 308.237 16.9585 309.171 18.1969C309.829 19.08 309.407 20.4707 310.185 20.6196C310.271 20.6263 310.358 20.6098 310.433 20.5722C311.079 20.2297 311.671 19.8157 312.195 19.3406C313.744 18.0514 315.596 16.2581 315.596 16.2581C315.596 16.2581 316.61 15.8825 316.483 16.2581C316.355 16.6337 314.492 19.168 314.387 19.3033C314.562 19.1646 317.42 16.9348 317.873 17.1074C318.326 17.28 315.658 19.8481 315.503 19.997C315.669 19.8955 318.717 18.0413 318.946 18.2071C319.376 18.5217 316.622 20.6094 316.394 20.7684C316.568 20.6872 318.082 19.9124 318.396 20.1289Z" fill="url(#paint8_linear_415_877)"/>
<path d="M315.127 21.7361C314.896 21.8019 314.651 21.8193 314.411 21.7869C313.63 21.735 312.846 21.7237 312.064 21.753C311.537 21.7733 310.449 22.0914 310.422 21.3775C310.422 21.188 310.476 21.0019 310.464 20.8124C310.464 20.7312 310.441 20.65 310.425 20.5688C311.071 20.2263 311.663 19.8123 312.188 19.3372C312.425 19.4064 312.649 19.5056 312.854 19.6315C313.37 19.9225 313.879 20.2101 314.38 20.4943C314.651 20.65 314.922 20.8056 315.181 20.9748C315.296 21.0375 315.388 21.128 315.445 21.2353C315.47 21.3382 315.451 21.4456 315.393 21.5376C315.335 21.6296 315.24 21.7001 315.127 21.7361Z" fill="url(#paint9_linear_415_877)"/>
<path d="M239.501 2.51068C239.082 2.55128 240.438 5.75215 240.438 5.75215C240.438 5.75215 240.353 8.25939 241.232 9.44364C242.111 10.6279 241.987 28.7808 241.987 28.7808L247.75 28.1041L246.441 14.431C246.441 14.431 246.941 8.59775 248.594 6.84167C248.594 6.84167 250.043 4.49007 248.505 5.11265C247.413 5.55929 246.929 6.93302 246.182 6.70294C246.103 6.66923 246.04 6.61472 246 6.54729C245.648 5.96094 245.387 5.33624 245.225 4.68971C244.679 2.87949 244.199 0.504212 244.199 0.504212C244.199 0.504212 243.579 -0.274013 243.478 0.101565C243.378 0.477143 243.412 3.48515 243.416 3.65771C243.35 3.46485 242.274 0.243676 241.77 0.186155C241.267 0.128634 241.999 3.5359 242.045 3.73215C241.96 3.56974 240.496 0.592185 240.194 0.626021C239.64 0.697076 240.74 3.74907 240.821 3.97577C240.713 3.82689 239.896 2.47684 239.501 2.51068Z" fill="url(#paint10_linear_415_877)"/>
<path d="M241.298 5.38328C241.455 5.54384 241.652 5.67014 241.875 5.75209C242.57 6.06859 243.242 6.42111 243.889 6.80776C244.326 7.0683 245.051 7.84652 245.512 7.24425C245.635 7.0886 245.694 6.90589 245.817 6.74686C245.874 6.6796 245.935 6.6152 246 6.554C245.648 5.96764 245.387 5.34294 245.225 4.69641C244.982 4.64614 244.731 4.62789 244.481 4.64227L242.665 4.67272C242.34 4.67272 242.014 4.67272 241.689 4.70994C241.551 4.7094 241.416 4.74474 241.302 4.81145C241.222 4.89041 241.178 4.9917 241.178 5.09673C241.177 5.20177 241.22 5.3035 241.298 5.38328Z" fill="url(#paint11_linear_415_877)"/>
<path d="M219.079 162.145C217.53 164.909 216.403 167.058 216.403 167.058L196.91 167.87C196.91 167.87 200.14 160.402 205.396 162.331C207.174 162.981 213.614 161.759 213.614 161.759L213.816 161.194L219.079 162.145Z" fill="url(#paint12_linear_415_877)"/>
<path d="M288.164 162.981L285.178 164.442L259.617 140.967L256.797 109.628L233.49 128.099C233.49 128.099 234.114 140.818 225.965 150.769C224.505 152.552 221.534 157.733 219.288 161.779C219.218 161.905 219.149 162.033 219.083 162.158L218.645 162.08L217.123 161.803L213.82 161.208L224.532 123.379L248.873 89.5229L264.872 93.2448L272.231 94.9603C272.231 94.9603 277.196 103.653 272.231 126.15L268.939 139.028C268.939 139.028 282.207 145.21 286.297 157.438L288.16 162.974L288.164 162.981Z" fill="#3F3D56"/>
<path d="M288.164 162.98L291.196 165.752L283.501 172.762H273.431C273.431 172.762 275.577 169.666 279.868 169.176C284.159 168.685 285.186 164.439 285.186 164.439L288.164 162.98Z" fill="url(#paint13_linear_415_877)"/>
<path opacity="0.22" d="M83.5813 25.0588L81.8811 25.5461C89.2396 21.7531 87.8299 12.12 87.7408 11.5516C87.857 12.0084 89.5688 18.3661 88.6354 20.4538C87.4697 23.0625 83.5813 25.0588 83.5813 25.0588ZM71.4203 36.6916C70.5218 37.7777 66.951 39.4526 66.707 39.5643C71.5094 37.0706 70.4211 30.6519 70.4211 30.6519V30.6891C70.6109 31.129 72.2956 35.6292 71.4203 36.6916Z" fill="white"/>
<path opacity="0.22" d="M69.1895 72.5001L148.069 125.524L151.384 123.366L68.903 67.8713L69.1895 72.5001Z" fill="white"/>
<path opacity="0.22" d="M153.995 125.182L239.086 71.6745V68.0236L151.384 123.514L153.995 125.182Z" fill="white"/>
<path opacity="0.22" d="M239.04 67.2115L238.808 67.78L237.076 69.2924C238.292 67.4585 234.857 63.202 234.857 63.202L233.486 62.3053L229.369 59.5985L151.384 8.63491L153.867 6.97357L233.831 60.5256C235.272 61.1678 236.505 62.1171 237.416 63.2857C238.326 64.4543 238.885 65.8045 239.04 67.2115Z" fill="white"/>
<path opacity="0.61" d="M301.855 42.7685C301.855 42.7685 288.753 57.5717 286.266 60.0518C281.731 64.5588 278.807 70.4699 278.807 70.4699L272.223 94.9467L264.864 93.2313C264.864 93.2313 271.735 70.788 274.496 66.0239C277.258 61.2598 300.267 41.5132 300.267 41.5132L301.855 42.7685Z" fill="url(#paint14_linear_415_877)"/>
<path d="M288.16 162.974C288.024 162.635 283.652 152.024 277.087 147.575C270.422 143.055 266.549 136.815 266.549 136.815C264.981 124.837 264.872 93.2313 264.872 93.2313L272.231 94.9468C272.231 94.9468 277.196 103.639 272.231 126.137L268.939 139.015C268.939 139.015 282.207 145.21 286.297 157.438L288.16 162.974ZM233.49 128.092C233.49 128.092 234.114 140.811 225.965 150.762C224.505 152.546 221.534 157.726 219.288 161.773L218.645 162.074L217.123 161.796L229.757 126.983C229.757 126.983 245.058 111.144 247.859 109.628C250.659 108.112 256.797 109.628 256.797 109.628L233.49 128.092Z" fill="#25233A"/>
</g>
<defs>
<linearGradient id="paint0_linear_415_877" x1="71.3158" y1="63.1444" x2="72.4808" y2="59.5198" gradientUnits="userSpaceOnUse">
<stop offset="0.36" stop-color="#00272E"/>
<stop offset="0.75" stop-color="#3F80A1" stop-opacity="0.25"/>
<stop offset="1" stop-color="#69B9EB" stop-opacity="0"/>
</linearGradient>
<linearGradient id="paint1_linear_415_877" x1="132.829" y1="117.404" x2="167.002" y2="11.0424" gradientUnits="userSpaceOnUse">
<stop offset="0.36" stop-color="#00272E"/>
<stop offset="0.75" stop-color="#3F80A1" stop-opacity="0.25"/>
<stop offset="1" stop-color="#69B9EB" stop-opacity="0"/>
</linearGradient>
<linearGradient id="paint2_linear_415_877" x1="152.155" y1="47.2382" x2="149.163" y2="214.522" gradientUnits="userSpaceOnUse">
<stop stop-color="#B83BCC"/>
<stop offset="0.01" stop-color="#CA60DB"/>
<stop offset="0.12" stop-color="#D372E2"/>
<stop offset="0.24" stop-color="#C757D9"/>
<stop offset="0.37" stop-color="#4C718B"/>
<stop offset="0.5" stop-color="#465A73"/>
<stop offset="0.63" stop-color="#424A63"/>
<stop offset="0.79" stop-color="#404059"/>
<stop offset="0.99" stop-color="#3F3D56"/>
</linearGradient>
<linearGradient id="paint3_linear_415_877" x1="152.418" y1="47.2416" x2="149.427" y2="214.529" gradientUnits="userSpaceOnUse">
<stop stop-color="#FF9444"/>
<stop offset="0.01" stop-color="#EAA069"/>
<stop offset="0.12" stop-color="#F39F60"/>
<stop offset="0.24" stop-color="#F19C5C"/>
<stop offset="0.37" stop-color="#4C718B"/>
<stop offset="0.5" stop-color="#465A73"/>
<stop offset="0.63" stop-color="#424A63"/>
<stop offset="0.79" stop-color="#404059"/>
<stop offset="0.99" stop-color="#3F3D56"/>
</linearGradient>
<linearGradient id="paint4_linear_415_877" x1="153.836" y1="47.2654" x2="150.844" y2="214.553" gradientUnits="userSpaceOnUse">
<stop stop-color="#68E1FD"/>
<stop offset="0.01" stop-color="#67DDF9"/>
<stop offset="0.12" stop-color="#5CB3CE"/>
<stop offset="0.24" stop-color="#538EA9"/>
<stop offset="0.37" stop-color="#4C718B"/>
<stop offset="0.5" stop-color="#465A73"/>
<stop offset="0.63" stop-color="#424A63"/>
<stop offset="0.79" stop-color="#404059"/>
<stop offset="0.99" stop-color="#3F3D56"/>
</linearGradient>
<linearGradient id="paint5_linear_415_877" x1="264.527" y1="51.0346" x2="272.657" y2="51.0346" gradientUnits="userSpaceOnUse">
<stop stop-color="#ECC4D7"/>
<stop offset="0.42" stop-color="#EFD4D1"/>
<stop offset="1" stop-color="#F2EAC9"/>
</linearGradient>
<linearGradient id="paint6_linear_415_877" x1="268.834" y1="47.0826" x2="267.552" y2="63.5406" gradientUnits="userSpaceOnUse">
<stop stop-color="#ECC4D7"/>
<stop offset="0.42" stop-color="#EFD4D1"/>
<stop offset="1" stop-color="#F2EAC9"/>
</linearGradient>
<linearGradient id="paint7_linear_415_877" x1="257.266" y1="41.2493" x2="274.504" y2="41.2493" gradientUnits="userSpaceOnUse">
<stop stop-color="#ECC4D7"/>
<stop offset="0.42" stop-color="#EFD4D1"/>
<stop offset="1" stop-color="#F2EAC9"/>
</linearGradient>
<linearGradient id="paint8_linear_415_877" x1="295.933" y1="28.8011" x2="319" y2="28.8011" gradientUnits="userSpaceOnUse">
<stop stop-color="#ECC4D7"/>
<stop offset="0.42" stop-color="#EFD4D1"/>
<stop offset="1" stop-color="#F2EAC9"/>
</linearGradient>
<linearGradient id="paint9_linear_415_877" x1="313.694" y1="26.4156" x2="311.908" y2="10.5394" gradientUnits="userSpaceOnUse">
<stop stop-color="#ECC4D7"/>
<stop offset="0.42" stop-color="#EFD4D1"/>
<stop offset="1" stop-color="#F2EAC9"/>
</linearGradient>
<linearGradient id="paint10_linear_415_877" x1="253.552" y1="20.2939" x2="235.56" y2="7.42559" gradientUnits="userSpaceOnUse">
<stop stop-color="#ECC4D7"/>
<stop offset="0.42" stop-color="#EFD4D1"/>
<stop offset="1" stop-color="#F2EAC9"/>
</linearGradient>
<linearGradient id="paint11_linear_415_877" x1="239.874" y1="10.1417" x2="249.633" y2="-3.48717" gradientUnits="userSpaceOnUse">
<stop stop-color="#ECC4D7"/>
<stop offset="0.42" stop-color="#EFD4D1"/>
<stop offset="1" stop-color="#F2EAC9"/>
</linearGradient>
<linearGradient id="paint12_linear_415_877" x1="206.364" y1="159.066" x2="208.673" y2="170.076" gradientUnits="userSpaceOnUse">
<stop stop-color="#875AD0"/>
<stop offset="0.01" stop-color="#A07CDC"/>
<stop offset="0.12" stop-color="#9F78E0"/>
<stop offset="0.24" stop-color="#926CCF"/>
<stop offset="0.37" stop-color="#8F6ACA"/>
<stop offset="0.5" stop-color="#624673"/>
<stop offset="0.63" stop-color="#424A63"/>
<stop offset="0.79" stop-color="#404059"/>
<stop offset="0.99" stop-color="#3F3D56"/>
</linearGradient>
<linearGradient id="paint13_linear_415_877" x1="279.965" y1="166.391" x2="284.094" y2="173.004" gradientUnits="userSpaceOnUse">
<stop stop-color="#875AD0"/>
<stop offset="0.01" stop-color="#875AD0"/>
<stop offset="0.12" stop-color="#875AD0"/>
<stop offset="0.24" stop-color="#8853A9"/>
<stop offset="0.37" stop-color="#6C4C8B"/>
<stop offset="0.5" stop-color="#654673"/>
<stop offset="0.63" stop-color="#424A63"/>
<stop offset="0.79" stop-color="#404059"/>
<stop offset="0.99" stop-color="#3F3D56"/>
</linearGradient>
<linearGradient id="paint14_linear_415_877" x1="298.175" y1="75.2272" x2="270.926" y2="57.2535" gradientUnits="userSpaceOnUse">
<stop/>
<stop offset="0.98" stop-opacity="0"/>
</linearGradient>
<clipPath id="clip0_415_877">
<rect width="319" height="202" fill="white"/>
</clipPath>
</defs>
</svg>
