<svg width="370" height="299" viewBox="0 0 370 299" fill="none" xmlns="http://www.w3.org/2000/svg">
<g clip-path="url(#clip0_243_678)">
<path opacity="0.19" d="M78.319 276.434C78.9785 278.096 77.6177 279.939 75.9533 280.731C74.289 281.522 72.3629 281.592 70.5625 282.038C67.7624 282.729 65.2972 284.301 62.5861 285.268C58.8649 286.595 54.8139 286.74 50.8414 286.87C38.856 287.266 26.0645 287.461 15.8795 281.402C15.4962 281.222 15.1854 280.926 14.995 280.56C14.8879 280.198 14.9271 279.81 15.1049 279.474C15.9475 277.616 18.3655 277.05 20.4591 276.734C30.3196 275.262 40.4156 273.93 50.4018 273.594C55.5937 273.429 76.3511 271.456 78.319 276.434Z" fill="url(#paint0_linear_243_678)"/>
<path opacity="0.18" d="M346.626 168.936C348.751 147.727 359.538 125.291 348.51 106.115C345.616 101.107 341.465 96.8152 336.823 92.8238C330.689 87.5604 323.702 82.8077 317.594 77.5042C306.786 68.1292 300.605 56.8761 292.278 46.5796C288.828 42.2309 284.903 38.247 280.57 34.6955C278.846 33.3033 277.101 31.9327 275.336 30.5839C260.859 19.6113 244.566 10.1912 226.038 4.72238C199.765 -3.01505 168.524 -1.76804 146.343 12.3546C138.356 17.4378 131.887 23.8982 125.648 30.5839C120.613 35.9776 115.751 41.5164 110.371 46.5645C105.561 51.1119 100.348 55.2785 94.2611 58.6189C85.5939 63.3815 75.6182 66.181 66.4224 70.1825C60.5231 72.7484 54.9116 75.8811 49.6742 79.5325C42.6444 84.4162 36.3578 90.2108 30.9946 96.7501C19.3598 110.943 12.7862 128.045 13.231 145.263C13.2991 147.957 13.5294 150.667 13.6183 153.371C13.7904 156.341 13.6095 159.32 13.0792 162.25C12.1058 167.058 9.7139 171.575 7.24354 176.052C3.88342 182.157 0.361056 188.187 0.0260908 194.803C-0.560098 206.191 8.25366 215.946 18.0304 224.285C19.6634 225.677 21.3278 227.034 22.9712 228.351C25.5881 230.455 28.2835 232.558 30.9999 234.636L31.5232 235.037C32.9783 236.144 34.4385 237.246 35.9197 238.337C39.6357 241.077 43.4407 243.746 47.3399 246.29C49.0845 247.422 50.8291 248.522 52.5737 249.59C56.6508 252.095 60.8327 254.383 65.1349 256.472C75.7648 261.64 87.1169 265.416 99.3327 266.918C132.793 270.925 166.074 256.687 199.822 258.57C221.966 259.802 242.619 267.885 264.078 272.592C285.536 277.3 310.455 278.051 327.758 266.418C343.705 255.715 348.934 237.226 348.976 220.128C349.018 203.031 344.93 185.978 346.626 168.936Z" fill="#44A1A0"/>
<path d="M322.341 30.5841H45.4715C43.5738 30.5815 41.6942 30.9365 39.9399 31.629C38.1856 32.3214 36.5911 33.3377 35.2473 34.6198C33.9035 35.902 32.8367 37.4248 32.108 39.1014C31.3792 40.778 31.0027 42.5755 31 44.3913V235.042H336.797V44.4113C336.797 40.7441 335.274 37.2271 332.564 34.634C329.854 32.0409 326.179 30.5841 322.346 30.5841H322.341Z" fill="url(#paint1_linear_243_678)"/>
<path opacity="0.47" d="M86.4104 204.243C85.887 209.466 80.9881 213.302 75.9427 214.945C73.3258 215.796 70.5467 216.272 68.3013 217.825C66.056 219.377 64.5853 222.517 65.9985 224.836C67.7165 224.828 69.3972 225.316 70.8217 226.235C72.2461 227.154 73.3485 228.462 73.9853 229.989C70.756 234.692 65.0354 237.261 59.3306 238.002C53.6257 238.743 47.8162 237.872 42.1636 236.97C40.18 236.66 38.0655 236.279 36.6367 234.887C35.2079 233.495 34.8153 231.472 34.4594 229.553C34.4123 229.283 34.36 229.013 34.3077 228.737H30.8743V46.5647H49.6166V133.204C49.6166 140.27 49.2816 147.397 49.3968 154.438C49.5119 161.139 54.17 164.534 58.6083 169.407C59.9743 170.909 61.3927 172.502 61.7957 174.48C62.2301 176.578 61.445 178.802 62.026 180.86C63.0309 184.436 67.7361 185.788 71.3474 184.777C74.9588 183.765 77.8531 181.161 80.9672 179.087C86.3489 175.516 92.6662 173.453 99.2071 173.133C97.0141 182.032 86.2272 187.656 85.976 196.826C85.8975 199.31 86.6616 201.764 86.4104 204.243Z" fill="url(#paint2_linear_243_678)"/>
<path d="M17.6799 212.095C12.9694 204.809 9.6721 196.621 8.73525 188.102C8.15953 182.909 8.40552 177.43 5.95609 172.762C4.50108 169.988 2.13016 167.604 1.39742 164.574C0.0366302 158.915 4.78371 153.742 9.14349 149.7C9.40503 149.401 9.75544 149.184 10.1484 149.079C10.8288 148.959 11.4411 149.5 11.8546 150.036C14.3511 153.256 14.55 157.548 15.1886 161.489C15.8742 165.771 17.3397 170.198 20.7469 173.058C24.1541 175.917 29.4036 177.174 31.0837 181.211C32.5753 184.807 30.4347 189.048 31.7798 192.699C33.1249 196.35 37.7254 198.539 38.4163 202.385C38.8768 204.939 37.4428 207.473 37.4846 210.062C37.516 212.035 38.4006 213.893 38.903 215.811C39.9812 219.928 38.903 231.982 32.366 228.457C26.4465 225.277 21.1551 217.469 17.6799 212.095Z" fill="#55C541"/>
<path d="M17.6799 212.095C12.9694 204.809 9.6721 196.621 8.73525 188.102C8.15953 182.909 8.40552 177.43 5.95609 172.762C4.50108 169.988 2.13016 167.604 1.39742 164.574C0.0366302 158.915 4.78371 153.742 9.14349 149.7C9.40503 149.401 9.75544 149.184 10.1484 149.079C10.8288 148.959 11.4411 149.5 11.8546 150.036C14.3511 153.256 14.55 157.548 15.1886 161.489C15.8742 165.771 17.3397 170.198 20.7469 173.058C24.1541 175.917 29.4036 177.174 31.0837 181.211C32.5753 184.807 30.4347 189.048 31.7798 192.699C33.1249 196.35 37.7254 198.539 38.4163 202.385C38.8768 204.939 37.4428 207.473 37.4846 210.062C37.516 212.035 38.4006 213.893 38.903 215.811C39.9812 219.928 38.903 231.982 32.366 228.457C26.4465 225.277 21.1551 217.469 17.6799 212.095Z" fill="url(#paint3_linear_243_678)"/>
<path d="M29.5605 203.817C27.8491 195.414 27.7915 186.63 30.0839 178.346C31.4709 173.293 33.7476 168.255 33.1562 163.062C32.8212 159.972 31.4813 156.937 31.921 153.862C32.7427 148.108 39.0913 144.847 44.6601 142.564C45.0181 142.376 45.4256 142.292 45.8325 142.323C46.5181 142.444 46.8793 143.155 47.0729 143.796C48.2191 147.652 46.8269 151.719 45.9581 155.64C45.0213 159.877 44.7543 164.514 46.8793 168.34C49.0042 172.166 53.4582 175.121 53.5367 179.463C53.6047 183.334 50.0353 186.579 49.9463 190.446C49.8573 194.312 53.3483 197.918 52.5632 201.754C52.0398 204.298 49.7683 206.181 48.8524 208.615C48.1511 210.473 48.2924 212.511 48.0569 214.474C47.5335 218.691 42.1008 229.614 37.2647 224.09C32.9102 219.102 30.8167 210.012 29.5605 203.817Z" fill="#55C541"/>
<path d="M29.5605 203.817C27.8491 195.414 27.7915 186.63 30.0839 178.346C31.4709 173.293 33.7476 168.255 33.1562 163.062C32.8212 159.972 31.4813 156.937 31.921 153.862C32.7427 148.108 39.0913 144.847 44.6601 142.564C45.0181 142.376 45.4256 142.292 45.8325 142.323C46.5181 142.444 46.8793 143.155 47.0729 143.796C48.2191 147.652 46.8269 151.719 45.9581 155.64C45.0213 159.877 44.7543 164.514 46.8793 168.34C49.0042 172.166 53.4582 175.121 53.5367 179.463C53.6047 183.334 50.0353 186.579 49.9463 190.446C49.8573 194.312 53.3483 197.918 52.5632 201.754C52.0398 204.298 49.7683 206.181 48.8524 208.615C48.1511 210.473 48.2924 212.511 48.0569 214.474C47.5335 218.691 42.1008 229.614 37.2647 224.09C32.9102 219.102 30.8167 210.012 29.5605 203.817Z" fill="url(#paint4_linear_243_678)"/>
<path d="M41.6298 205.214C46.1309 197.813 52.1341 191.192 59.5452 186.374C64.0672 183.444 69.233 181.076 72.3838 176.809C74.2575 174.275 75.3461 171.15 77.7903 169.111C82.3699 165.3 89.378 166.868 95.1561 168.651C95.5552 168.732 95.9197 168.926 96.2029 169.207C96.6373 169.707 96.4227 170.494 96.1244 171.1C94.3344 174.72 90.4823 176.899 87.1327 179.303C83.5056 181.897 80.1141 185.217 79.0778 189.434C78.0415 193.651 79.3552 198.684 76.419 201.999C73.8021 204.954 68.8876 205.139 66.1555 208.009C63.4234 210.879 63.57 215.776 60.346 218.17C58.2053 219.758 55.1959 219.743 52.8302 220.995C51.0245 221.951 49.7265 223.569 48.193 224.896C44.9062 227.746 33.2923 232.528 33.4598 225.327C33.6011 218.841 38.3063 210.673 41.6298 205.214Z" fill="#55C541"/>
<path d="M41.6298 205.214C46.1309 197.813 52.1341 191.192 59.5452 186.374C64.0672 183.444 69.233 181.076 72.3838 176.809C74.2575 174.275 75.3461 171.15 77.7903 169.111C82.3699 165.3 89.378 166.868 95.1561 168.651C95.5552 168.732 95.9197 168.926 96.2029 169.207C96.6373 169.707 96.4227 170.494 96.1244 171.1C94.3344 174.72 90.4823 176.899 87.1327 179.303C83.5056 181.897 80.1141 185.217 79.0778 189.434C78.0415 193.651 79.3552 198.684 76.419 201.999C73.8021 204.954 68.8876 205.139 66.1555 208.009C63.4234 210.879 63.57 215.776 60.346 218.17C58.2053 219.758 55.1959 219.743 52.8302 220.995C51.0245 221.951 49.7265 223.569 48.193 224.896C44.9062 227.746 33.2923 232.528 33.4598 225.327C33.6011 218.841 38.3063 210.673 41.6298 205.214Z" fill="url(#paint5_linear_243_678)"/>
<path d="M69.725 231.251L69.0237 235.042L68.4218 238.343L66.9877 246.295L66.4172 249.596L64.9727 257.553L64.3708 260.849L60.7804 280.62H23.4475L19.8257 260.849L19.2238 257.553L17.7898 249.596L17.1826 246.295L15.6962 238.343L15.1048 235.042L14.4139 231.256C14.2582 230.407 14.2788 229.537 14.4747 228.696C14.6705 227.854 15.0378 227.058 15.5555 226.352C16.0731 225.647 16.731 225.046 17.4916 224.584C18.2522 224.121 19.1004 223.807 19.988 223.659C20.3803 223.593 20.7778 223.56 21.176 223.559H62.9629C63.9638 223.557 64.9529 223.766 65.8605 224.17C66.7681 224.574 67.5721 225.163 68.2158 225.897C68.8595 226.63 69.3273 227.49 69.5863 228.415C69.8452 229.34 69.889 230.308 69.7145 231.251H69.725Z" fill="#44A1A0"/>
<path d="M69.725 231.251L69.0237 235.042L68.4218 238.343L66.9877 246.295L66.4172 249.596L64.9727 257.553L64.3708 260.849L60.7804 280.62H23.4475L19.8257 260.849L19.2238 257.553L17.7898 249.596L17.1826 246.295L15.6962 238.343L15.1048 235.042L14.4139 231.256C14.2582 230.407 14.2788 229.537 14.4747 228.696C14.6705 227.854 15.0378 227.058 15.5555 226.352C16.0731 225.647 16.731 225.046 17.4916 224.584C18.2522 224.121 19.1004 223.807 19.988 223.659C20.3803 223.593 20.7778 223.56 21.176 223.559H62.9629C63.9638 223.557 64.9529 223.766 65.8605 224.17C66.7681 224.574 67.5721 225.163 68.2158 225.897C68.8595 226.63 69.3273 227.49 69.5863 228.415C69.8452 229.34 69.889 230.308 69.7145 231.251H69.725Z" fill="url(#paint6_linear_243_678)"/>
<path d="M336.797 44.4113V46.5648H31V44.4113C31 40.7441 32.5225 37.2271 35.2325 34.634C37.9425 32.0409 41.6181 30.5841 45.4506 30.5841H322.32C324.218 30.5834 326.097 30.9404 327.85 31.6347C329.604 32.329 331.197 33.3469 332.54 34.6305C333.882 35.914 334.947 37.4379 335.674 39.1152C336.401 40.7926 336.775 42.5905 336.776 44.4063L336.797 44.4113Z" fill="url(#paint7_linear_243_678)"/>
<path d="M46.4553 41.0709C48.2388 41.0709 49.6846 39.6875 49.6846 37.981C49.6846 36.2744 48.2388 34.891 46.4553 34.891C44.6719 34.891 43.2261 36.2744 43.2261 37.981C43.2261 39.6875 44.6719 41.0709 46.4553 41.0709Z" fill="url(#paint8_linear_243_678)"/>
<path d="M57.2947 41.0709C59.0782 41.0709 60.524 39.6875 60.524 37.981C60.524 36.2744 59.0782 34.891 57.2947 34.891C55.5112 34.891 54.0654 36.2744 54.0654 37.981C54.0654 39.6875 55.5112 41.0709 57.2947 41.0709Z" fill="url(#paint9_linear_243_678)"/>
<path d="M68.1287 41.0709C69.9122 41.0709 71.358 39.6875 71.358 37.981C71.358 36.2744 69.9122 34.891 68.1287 34.891C66.3452 34.891 64.8994 36.2744 64.8994 37.981C64.8994 39.6875 66.3452 41.0709 68.1287 41.0709Z" fill="url(#paint10_linear_243_678)"/>
<path d="M221.069 96.6972V153.899C221.066 155.838 220.259 157.697 218.826 159.068C217.392 160.439 215.449 161.209 213.422 161.211H153.647C151.62 161.209 149.677 160.439 148.243 159.068C146.809 157.697 146.003 155.838 146 153.899V96.6972C146 94.758 146.805 92.8983 148.238 91.5271C149.671 90.1558 151.615 89.3855 153.641 89.3855H213.422C215.445 89.3842 217.386 90.1505 218.82 91.5164C220.253 92.8824 221.062 94.7365 221.069 96.6722V96.6972Z" fill="url(#paint11_linear_243_678)"/>
<path d="M189.645 118.477C189.676 119.533 189.407 120.578 188.868 121.5C188.329 122.422 187.54 123.188 186.583 123.716C186.34 123.85 186.14 124.044 186.002 124.277C185.863 124.51 185.793 124.775 185.798 125.043V137.563C185.798 137.792 185.751 138.018 185.659 138.23C185.568 138.441 185.434 138.633 185.265 138.795C185.095 138.957 184.895 139.085 184.674 139.173C184.453 139.261 184.216 139.306 183.977 139.306H183.087C182.848 139.306 182.611 139.261 182.39 139.173C182.169 139.085 181.968 138.957 181.799 138.795C181.63 138.633 181.496 138.441 181.404 138.23C181.313 138.018 181.266 137.792 181.266 137.563V125.043C181.268 124.774 181.197 124.51 181.059 124.276C180.921 124.043 180.722 123.848 180.48 123.711C179.557 123.201 178.789 122.47 178.252 121.588C177.716 120.707 177.429 119.707 177.421 118.687C177.413 117.667 177.684 116.663 178.207 115.775C178.73 114.886 179.486 114.143 180.401 113.621C181.317 113.098 182.359 112.813 183.425 112.795C184.49 112.777 185.542 113.025 186.477 113.516C187.411 114.007 188.195 114.723 188.751 115.593C189.306 116.464 189.615 117.458 189.645 118.477Z" fill="#44A1A0"/>
<path d="M69.0394 235.042L68.4375 238.343H15.712L15.1101 235.042H69.0394Z" fill="#44A1A0"/>
<path d="M66.9878 246.295L66.3911 249.596H17.7741L17.167 246.295H66.9878Z" fill="#44A1A0"/>
<path d="M64.9466 257.553L64.3447 260.849H19.8258L19.2239 257.553H64.9466Z" fill="#44A1A0"/>
<path d="M203.771 89.3856H197.276V81.0372C197.267 77.5506 195.81 74.2103 193.228 71.751C190.645 69.2917 187.147 67.915 183.503 67.9236C179.859 67.9322 176.368 69.3255 173.798 71.797C171.228 74.2685 169.789 77.6157 169.798 81.1023V89.3856H163.298V80.8719C163.433 75.8129 165.632 71.0055 169.424 67.4785C173.217 63.9515 178.302 61.985 183.59 62.0001C188.879 62.0151 193.952 64.0105 197.722 67.559C201.493 71.1076 203.662 75.9274 203.766 80.9871L203.771 89.3856Z" fill="url(#paint12_linear_243_678)"/>
<path d="M162.195 193L158.995 187.44H157.255V193H154.975V179.1H159.775C160.842 179.1 161.742 179.287 162.475 179.66C163.222 180.033 163.775 180.533 164.135 181.16C164.509 181.787 164.695 182.487 164.695 183.26C164.695 184.167 164.429 184.993 163.895 185.74C163.375 186.473 162.569 186.973 161.475 187.24L164.915 193H162.195ZM157.255 185.62H159.775C160.629 185.62 161.269 185.407 161.695 184.98C162.135 184.553 162.355 183.98 162.355 183.26C162.355 182.54 162.142 181.98 161.715 181.58C161.289 181.167 160.642 180.96 159.775 180.96H157.255V185.62ZM178.112 187.22C178.112 187.633 178.085 188.007 178.032 188.34H169.612C169.679 189.22 170.005 189.927 170.592 190.46C171.179 190.993 171.899 191.26 172.752 191.26C173.979 191.26 174.845 190.747 175.352 189.72H177.812C177.479 190.733 176.872 191.567 175.992 192.22C175.125 192.86 174.045 193.18 172.752 193.18C171.699 193.18 170.752 192.947 169.912 192.48C169.085 192 168.432 191.333 167.952 190.48C167.485 189.613 167.252 188.613 167.252 187.48C167.252 186.347 167.479 185.353 167.932 184.5C168.399 183.633 169.045 182.967 169.872 182.5C170.712 182.033 171.672 181.8 172.752 181.8C173.792 181.8 174.719 182.027 175.532 182.48C176.345 182.933 176.979 183.573 177.432 184.4C177.885 185.213 178.112 186.153 178.112 187.22ZM175.732 186.5C175.719 185.66 175.419 184.987 174.832 184.48C174.245 183.973 173.519 183.72 172.652 183.72C171.865 183.72 171.192 183.973 170.632 184.48C170.072 184.973 169.739 185.647 169.632 186.5H175.732ZM184.756 193.18C183.889 193.18 183.109 193.027 182.416 192.72C181.736 192.4 181.196 191.973 180.796 191.44C180.396 190.893 180.183 190.287 180.156 189.62H182.516C182.556 190.087 182.776 190.48 183.176 190.8C183.589 191.107 184.103 191.26 184.716 191.26C185.356 191.26 185.849 191.14 186.196 190.9C186.556 190.647 186.736 190.327 186.736 189.94C186.736 189.527 186.536 189.22 186.136 189.02C185.749 188.82 185.129 188.6 184.276 188.36C183.449 188.133 182.776 187.913 182.256 187.7C181.736 187.487 181.283 187.16 180.896 186.72C180.523 186.28 180.336 185.7 180.336 184.98C180.336 184.393 180.509 183.86 180.856 183.38C181.203 182.887 181.696 182.5 182.336 182.22C182.989 181.94 183.736 181.8 184.576 181.8C185.829 181.8 186.836 182.12 187.596 182.76C188.369 183.387 188.783 184.247 188.836 185.34H186.556C186.516 184.847 186.316 184.453 185.956 184.16C185.596 183.867 185.109 183.72 184.496 183.72C183.896 183.72 183.436 183.833 183.116 184.06C182.796 184.287 182.636 184.587 182.636 184.96C182.636 185.253 182.743 185.5 182.956 185.7C183.169 185.9 183.429 186.06 183.736 186.18C184.043 186.287 184.496 186.427 185.096 186.6C185.896 186.813 186.549 187.033 187.056 187.26C187.576 187.473 188.023 187.793 188.396 188.22C188.769 188.647 188.963 189.213 188.976 189.92C188.976 190.547 188.803 191.107 188.456 191.6C188.109 192.093 187.616 192.48 186.976 192.76C186.349 193.04 185.609 193.18 184.756 193.18ZM201.939 187.22C201.939 187.633 201.913 188.007 201.859 188.34H193.439C193.506 189.22 193.833 189.927 194.419 190.46C195.006 190.993 195.726 191.26 196.579 191.26C197.806 191.26 198.673 190.747 199.179 189.72H201.639C201.306 190.733 200.699 191.567 199.819 192.22C198.953 192.86 197.873 193.18 196.579 193.18C195.526 193.18 194.579 192.947 193.739 192.48C192.913 192 192.259 191.333 191.779 190.48C191.313 189.613 191.079 188.613 191.079 187.48C191.079 186.347 191.306 185.353 191.759 184.5C192.226 183.633 192.873 182.967 193.699 182.5C194.539 182.033 195.499 181.8 196.579 181.8C197.619 181.8 198.546 182.027 199.359 182.48C200.173 182.933 200.806 183.573 201.259 184.4C201.713 185.213 201.939 186.153 201.939 187.22ZM199.559 186.5C199.546 185.66 199.246 184.987 198.659 184.48C198.073 183.973 197.346 183.72 196.479 183.72C195.693 183.72 195.019 183.973 194.459 184.48C193.899 184.973 193.566 185.647 193.459 186.5H199.559ZM207.243 183.84V189.94C207.243 190.353 207.337 190.653 207.523 190.84C207.723 191.013 208.057 191.1 208.523 191.1H209.923V193H208.123C207.097 193 206.31 192.76 205.763 192.28C205.217 191.8 204.943 191.02 204.943 189.94V183.84H203.643V181.98H204.943V179.24H207.243V181.98H209.923V183.84H207.243Z" fill="url(#paint13_linear_243_678)"/>
</g>
<defs>
<linearGradient id="paint0_linear_243_678" x1="14.9374" y1="280.055" x2="78.4865" y2="280.055" gradientUnits="userSpaceOnUse">
<stop stop-color="#183866"/>
<stop offset="1" stop-color="#1A7FC1"/>
</linearGradient>
<linearGradient id="paint1_linear_243_678" x1="116.5" y1="133" x2="482" y2="133" gradientUnits="userSpaceOnUse">
<stop stop-color="#44A1A0"/>
<stop offset="1" stop-color="#44A1A0" stop-opacity="0"/>
</linearGradient>
<linearGradient id="paint2_linear_243_678" x1="142.773" y1="138.022" x2="-254.113" y2="157.189" gradientUnits="userSpaceOnUse">
<stop stop-opacity="0"/>
<stop offset="0.97" stop-color="#0C0C11"/>
<stop offset="0.98" stop-color="#312F43"/>
<stop offset="0.99" stop-color="#3F3D56"/>
</linearGradient>
<linearGradient id="paint3_linear_243_678" x1="-6.20732" y1="193.36" x2="173.219" y2="164.155" gradientUnits="userSpaceOnUse">
<stop stop-opacity="0"/>
<stop offset="0.97" stop-color="#0C0C11"/>
<stop offset="0.98" stop-color="#312F43"/>
<stop offset="0.99" stop-color="#3F3D56"/>
</linearGradient>
<linearGradient id="paint4_linear_243_678" x1="11.2264" y1="185.793" x2="138.214" y2="177.805" gradientUnits="userSpaceOnUse">
<stop stop-opacity="0"/>
<stop offset="0.29" stop-opacity="0.29"/>
<stop offset="0.97" stop-color="#0C0C11"/>
<stop offset="0.98" stop-color="#312F43"/>
<stop offset="0.99" stop-color="#3F3D56"/>
</linearGradient>
<linearGradient id="paint5_linear_243_678" x1="111.323" y1="259.667" x2="47.4424" y2="167.228" gradientUnits="userSpaceOnUse">
<stop stop-opacity="0"/>
<stop offset="0.84" stop-opacity="0.66"/>
<stop offset="0.97"/>
</linearGradient>
<linearGradient id="paint6_linear_243_678" x1="84.3536" y1="248.799" x2="2.51192" y2="255.556" gradientUnits="userSpaceOnUse">
<stop stop-opacity="0"/>
<stop offset="0.87" stop-opacity="0.66"/>
<stop offset="1"/>
</linearGradient>
<linearGradient id="paint7_linear_243_678" x1="183.189" y1="-11.5786" x2="187.167" y2="337.686" gradientUnits="userSpaceOnUse">
<stop stop-opacity="0"/>
<stop offset="0.5" stop-opacity="0.38"/>
<stop offset="0.97" stop-color="#0C0C11"/>
<stop offset="0.98" stop-color="#312F43"/>
<stop offset="0.99" stop-color="#3F3D56"/>
</linearGradient>
<linearGradient id="paint8_linear_243_678" x1="47.8161" y1="29.6876" x2="45.6985" y2="43.7289" gradientUnits="userSpaceOnUse">
<stop stop-color="#7A483D"/>
<stop offset="1" stop-color="#C06B58"/>
</linearGradient>
<linearGradient id="paint9_linear_243_678" x1="58.6555" y1="29.6926" x2="56.5379" y2="43.7339" gradientUnits="userSpaceOnUse">
<stop stop-color="#184F66"/>
<stop offset="1" stop-color="#1AA3C1"/>
</linearGradient>
<linearGradient id="paint10_linear_243_678" x1="69.4947" y1="29.6977" x2="67.3771" y2="43.7389" gradientUnits="userSpaceOnUse">
<stop stop-color="#665E18"/>
<stop offset="1" stop-color="#B4C11A"/>
</linearGradient>
<linearGradient id="paint11_linear_243_678" x1="201.191" y1="18.0259" x2="173.787" y2="199.864" gradientUnits="userSpaceOnUse">
<stop offset="0.01"/>
<stop offset="0.99" stop-opacity="0"/>
</linearGradient>
<linearGradient id="paint12_linear_243_678" x1="183.966" y1="58.8666" x2="183.329" y2="101.456" gradientUnits="userSpaceOnUse">
<stop offset="0.01"/>
<stop offset="0.99" stop-opacity="0"/>
</linearGradient>
<linearGradient id="paint13_linear_243_678" x1="182" y1="167" x2="182" y2="205" gradientUnits="userSpaceOnUse">
<stop stop-color="#2C6868"/>
<stop offset="1" stop-color="#4CAAA9"/>
</linearGradient>
<clipPath id="clip0_243_678">
<rect width="370" height="299" fill="white"/>
</clipPath>
</defs>
</svg>
